<svg id="Слой_1" data-name="Слой 1" xmlns="http://www.w3.org/2000/svg" xmlns:xlink="http://www.w3.org/1999/xlink" viewBox="0 0 542.3384 409.9746">
  <defs>
    <style>
      .cls-1 {
        fill: #f7f7f7;
      }

      .cls-2 {
        fill: url(#linear-gradient);
      }

      .cls-3 {
        fill: #6aafe8;
      }

      .cls-4 {
        fill: url(#linear-gradient-2);
      }

      .cls-5 {
        fill: url(#linear-gradient-3);
      }

      .cls-6 {
        fill: url(#linear-gradient-4);
      }

      .cls-7 {
        fill: url(#linear-gradient-5);
      }

      .cls-8 {
        fill: url(#linear-gradient-6);
      }

      .cls-21, .cls-33, .cls-9 {
        fill: #fff;
      }

      .cls-10 {
        fill: url(#linear-gradient-7);
      }

      .cls-11 {
        fill: url(#linear-gradient-8);
      }

      .cls-12 {
        fill: url(#linear-gradient-9);
      }

      .cls-13 {
        fill: url(#linear-gradient-10);
      }

      .cls-14 {
        fill: #78c2ff;
      }

      .cls-15 {
        fill: #a1d4ff;
      }

      .cls-16 {
        fill: url(#linear-gradient-11);
      }

      .cls-17 {
        fill: url(#linear-gradient-12);
      }

      .cls-18 {
        fill: #4d78eb;
      }

      .cls-19 {
        fill: #d4edfc;
      }

      .cls-20, .cls-24, .cls-27 {
        fill: #00738e;
      }

      .cls-21 {
        font-size: 3.615px;
        font-family: Raleway-SemiBold, Raleway SemiBold;
        font-weight: 600;
      }

      .cls-22 {
        letter-spacing: -0.0749em;
      }

      .cls-23 {
        letter-spacing: -0.0001em;
      }

      .cls-24, .cls-27 {
        font-size: 3.1813px;
        font-family: Raleway-Medium, Raleway Medium;
        font-weight: 500;
      }

      .cls-25 {
        letter-spacing: -0.045em;
      }

      .cls-26 {
        letter-spacing: -0.0042em;
      }

      .cls-27 {
        letter-spacing: -0.0029em;
      }

      .cls-28 {
        letter-spacing: -0.0001em;
      }

      .cls-29 {
        letter-spacing: -0.0101em;
      }

      .cls-30 {
        letter-spacing: -0.0061em;
      }

      .cls-31 {
        letter-spacing: -0.071em;
      }

      .cls-32 {
        letter-spacing: -0.013em;
      }

      .cls-33 {
        opacity: 0.15;
      }

      .cls-34 {
        fill: #6069a8;
      }

      .cls-35 {
        fill: #202338;
      }

      .cls-36 {
        fill: #464240;
      }

      .cls-37 {
        fill: #eb4747;
      }

      .cls-38 {
        fill: #325bb3;
      }

      .cls-39 {
        fill: #eea886;
      }

      .cls-40 {
        fill: #a77860;
      }

      .cls-41 {
        fill: #ff7e55;
      }

      .cls-42 {
        fill: #5e5853;
      }

      .cls-43 {
        fill: #91887f;
      }

      .cls-44 {
        fill: #eddad3;
      }

      .cls-45 {
        fill: #6e6760;
      }

      .cls-46 {
        fill: #807066;
      }
    </style>
    <linearGradient id="linear-gradient" x1="179.2117" y1="265.2899" x2="479.6406" y2="265.2899" gradientTransform="translate(645.1664 530.5797) rotate(-180)" gradientUnits="userSpaceOnUse">
      <stop offset="0" stop-color="#40d5e6"/>
      <stop offset="1" stop-color="#57f"/>
    </linearGradient>
    <linearGradient id="linear-gradient-2" x1="524.7351" y1="343.8921" x2="589.2735" y2="343.8921" gradientUnits="userSpaceOnUse">
      <stop offset="0" stop-color="#3076a1"/>
      <stop offset="1" stop-color="#639c38"/>
    </linearGradient>
    <linearGradient id="linear-gradient-3" x1="519.129" y1="334.4833" x2="603.3677" y2="334.4833" xlink:href="#linear-gradient-2"/>
    <linearGradient id="linear-gradient-4" x1="499.7692" y1="321.7351" x2="554.1218" y2="321.7351" xlink:href="#linear-gradient-2"/>
    <linearGradient id="linear-gradient-5" x1="514.8763" y1="333.4883" x2="531.3555" y2="333.4883" xlink:href="#linear-gradient-2"/>
    <linearGradient id="linear-gradient-6" x1="477.5784" y1="336.7546" x2="530.7799" y2="336.7546" xlink:href="#linear-gradient-2"/>
    <linearGradient id="linear-gradient-7" x1="513.2001" y1="457.2946" x2="557.9611" y2="283.2245" xlink:href="#linear-gradient-2"/>
    <linearGradient id="linear-gradient-8" x1="529.4708" y1="367.0611" x2="549.1387" y2="367.0611" xlink:href="#linear-gradient-2"/>
    <linearGradient id="linear-gradient-9" x1="512.5821" y1="402.522" x2="548.9434" y2="402.522" gradientUnits="userSpaceOnUse">
      <stop offset="0" stop-color="#ff9340"/>
      <stop offset="1" stop-color="#ffce45"/>
    </linearGradient>
    <linearGradient id="linear-gradient-10" x1="512.5821" y1="402.522" x2="548.9434" y2="402.522" gradientUnits="userSpaceOnUse">
      <stop offset="0" stop-color="#c97332"/>
      <stop offset="1" stop-color="#ffce45"/>
    </linearGradient>
    <linearGradient id="linear-gradient-11" x1="261.9559" y1="280.1102" x2="261.9559" y2="446.6867" gradientTransform="matrix(1, 0, 0, 1, 0, 0)" xlink:href="#linear-gradient"/>
    <linearGradient id="linear-gradient-12" x1="5.824" y1="450.6831" x2="335.3092" y2="450.6831" gradientTransform="matrix(1, 0, 0, 1, 0, 0)" xlink:href="#linear-gradient"/>
  </defs>
  <path class="cls-1" d="M505.0554,362.3776c-.4592-1.0406-1.0185-2.039-1.5485-3.0492.3133.7239.6464,1.4407,1.028,2.1423.1832.3369.3738.6694.5635,1.0026C505.0842,362.4411,505.07,362.41,505.0554,362.3776Z" transform="translate(-61.043 -45.0127)"/>
  <path class="cls-1" d="M602.0713,280.8882a.475.475,0,0,1,.107-.4275,5.7723,5.7723,0,0,0-1.1533-.9332,4.1915,4.1915,0,0,0-2.6521-.6094,9.046,9.046,0,0,0-3.7806,1.4483,17.5883,17.5883,0,0,1-1.8252,1.5793l-.0078.0087-.0011-.0015c-.0343.0257-.0656.0542-.1.08a.3958.3958,0,0,1-.4193.058l-.0035.0024c-.2074.0895-.4065.19-.6067.2892-1.3518,1.2563-2.7876,2.4194-4.1572,3.6576-.8508.7692-1.6294,1.6138-2.516,2.3429-.1762.1448-.3573.283-.5363.4242-1.0425,1.2613-2.0609,2.5394-3.1363,3.718-.0078.0086-.0169.01-.0249.0182-.2992.4722-1.0716-.0068-.8208-.5637.0219-.0486.0524-.0916.0753-.1395a.5028.5028,0,0,1-.0771-.0221,3.3452,3.3452,0,0,1-1.4807-1.9183,9.4266,9.4266,0,0,1-2.7613-2.9242.4694.4694,0,0,1-.0447-.0482c-.0284-.0465-.0458-.0978-.0732-.1446-.0758-.1355-.1414-.2743-.2088-.4126a12.06,12.06,0,0,1-1.27-5.0885,33.3575,33.3575,0,0,1,.4567-5.8282c.28-2.051.6384-4.09.994-6.1292a77.9414,77.9414,0,0,0,1.4054-11.6121H561.4487A6.1449,6.1449,0,0,1,560.29,259.9a12.8811,12.8811,0,0,0-1.7857,3.2371c-.9566,2.4855-2.0915,4.8932-3.2354,7.2977-2.1792,4.58-4.6042,9.056-6.9355,13.5609a38.0084,38.0084,0,0,1-3.5521,6.0981c-.706.9-1.4953,1.7311-2.1894,2.64-.4635.6068-.8509,1.4372-1.699,1.53a4.1452,4.1452,0,0,1-2.6022-1.0657,13.3481,13.3481,0,0,1-2.0267-1.5871,3.0945,3.0945,0,0,1-.9773-2.07,4.678,4.678,0,0,1,1.0381-2.6155,23.8042,23.8042,0,0,0,1.7408-2.5023,12.5069,12.5069,0,0,0,1.1424-3.2951,24.6229,24.6229,0,0,0,.4107-3.2373.5164.5164,0,0,1-.2627-.3968c-.3-2.39-3.0268-3.7809-4.99-4.6317-4.5779-1.9837-10.2163-1.8226-13.866-5.6336a10.6057,10.6057,0,0,1-1.1973-1.517,4.6245,4.6245,0,0,1-1.5526-2.2794.49.49,0,0,1-.0046-.0772c-.1973-.2677-.3821-.5447-.5569-.8263a25.8866,25.8866,0,0,0-3.4777-4.7953c-.0067-.0067-.0077-.0143-.0139-.0211H507a.5183.5183,0,0,1-.0728.1419,5.6766,5.6766,0,0,0-.9307,2.6074c-.1779,1.0148-.3766,2.0284-.511,3.05-.0123.0931-.0194.1866-.0308.28.03,3.88.1587,7.7577.2576,11.6363.0518,2.0322.0027,4.0819.1407,6.11a40.3289,40.3289,0,0,1,.2378,4.3068c.2373,2.6067.3974,5.2264.8831,7.8019a20.445,20.445,0,0,0,1.0567,3.8093,16.9956,16.9956,0,0,1,1.0127,2.9679c.89,1.7976,1.8763,3.5589,2.6015,5.4187a18.7339,18.7339,0,0,1,.9715,3.0073.5858.5858,0,0,1,.0569.1018,3.1833,3.1833,0,0,1,.1361,1.537.4293.4293,0,0,1,.063.2268c-.0217,1.8136-1.4742,3.329-2.7437,4.4609a.482.482,0,0,1-.4253.1213c-.006,0-.0116.0044-.0177.0045-.0451.0675-.1023.125-.1433.1959-.3667.5167-1.1913.0619-.8635-.5048.0594-.0836.1016-.1788.1575-.2649a.4941.4941,0,0,1-.0445-.2075c.008-2.0669.4167-4.1022.5436-6.1611a.5142.5142,0,0,1,.047-.1766,5.159,5.159,0,0,0-.2222-1.457,3.3843,3.3843,0,0,0-.5041-.937,14.0042,14.0042,0,0,0-2.6884-1.91,11.6393,11.6393,0,0,1-2.1619-1.6347,26.0477,26.0477,0,0,1-4.6105-3.0227,12.0628,12.0628,0,0,1-2.7305-2.4445v46.689a.4985.4985,0,0,1,.252.1782,20.4728,20.4728,0,0,1,1.4221,2.1182.485.485,0,0,1,.09.0558c1.408,1.319,2.104,3.3824,2.8892,5.1025.0508.1112.0908.2266.14.3383a22.29,22.29,0,0,1,2.8374,5.8335.4771.4771,0,0,1,.0041.0564l.0058.0053c.6908,1.5535,1.7187,2.9918,2.0476,4.6773.3139.5561.6332,1.1094.9666,1.6553,1.47,2.4066,3.0523,4.7448,4.4474,7.1969.0623.11.1157.2224.1762.3326a.4147.4147,0,0,1,.237.1508,28.7754,28.7754,0,0,1,3.6061,6.7179c.52,1.203,1.0816,2.3838,1.6566,3.5612.3091.6331.5352,1.2888.812,1.9339.2114.4927.4718.96.6814,1.454.0321.04.0562.0853.09.125a.4919.4919,0,0,1,.114.2941.5.5,0,0,1-.1052.9822c-2.0718.0705-4.1412.1869-6.21.3133a4.27,4.27,0,0,1,.3869,1.3268h35.905a.4482.4482,0,0,1-.0178-.0864c.0008-.0874.0125-.1731.02-.2594a.54.54,0,0,1,.03-.297c.0678-.4533.1934-.8975.2956-1.3457.0061-.0346.0153-.0686.0212-.1033-1.89.1483-3.7943.12-5.6837.2515a.4751.4751,0,0,1-.5894.0528c-.6413.0577-1.281.1319-1.9167.25-.5777.1077-.8417-.6864-.3958-.9111a.43.43,0,0,1,.0728-.3066,34.3438,34.3438,0,0,0,2.0428-4.1686,10.8748,10.8748,0,0,1,2.7467-3.3168c.268-.2347.55-.4524.8248-.68a5.7746,5.7746,0,0,1,1.2093-1.3163.3826.3826,0,0,1,.3183-.08,4.3949,4.3949,0,0,1,1.4543-1.0337c.9591-.5233,1.8786-1.1189,2.8393-1.6418a14.1142,14.1142,0,0,1,3.2241-1.482c.51-.1265,1.0292-.2,1.5351-.3451a6.3075,6.3075,0,0,1,1.233-.2634c.9139-.2341,1.8358-.45,2.7769-.6487a19.5154,19.5154,0,0,0,5.3067-1.6942.4383.4383,0,0,1,.3177-.2705c.5744-.1445,1.2074-.9613,1.5761-1.41a15.9709,15.9709,0,0,0,1.7176-2.6627,25.13,25.13,0,0,0,2.0562-5.8159,37.4827,37.4827,0,0,0,.9255-6.2436,26.599,26.599,0,0,1,.6639-5.8673.4809.4809,0,0,1,.1355-.216,22.3261,22.3261,0,0,1,1.3739-6.4828,8.6551,8.6551,0,0,1,.5567-1.1034,6.599,6.599,0,0,1,2.8895-3.2378c1.7853-.9613,3.8012-1.0148,5.7446-1.433a21.5049,21.5049,0,0,0,6.1978-2.1164,21.1085,21.1085,0,0,0,3.8314-3.0117,18.991,18.991,0,0,1,1.3706-2.5726c.2389-1.3073.6193-2.6258.7929-3.9532a8.0428,8.0428,0,0,0-.2931-1.8153c-.1466-.695-.3217-1.3772-.5114-2.0617-.3767-1.36-1.0038-2.6153-1.4348-3.9547a7.6425,7.6425,0,0,1-.0126-4.802,22.485,22.485,0,0,1,1.7738-5.4025c.736-1.6356,1.5989-3.2,2.4871-4.7514a.423.423,0,0,1,.0747-.319,22.385,22.385,0,0,0,1.7843-3.3431c.542-1.1676,1.0907-2.3052,1.5193-3.5215.4265-1.21.9688-2.4132,1.2808-3.6582a18.6936,18.6936,0,0,0,.2994-4.0693C603.1246,283.132,602.338,282.11,602.0713,280.8882Z" transform="translate(-61.043 -45.0127)"/>
  <path class="cls-1" d="M504.1534,267.8265q.0461-1.4055.1683-2.8125a.5033.5033,0,0,1-.1506.08c-.0229,1.6976-.0066,3.3975-.0571,5.0905a.4376.4376,0,0,1-.2325.3876c.0962.6662.1721,1.3366.2476,2.007C504.1208,270.9951,504.1014,269.4109,504.1534,267.8265Z" transform="translate(-61.043 -45.0127)"/>
  <g>
    <path class="cls-2" d="M187.3694,165.1348H457.7971a0,0,0,0,1,0,0V355.9713a9.4736,9.4736,0,0,1-9.4736,9.4736H196.8426a9.4732,9.4732,0,0,1-9.4732-9.4732V165.1348A0,0,0,0,1,187.3694,165.1348Z" transform="translate(584.1234 485.567) rotate(180)"/>
    <path class="cls-3" d="M167.3848,174.9468H103.5821l.1113-.5679a11.2278,11.2278,0,0,1,13.3262-8.8306,19.15,19.15,0,0,1,32.4053-2.373A13.9836,13.9836,0,0,1,167.3,174.3975Zm-62.6269-.9536H166.26a13.1117,13.1117,0,0,0-12.7685-10.4663,12.9792,12.9792,0,0,0-4.1016.6606l-.3369.1113-.2031-.29a18.1968,18.1968,0,0,0-31.15,2.3l-.1709.34-.3691-.0908a10.1841,10.1841,0,0,0-2.44-.2959A10.2934,10.2934,0,0,0,104.7579,173.9932Z" transform="translate(-61.043 -45.0127)"/>
    <path class="cls-3" d="M401.7012,96.4116l-.2158-.1108c-22.6416-11.56-19.6006-33.9473-19.5684-34.1719l.0606-.4072h.4111c14.3955,0,18.92-4.6392,18.9639-4.6861l.3506-.3725.35.3745c.043.0449,4.5664,4.6841,18.9619,4.6841h.4111l.0606.4072c.0332.2246,3.0742,22.6123-19.5684,34.1719ZM382.8165,62.6743c-.2872,3.0322-1.24,22.25,18.8847,32.666,20.127-10.416,19.1729-29.6338,18.8867-32.666-12.499-.0781-17.5859-3.56-18.8867-4.664C400.4024,59.1147,395.3145,62.5962,382.8165,62.6743Z" transform="translate(-61.043 -45.0127)"/>
    <g>
      <path class="cls-4" d="M525.5938,393.9434c-3.4082-15.5743,3.9561-19.461,11.0771-23.2188,5.8194-3.0723,11.3165-5.9726,11.0235-15.1514-.3877-12.1679,7.9014-16.5947,15.2139-20.5,5.4414-2.9062,10.5791-5.65,11.3457-11.1875,1.8447-13.3212,14.1328-29.88,14.2558-30.0449l.7637.5713c-.1231.1621-12.2647,16.5274-14.0752,29.6055-.833,6.0166-6.1807,8.872-11.8408,11.8965-7.4141,3.9589-15.08,8.0527-14.711,19.6289.3125,9.7734-5.709,12.9511-11.5312,16.0244-7.1192,3.7568-13.8438,7.3056-10.5908,22.1719Z" transform="translate(-61.043 -45.0127)"/>
      <path class="cls-5" d="M598.4976,298.9458c.01-.0139.0175-.0288.027-.0428,2.3183-4.4935,4.6153-9.0614,4.8292-12.9937.0048-.2194.0116-.4385.0139-.6575a9.1224,9.1224,0,0,0-.0923-1.3131c-.3241-1.0447-.968-1.9691-1.2041-3.05h0c-.129-.1862-.2478-.3757-.3984-.5551a3.5694,3.5694,0,0,0-2.6934-1.3379,9.0182,9.0182,0,0,0-4.8255,1.7808,17.6578,17.6578,0,0,1-1.3869,1.17l-.0078.0087-.0011-.0015c-.0343.0257-.0656.0542-.1.08a.3962.3962,0,0,1-.3708.0714A107.3772,107.3772,0,0,0,581.821,291.92c-.1782.2036-.3571.4061-.5382.6046-.0078.0086-.0169.01-.0249.0182a.3982.3982,0,0,1-.2174.18c-.3138.3229-.627.6449-.9428.97-7.9873,8.2343-17.041,17.5761-23.0029,17.3486-6.4873-.2275-8.6817,7.1348-10.9981,14.9414-2.46,8.2881-5.247,17.6816-13.5849,19.668-7.83,1.8642-10.6094,2.78-11.6387,4.5273-.81,1.377-.3262,3.1016.4062,5.7129a58.3815,58.3815,0,0,1,1.5938,6.9287c2.0019,12.4776-3.4512,19.1231-3.5059,19.19l-.2382.2822.2128.3008c3.4024,4.7939,6.4209,7.1347,9.501,7.3633.1651.0117.3281.0175.4912.0175,3.9785,0,7.416-3.58,11.3711-7.6982a78.3841,78.3841,0,0,1,6.13-5.92,4.9312,4.9312,0,0,1,.741-.7168.41.41,0,0,1,.2536-.0879c.045-.035.092-.0673.1371-.1021a3.2485,3.2485,0,0,1,.8582-.6395,24.2152,24.2152,0,0,1,5.7212-3.1248c.0583-.0231.1187-.0387.1775-.06a19.4361,19.4361,0,0,1,4.2021-1.0267c.67-.16,1.3466-.3091,2.0313-.4535a24.6412,24.6412,0,0,0,4.1311-1.1507c6.2323-3.3488,7.0382-11.4454,7.7622-18.7567.7686-7.749,1.4932-15.0674,8.2041-16.041,7.34-1.0635,12.0957-3.59,14.1348-7.5088a9.3325,9.3325,0,0,0,.5437-1.2663c.1391-.6648.2977-1.3325.4381-2.0027a12.0423,12.0423,0,0,0-.0314-3.0968c-.0061-.0279-.0132-.0557-.0191-.0836-.1466-.695-.3217-1.3772-.5114-2.0617-.3167-1.1429-.8044-2.215-1.21-3.3226-.055-.1134-.1018-.2251-.1593-.3391-1.2114-2.405-.4083-5.6179,1.141-9.2013.1789-.44.3642-.8734.5545-1.2962.418-.9289.8818-1.8322,1.3628-2.726q.5127-1.01,1.0452-2.0363l.13-.2527A.4375.4375,0,0,1,598.4976,298.9458ZM593.39,314.9434c2.2021,4.3671,2.5312,8.2763.9551,11.3037-1.8907,3.6318-6.4073,5.9883-13.4268,7.0049-7.4492,1.08-8.21,8.76-9.0156,16.8906-.9024,9.0967-1.834,18.5039-12.3066,19.41-8.72.7539-14.4883,6.7618-19.5782,12.0625-3.95,4.1143-7.3613,7.668-11.1045,7.3907-2.6777-.1993-5.4892-2.3838-8.5879-6.6758,1.0772-1.45,5.3487-8.0655,3.4883-19.6612a59.3285,59.3285,0,0,0-1.6162-7.0341c-.69-2.461-1.1074-3.9453-.5019-4.9727.8574-1.457,3.955-2.3975,11.0361-4.084,8.875-2.1133,11.7461-11.7881,14.2783-20.3242,2.3047-7.7646,4.2969-14.4727,10.05-14.2588.0811.0029.1621.0039.2432.0039,6.3662-.001,15.0644-8.9668,23.4795-17.6426,7.2607-7.4843,14.12-14.5439,18.1631-14.4091a2.6164,2.6164,0,0,1,1.998.998c3.5791,4.2637.0078,11.1817-3.4473,17.8711C594.3125,304.9814,591.3047,310.8066,593.39,314.9434Z" transform="translate(-61.043 -45.0127)"/>
      <path class="cls-6" d="M553.67,305.3057c-1.6172-5.5147-7.3262-8.1787-11.9121-10.3194-.6007-.28-1.1769-.5523-1.7349-.8227a4.8684,4.8684,0,0,1-1.2264-.62c-1.8345-.9695-3.2066-1.95-3.5329-3.1533a2.5149,2.5149,0,0,1,.0941-1.4671,5.6657,5.6657,0,0,1,.9665-1.9985c.3126-.4459.65-.8712.97-1.3078a17.8529,17.8529,0,0,0,1.7619-3.8521c.0534-.2117.1068-.4235.1512-.6375.0909-.4389.1522-.8819.2119-1.3252a6.0318,6.0318,0,0,0-.3569-2.7126c-.8759-2.1937-3.1152-3.6444-5.9495-4.708-2.0121-.7-4.1628-1.1185-6.2258-1.71-.09-.0189-.1783-.0388-.268-.0576-5.9531-1.2461-7.9258-4.9288-9.666-8.1788a26.3172,26.3172,0,0,0-1.5791-2.69c-.0225-.0314-.0467-.0617-.0693-.093a6.1863,6.1863,0,0,0-3.9844-2.7368c-1.7422-.331-2.959-.1406-3.8291.5986-2.1006,1.7872-1.9688,6.7256-1.7051,16.5655.0725,2.674.1507,5.6851.2,9.073a21.6725,21.6725,0,0,1,.1014,2.6576c.191,2.0925.3423,4.192.6394,6.2722a47.3041,47.3041,0,0,0,4.2415,12.1407c2.79,5.9034,4.0625,8.5967-4.2148,13.3672-3.7823,2.18-5.9786,4.7266-6.7149,7.7871-1.4,5.8174,2.9024,12.4473,7.0635,18.8584,1.5625,2.4073,3.1787,4.8965,4.4492,7.2842a106.4956,106.4956,0,0,1,5.1045,12.9482c3.7559,10.7012,7.6406,21.7667,12.6914,22.2266.1113.0108.2227.0156.334.0156,2.0078-.0009,3.9346-1.66,5.8779-5.0615,4.4033-7.7051,4.1445-14.6015,3.87-21.9033-.3691-9.8525-.7881-21.0215,9.6309-37.4893C553.4649,315.2969,554.9727,309.752,553.67,305.3057Zm-15.1924,54.4755c.28,7.4737.5224,13.9268-3.7451,21.3956-1.8213,3.1865-3.6035,4.7216-5.2989,4.57-4.44-.4043-8.3925-11.6621-11.8789-21.5938a106.9124,106.9124,0,0,0-5.1621-13.081c-1.29-2.4239-2.917-4.93-4.49-7.3545-4.0518-6.2432-8.2412-12.6983-6.9375-18.1172.6719-2.792,2.7217-5.1416,6.2646-7.1846,9.0391-5.209,7.3682-8.7431,4.6006-14.6-2.01-4.2529-4.7636-10.0771-4.8691-19.2051-.0469-4.02-.14-7.4922-.2217-10.5566-.248-9.2354-.3838-14.3223,1.3691-15.8145a2.5525,2.5525,0,0,1,1.7207-.5283,7.0834,7.0834,0,0,1,1.3135.1406c2.5323.4815,3.6621,2.5909,4.9707,5.0332,1.7481,3.2627,3.9229,7.3243,10.3116,8.6622,5.0712,1.0615,10.4335,2.5917,11.7529,5.8955.916,2.291-.0381,5.4306-2.917,9.6a4.2815,4.2815,0,0,0-.917,3.5976c.6016,2.22,3.5723,3.6055,7.0107,5.209,4.6426,2.166,9.9053,4.6221,11.4,9.7236,1.2217,4.167-.2509,9.458-4.499,16.1748C537.6788,338.4648,538.1036,349.79,538.4776,359.7812Z" transform="translate(-61.043 -45.0127)"/>
      <path class="cls-7" d="M529.7813,392.6162l-.9082-.2871c5.0918-16.0947-4.1191-52.2061-6.8633-60.9941-1.3506-4.3213-.1035-10.8272,1.1035-17.1182,1.5586-8.125,3.17-16.5273-.9394-19.6768-7.7149-5.915-7.3086-19.6-7.2881-20.18l.9521.0351c-.0039.1367-.4072,13.7734,6.9161,19.3887,4.5761,3.5068,2.9082,12.2031,1.2949,20.6123-1.1836,6.1758-2.4082,12.56-1.1309,16.6543C526.3145,341.9189,534.8614,376.56,529.7813,392.6162Z" transform="translate(-61.043 -45.0127)"/>
      <path class="cls-8" d="M525.7764,361.5c.5069-11.4141,10.666-18.64.5069-25.9951-8.77-6.35-17.5723-8.9079-17.6624-20.1546a.43.43,0,0,1-.0033-.1826,29.5714,29.5714,0,0,1,.6244-5.76c.0345-.3494.0719-.6984.0935-1.0489a.497.497,0,0,1,.0342-.1289,4.1773,4.1773,0,0,0-1.9593-3.455c-.4772-.3147-.9722-.605-1.4426-.8969-.3676-.2283-.7309-.4714-1.0859-.7259a34.65,34.65,0,0,1-7.0317-4.9533,7.4515,7.4515,0,0,1-1.42-1.4742,28.5921,28.5921,0,0,1-5.1636-8.6508c-2.12-5.3808-10.3994-4.5644-9.6376,3.044.76,7.6093,6.0869,15.7255-2.0293,28.6611s10.3984,15.4717,16.9931,23.5879a35.2814,35.2814,0,0,1,2.274,3.1661,10.1674,10.1674,0,0,1,1.06,1.7251c3.0818,5.3029,5.1727,11.1909,7.8155,16.2252,1.0411,1.6648,2.107,3.3143,3.1156,4.9987.0658.0862.1265.1788.1933.2638a22.6,22.6,0,0,1,1.4773,2.1556,26.2623,26.2623,0,0,1,2.4322,4.5429c3.63,7.4691,6.622,15.8042,10.04,11.0564C529.5665,381.16,525.27,372.9141,525.7764,361.5Z" transform="translate(-61.043 -45.0127)"/>
      <path class="cls-9" d="M532.3926,388.9687c-.0556-.3369-5.6963-33.7705-18.3252-42.9335-12.8779-9.3428-15.2177-17.9747-19.7158-38.3282l.9307-.205c4.4433,20.1015,6.748,28.624,19.3447,37.7626,12.9453,9.3916,18.4766,42.1583,18.7061,43.5489Z" transform="translate(-61.043 -45.0127)"/>
      <path class="cls-10" d="M577.8268,288.9973a9.6107,9.6107,0,0,1-.6851-.7174c-.0319-.0322-.0616-.0651-.0938-.0973a7.64,7.64,0,0,1-1.9357-3.6806,13.5511,13.5511,0,0,1-.516-3.2206,31.6061,31.6061,0,0,1,.4154-5.5188c1.1987-10.2165,5.0254-22.7877-2.0223-27.1449-5.2187-3.2266-10.803,7.5406-16.7893,19.8427q-.4619.9891-.9316,1.9747c-.6509,1.3681-1.3275,2.7252-2.0132,4.0781-1.7038,3.4736-3.439,6.9083-5.2069,10.0377a33.8218,33.8218,0,0,1-3.2675,5.5432c-.342.4357-.704.855-1.0648,1.2753q-.744,1.0059-1.4954,1.8871a3.2873,3.2873,0,0,1-.62.7025,12.61,12.61,0,0,1-5.4559,3.8642c-14.0137,4.0577,2.3447,36.0205-14.1172,46.168s-10.9356,8.1182-4.1055,21.31,3.0762,22.47,3.0762,22.47c23.6035,17.3975,17.4912-18.4111,38.8008-27.5439s-5.5821-39.0664,10.1465-46.9082C585.1184,305.7545,584.7068,296.4763,577.8268,288.9973Z" transform="translate(-61.043 -45.0127)"/>
      <path class="cls-9" d="M527.5079,397.6133c-.0245-.1192-2.3155-12.001,4.9238-27.3535,7.375-15.6407,10.9053-32.7393,9.4433-45.7393-.7929-7.0391,3.7168-9.793,8.0791-12.456,4.294-2.6221,8.7344-5.3331,8.4893-12.27-.2207-6.2656,2.4307-20.9551,2.544-21.5771l.9384.1709c-.0283.1513-2.748,15.209-2.5293,21.373.2637,7.4932-4.4179,10.3516-8.9463,13.1153-4.2959,2.624-8.3525,5.1005-7.6279,11.5371,1.4805,13.1679-2.081,30.458-9.5283,46.2509-7.0967,15.05-4.876,26.6436-4.8525,26.7588Z" transform="translate(-61.043 -45.0127)"/>
      <path class="cls-9" d="M544.7266,332.0479c4.7852-4.4444,11.1133-5.085,9.7949,1.5078s-5.84,8.4775-3.5781,12.6211c2.26,4.1445,6.0274,8.288-.3769,13.375s-9.9844,5.65-11.8682,15.2587c-1.8838,9.6065-1.5068,16.167-9.7959,16.5772s-5.0859-11.6807-2.4492-17.1436a18.12,18.12,0,0,0,1.3183-14.4189c-2.6367-8.1856-7.7226-12.6065,3.0147-15.3877S541.5,335.0449,544.7266,332.0479Z" transform="translate(-61.043 -45.0127)"/>
      <path class="cls-11" d="M529.502,397.5293c-.0273-1.1758-.5967-28.8506,4.58-33.5088,5.2861-4.7578,6.3017-13.165,6.4365-17.7529.1768-5.9785,7.8994-9.5274,8.2285-9.6748l.3916.8681c-.0752.0342-7.5088,3.4532-7.6679,8.834-.17,5.79-1.48,13.69-6.752,18.4336-4.8535,4.3692-4.2715,32.4951-4.2647,32.7793Z" transform="translate(-61.043 -45.0127)"/>
      <path class="cls-12" d="M541.7576,386.2344c-.2274.0334-.4553.0612-.6819.1034a.4933.4933,0,0,1-.4141-.1034H518.8375l-.0021,0c-2.059.07-4.116.1823-6.1723.3069l.0732.2775a3.5435,3.5435,0,0,1,.2757,1.0464l8.156,30.9439h19.1885l8.5869-32.5752Z" transform="translate(-61.043 -45.0127)"/>
      <path class="cls-13" d="M541.7576,386.2344c-.2274.0334-.4553.0612-.6819.1034a.4933.4933,0,0,1-.4141-.1034H518.8375l-.0021,0c-2.059.07-4.116.1823-6.1723.3069l.0732.2775a3.5435,3.5435,0,0,1,.2757,1.0464l8.156,30.9439h8.8731c0-29.0264,18.9023-32.5752,18.9023-32.5752Z" transform="translate(-61.043 -45.0127)"/>
    </g>
    <polygon class="cls-14" points="119.077 177.143 78.742 177.143 78.742 125.56 79.695 125.56 79.695 176.189 119.077 176.189 119.077 177.143"/>
    <polygon class="cls-14" points="289.805 143.155 288.852 143.155 288.852 89.965 340.182 89.965 340.182 45.233 341.136 45.233 341.136 90.918 289.805 90.918 289.805 143.155"/>
    <polygon class="cls-14" points="455.628 202.404 402.221 202.404 402.221 201.451 454.674 201.451 454.674 170.439 455.628 170.439 455.628 202.404"/>
    <g>
      <g>
        <path class="cls-3" d="M507.504,182.0518H481.9688V156.5166H507.504ZM482.82,181.2h23.832V157.3677H482.82Z" transform="translate(-61.043 -45.0127)"/>
        <path class="cls-3" d="M571.0567,165.8794H512.6114v-6.2422h58.4453Zm-57.5957-.8511h56.7441v-4.54H513.461Z" transform="translate(-61.043 -45.0127)"/>
        <path class="cls-3" d="M571.0567,194.9072H481.9688v-6.2417h89.0879Zm-88.2363-.851h87.3847v-4.54H482.82Z" transform="translate(-61.043 -45.0127)"/>
        <path class="cls-3" d="M538.7129,206.8945H481.9688v-6.2422h56.7441Zm-55.8925-.851h55.041v-4.54H482.82Z" transform="translate(-61.043 -45.0127)"/>
        <path class="cls-3" d="M552.19,177.7866H512.6114v-6.2422H552.19Zm-38.7285-.8515h37.8769v-4.54H513.461Z" transform="translate(-61.043 -45.0127)"/>
      </g>
      <path class="cls-3" d="M581.2,220.4687H471.8262V142.9419H581.2Zm-108.5224-.851H580.3487V143.7935H472.6778Z" transform="translate(-61.043 -45.0127)"/>
    </g>
    <polygon class="cls-3" points="372.219 63.208 364.035 63.208 364.035 62.254 371.266 62.254 371.266 55.032 372.219 55.032 372.219 63.208"/>
    <polygon class="cls-3" points="317.19 63.208 309.006 63.208 309.006 55.032 309.961 55.032 309.961 62.254 317.19 62.254 317.19 63.208"/>
    <polygon class="cls-3" points="309.964 8.184 309.01 8.184 309.01 0 317.188 0 317.188 0.953 309.964 0.953 309.964 8.184"/>
    <polygon class="cls-3" points="372.219 8.18 371.266 8.18 371.266 0.957 364.035 0.957 364.035 0.003 372.219 0.003 372.219 8.18"/>
    <rect class="cls-3" x="371.2656" y="20.3999" width="0.9532" height="22.4121"/>
    <rect class="cls-3" x="309.0059" y="20.3999" width="0.9551" height="22.4121"/>
    <path class="cls-14" d="M140.2627,171.05a3.5027,3.5027,0,1,1,3.502-3.5029A3.5061,3.5061,0,0,1,140.2627,171.05Zm0-6.0518a2.5489,2.5489,0,1,0,2.5479,2.5489A2.5522,2.5522,0,0,0,140.2627,164.9985Z" transform="translate(-61.043 -45.0127)"/>
    <path class="cls-14" d="M401.7012,90.7227a3.5025,3.5025,0,1,1,3.5029-3.503A3.5069,3.5069,0,0,1,401.7012,90.7227Zm0-6.0518A2.5489,2.5489,0,1,0,404.25,87.22,2.5525,2.5525,0,0,0,401.7012,84.6709Z" transform="translate(-61.043 -45.0127)"/>
    <path class="cls-14" d="M516.1944,216.0937a3.5027,3.5027,0,1,1,3.5019-3.5029A3.5076,3.5076,0,0,1,516.1944,216.0937Zm0-6.0517a2.5488,2.5488,0,1,0,2.5488,2.5488A2.5527,2.5527,0,0,0,516.1944,210.042Z" transform="translate(-61.043 -45.0127)"/>
    <path class="cls-15" d="M163.4932,73.79h-24.042V49.7466h24.042Zm-23.0889-.9537h22.1348V50.7007H140.4043Z" transform="translate(-61.043 -45.0127)"/>
    <rect class="cls-15" x="89.9522" y="11.2871" width="0.9531" height="11.2065"/>
    <rect class="cls-15" x="84.8262" y="16.4136" width="11.2051" height="0.9536"/>
    <path class="cls-15" d="M529.877,102.792H495.51V78.2588H529.877Zm-33.4121-.9536h32.458V79.2124h-32.458Z" transform="translate(-61.043 -45.0127)"/>
    <polygon class="cls-15" points="451.65 48.105 434.642 34.091 435.248 33.355 451.65 46.87 468.055 33.355 468.66 34.091 451.65 48.105"/>
    <rect class="cls-15" x="522.7564" y="86.8511" width="0.9535" height="17.9237" transform="translate(16.6286 341.3651) rotate(-43.4865)"/>
    <rect class="cls-15" x="493.1931" y="95.336" width="17.9234" height="0.9538" transform="translate(26.2378 349.4959) rotate(-46.555)"/>
    <path class="cls-15" d="M223.4864,127.437l-.3574-.9346a5.0682,5.0682,0,0,1-.94-.2158l-.73.6846-2.1172-1.5068.4082-.9136a4.9979,4.9979,0,0,1-.5126-.8179l-1.001-.0317-.4307-2.563.9346-.3579a4.9734,4.9734,0,0,1,.2158-.9405l-.6846-.7294,1.5069-2.1177.9131.4082a5.061,5.061,0,0,1,.8183-.5122l.0313-1.0005,2.5625-.4312.3584.9341a5.0771,5.0771,0,0,1,.94.2158l.7305-.6845,2.1171,1.5068-.4082.9136a5.044,5.044,0,0,1,.5118.8183l1.0009.0313.4307,2.563-.9336.3579a5.158,5.158,0,0,1-.2168.9409l.6856.729-1.5079,2.1177-.913-.4082a5.0142,5.0142,0,0,1-.8174.5122l-.0322,1Zm-1.4649-1.9746.209.08a4.3448,4.3448,0,0,0,1.1856.2715l.2226.019.3067.8013,1.4082-.2368.0273-.8575.2051-.0918a4.3572,4.3572,0,0,0,1.0293-.6445l.1719-.1445.7832.35.8271-1.1631-.5869-.625.08-.2095a4.33,4.33,0,0,0,.2724-1.185l.02-.2232.8-.3061-.2364-1.4082-.8574-.0274-.0918-.2046a4.3587,4.3587,0,0,0-.6445-1.03l-.1445-.1714.35-.7822-1.1621-.8282-.626.5865-.209-.08a4.3587,4.3587,0,0,0-1.1846-.2715l-.2226-.0195-.3076-.8008-1.4073.2368-.0273.8574-.2051.0918a4.3566,4.3566,0,0,0-1.0312.645l-.17.1436-.7832-.3491-.8281,1.1631.5869.625-.081.2094a4.3632,4.3632,0,0,0-.2715,1.1851l-.0195.2226-.8008.3067.2383,1.4077.8574.0278.0908.2041a4.354,4.354,0,0,0,.6455,1.0308l.1436.1714-.3487.7827,1.1621.8276Zm1.7676-1.1895a2.8285,2.8285,0,1,1,.4756-.04A2.8905,2.8905,0,0,1,223.7891,124.2729Zm.01-4.936a2.11,2.11,0,0,0-1.2266,3.8291h0a2.11,2.11,0,1,0,1.2266-3.8291Z" transform="translate(-61.043 -45.0127)"/>
    <path class="cls-15" d="M203.6329,130.4263l-.7989-2.086a11.3383,11.3383,0,0,1-2.5058-.5737l-1.627,1.5273-4.4209-3.1455.91-2.038a11.3678,11.3678,0,0,1-1.3633-2.18l-2.2324-.07-.9014-5.35,2.0859-.7979a11.3207,11.3207,0,0,1,.5743-2.5063l-1.5274-1.6275,3.1446-4.42,2.039.91a11.3346,11.3346,0,0,1,2.18-1.3637l.07-2.2324,5.35-.9014.7989,2.0859a11.3834,11.3834,0,0,1,2.5058.5747l1.627-1.5278,4.42,3.1455-.91,2.0376a11.3454,11.3454,0,0,1,1.3643,2.18l2.2314.07.9024,5.35-2.086.7978a11.3241,11.3241,0,0,1-.5752,2.5064l1.5284,1.6269-3.1465,4.4205-2.0371-.91a11.33,11.33,0,0,1-2.18,1.3638l-.07,2.2324Zm-3.5254-3.7613.2793.1065a10.3889,10.3889,0,0,0,2.8281.6484l.2978.0259.7315,1.9106,3.81-.642.0644-2.0445.2725-.122a10.3656,10.3656,0,0,0,2.46-1.5391l.2285-.1919,1.8672.833,2.2393-3.1475-1.3984-1.4907.1064-.2788a10.377,10.377,0,0,0,.6484-2.8281l.0254-.2979,1.9112-.7314-.6426-3.81-2.0449-.0644-.1211-.273a10.4131,10.4131,0,0,0-1.5391-2.459l-.1924-.229.833-1.8662-3.1465-2.24-1.4912,1.3984-.2783-.1069a10.4253,10.4253,0,0,0-2.8281-.648l-.2988-.0254-.7305-1.9106-3.81.6416-.0654,2.0449-.2725.1221a10.4025,10.4025,0,0,0-2.46,1.5391l-.2285.1919-1.8663-.8331-2.2392,3.147,1.3984,1.4912-.1074.2788a10.4069,10.4069,0,0,0-.6484,2.8277l-.0254.2978-1.91.7315.6416,3.81,2.0449.0645.1211.2729a10.388,10.388,0,0,0,1.54,2.46l.1914.229-.833,1.8657,3.1474,2.24Zm4.0049-3.498a6.1684,6.1684,0,1,1,5.0361-2.5908A6.1417,6.1417,0,0,1,204.1124,123.167Zm.0156-11.3828a5.2129,5.2129,0,1,0,3.0176.9643A5.2135,5.2135,0,0,0,204.128,111.7842Z" transform="translate(-61.043 -45.0127)"/>
    <path class="cls-14" d="M78.836,135.4434A17.814,17.814,0,0,1,61.043,117.65h.9531a16.84,16.84,0,1,0,16.84-16.8389v-.9536a17.793,17.793,0,1,1,0,35.586Zm0-2.4737a15.3193,15.3193,0,1,1,15.3193-15.32h-.9541A14.3652,14.3652,0,1,0,78.836,132.0156Z" transform="translate(-61.043 -45.0127)"/>
    <polygon class="cls-14" points="15.613 78.532 9.195 72.114 9.87 71.44 15.613 77.184 25.717 67.081 26.391 67.754 15.613 78.532"/>
    <polygon class="cls-16" points="397.118 290.799 261.955 290.799 126.795 290.799 97.213 401.366 262.842 401.366 426.699 401.366 397.118 290.799"/>
    <path class="cls-9" d="M194.4942,355.21h16.6084a1.0008,1.0008,0,0,1,1.0879,1.122l-1.6084,7.2246a1.077,1.077,0,0,1-1.0879.7676H192.6016a.9947.9947,0,0,1-1.081-1.1513l1.8925-7.2237A1.0832,1.0832,0,0,1,194.4942,355.21Z" transform="translate(-61.043 -45.0127)"/>
    <polygon class="cls-9" points="157.676 310.197 170.231 310.197 168.561 319.311 155.766 319.311 157.676 310.197"/>
    <polygon class="cls-9" points="176.51 310.197 189.065 310.197 187.752 319.311 174.955 319.324 176.51 310.197"/>
    <polygon class="cls-9" points="195.343 310.197 207.899 310.197 206.943 319.311 194.149 319.311 195.343 310.197"/>
    <polygon class="cls-9" points="214.177 310.197 226.732 310.197 226.135 319.311 213.341 319.311 214.177 310.197"/>
    <polygon class="cls-9" points="233.01 310.197 245.566 310.197 245.328 319.311 232.532 319.324 233.01 310.197"/>
    <polygon class="cls-9" points="383.723 310.197 364.889 310.197 366.918 319.311 386.109 319.311 383.723 310.197"/>
    <polygon class="cls-9" points="358.61 310.197 346.055 310.197 347.727 319.311 360.521 319.311 358.61 310.197"/>
    <polygon class="cls-9" points="339.777 310.197 327.221 310.197 328.533 319.311 341.33 319.324 339.777 310.197"/>
    <polygon class="cls-9" points="320.943 310.197 308.387 310.197 309.342 319.311 322.137 319.311 320.943 310.197"/>
    <polygon class="cls-9" points="302.109 310.197 289.553 310.197 290.15 319.311 302.944 319.311 302.109 310.197"/>
    <polygon class="cls-9" points="283.275 310.197 270.719 310.197 270.959 319.311 283.754 319.324 283.275 310.197"/>
    <polygon class="cls-9" points="251.844 310.197 264.4 310.197 264.607 319.311 251.844 319.311 251.844 310.197"/>
    <polygon class="cls-9" points="127.927 326.102 154.164 326.102 152.669 335.505 125.935 335.505 127.927 326.102"/>
    <polygon class="cls-9" points="387.818 326.102 355.387 326.102 357.234 335.505 390.281 335.505 387.818 326.102"/>
    <polygon class="cls-9" points="348.9 326.102 335.929 326.102 337.406 335.505 350.625 335.505 348.9 326.102"/>
    <polygon class="cls-9" points="329.442 326.102 316.47 326.102 317.578 335.505 330.797 335.505 329.442 326.102"/>
    <polygon class="cls-9" points="309.984 326.102 297.012 326.102 297.75 335.505 310.969 335.505 309.984 326.102"/>
    <polygon class="cls-9" points="290.525 326.102 277.553 326.102 277.922 335.505 291.141 335.505 290.525 326.102"/>
    <polygon class="cls-9" points="124.008 342.862 150.83 342.862 148.873 352.201 121.561 352.201 124.008 342.862"/>
    <polygon class="cls-9" points="157.536 342.862 170.947 342.862 169.357 352.201 155.701 352.201 157.536 342.862"/>
    <polygon class="cls-9" points="177.653 342.862 191.065 342.862 278.232 342.862 278.606 352.201 176.186 352.201 177.653 342.862"/>
    <polygon class="cls-9" points="284.945 342.862 298.356 342.862 299.09 352.201 285.434 352.201 284.945 342.862"/>
    <polygon class="cls-9" points="305.063 342.862 318.474 342.862 319.574 352.201 305.918 352.201 305.063 342.862"/>
    <polygon class="cls-9" points="325.18 342.862 338.59 342.862 340.059 352.201 326.402 352.201 325.18 342.862"/>
    <polygon class="cls-9" points="345.297 342.862 358.708 342.862 360.543 352.201 346.887 352.201 345.297 342.862"/>
    <polygon class="cls-9" points="365.414 342.862 392.236 342.862 394.683 352.201 367.371 352.201 365.414 342.862"/>
    <polygon class="cls-9" points="271.094 326.102 258.227 326.102 258.227 335.505 271.341 335.505 271.094 326.102"/>
    <polygon class="cls-9" points="251.636 326.102 238.663 326.102 238.293 335.505 251.512 335.505 251.636 326.102"/>
    <polygon class="cls-9" points="232.177 326.102 219.205 326.102 218.466 335.505 231.685 335.505 232.177 326.102"/>
    <polygon class="cls-9" points="212.719 326.102 199.746 326.102 198.637 335.505 211.857 335.505 212.719 326.102"/>
    <polygon class="cls-9" points="193.26 326.102 180.287 326.102 178.809 335.505 192.027 335.505 193.26 326.102"/>
    <polygon class="cls-9" points="173.801 326.102 160.828 326.102 158.982 335.505 172.2 335.505 173.801 326.102"/>
    <polygon class="cls-9" points="134.065 304.47 136.195 296.332 142.292 296.332 140.303 304.47 134.065 304.47"/>
    <polygon class="cls-9" points="148.389 296.332 160.58 296.332 158.875 304.47 146.47 304.47 148.389 296.332"/>
    <polygon class="cls-9" points="166.678 296.332 178.869 296.332 177.484 304.47 165.078 304.47 166.678 296.332"/>
    <polygon class="cls-9" points="184.967 296.332 197.158 296.332 196.093 304.47 183.688 304.47 184.967 296.332"/>
    <polygon class="cls-9" points="203.255 296.332 215.447 296.332 214.701 304.47 202.296 304.47 203.255 296.332"/>
    <polygon class="cls-9" points="221.544 296.332 233.736 296.332 233.311 304.47 220.904 304.47 221.544 296.332"/>
    <polygon class="cls-9" points="239.833 296.332 252.025 296.332 251.919 304.47 239.514 304.47 239.833 296.332"/>
    <polygon class="cls-9" points="258.121 296.332 270.315 296.332 270.527 304.47 258.121 304.47 258.121 296.332"/>
    <polygon class="cls-9" points="276.41 296.332 288.604 296.332 289.137 304.47 276.731 304.47 276.41 296.332"/>
    <polygon class="cls-9" points="294.699 296.332 306.893 296.332 307.745 304.47 295.34 304.47 294.699 296.332"/>
    <polygon class="cls-9" points="312.988 296.332 325.182 296.332 326.354 304.47 313.947 304.47 312.988 296.332"/>
    <polygon class="cls-9" points="331.277 296.332 343.471 296.332 344.963 304.47 332.557 304.47 331.277 296.332"/>
    <polygon class="cls-9" points="349.566 296.332 361.759 296.332 363.571 304.47 351.166 304.47 349.566 296.332"/>
    <polygon class="cls-9" points="367.856 296.332 380.048 296.332 382.18 304.47 369.774 304.47 367.856 296.332"/>
    <path class="cls-17" d="M479.4124,454.9873h-312.27a8.608,8.608,0,0,1-8.6074-8.6084H488.0207A8.6087,8.6087,0,0,1,479.4124,454.9873Z" transform="translate(-61.043 -45.0127)"/>
    <path class="cls-18" d="M357.7305,410.65a4.0314,4.0314,0,0,0-3.9785-3.374H285.1036a4.0294,4.0294,0,0,0-3.9766,3.374l-4.2891,25.9521a4.0305,4.0305,0,0,0,3.9766,4.6885h77.2266a4.0319,4.0319,0,0,0,3.9785-4.6885Z" transform="translate(-61.043 -45.0127)"/>
    <g>
      <rect class="cls-19" x="132.2625" y="131.6953" width="255.3887" height="146.5824"/>
      <rect class="cls-20" x="231.7028" y="249.7556" width="53.2257" height="10.3091"/>
      <g>
        <text class="cls-21" transform="translate(247.3868 256.364) scale(1.1089 1)">EDI<tspan class="cls-22" x="5.0501" y="0">T</tspan><tspan class="cls-23" x="6.5758" y="0">AR PERFIL</tspan></text>
        <g>
          <g>
            <rect class="cls-9" x="262.2351" y="186.8831" width="105.3172" height="10.3091"/>
            <text class="cls-24" transform="translate(261.9559 185.2741) scale(1.1089 1)">Nome <tspan class="cls-25" x="8.7611" y="0">F</tspan><tspan x="10.1675" y="0">a</tspan><tspan class="cls-26" x="11.7011" y="0">n</tspan><tspan x="13.4536" y="0">tasia</tspan></text>
          </g>
          <g>
            <rect class="cls-9" x="149.3911" y="206.441" width="105.3171" height="10.3092"/>
            <text class="cls-24" transform="translate(149.1097 204.988) scale(1.1089 1)">Email</text>
          </g>
          <g>
            <rect class="cls-9" x="262.2351" y="206.441" width="105.3172" height="10.3092"/>
            <text class="cls-27" transform="translate(261.9559 204.9802) scale(1.1089 1)">C<tspan class="cls-28" x="1.8357" y="0">idade</tspan></text>
          </g>
          <g>
            <rect class="cls-9" x="149.3911" y="228.0274" width="105.3171" height="10.3091"/>
            <text class="cls-24" transform="translate(149.1097 226.8835) scale(1.1089 1)">Ende<tspan class="cls-29" x="6.7189" y="0">r</tspan><tspan x="7.7272" y="0">e</tspan><tspan class="cls-30" x="9.3212" y="0">ç</tspan><tspan x="10.7272" y="0">o</tspan></text>
          </g>
          <g>
            <rect class="cls-9" x="262.2351" y="228.0274" width="105.3172" height="10.3091"/>
            <text class="cls-24" transform="translate(261.9559 226.8542) scale(1.1089 1)"><tspan class="cls-31">T</tspan><tspan class="cls-28" x="1.3553" y="0">ele</tspan><tspan class="cls-32" x="5.2936" y="0">f</tspan><tspan x="6.1813" y="0">one</tspan></text>
          </g>
          <g>
            <rect class="cls-9" x="149.3603" y="186.8698" width="105.3479" height="10.3091"/>
            <text class="cls-24" transform="translate(149.0799 185.07) scale(1.1089 1)">Nome da Emp<tspan class="cls-29" x="18.7921" y="0">r</tspan><tspan x="19.8004" y="0">esa</tspan></text>
          </g>
        </g>
      </g>
      <g>
        <ellipse class="cls-20" cx="259.8348" cy="155.7618" rx="15.9893" ry="14.4188"/>
        <g>
          <path class="cls-9" d="M325.3672,196.93A4.3907,4.3907,0,1,1,321,192.9919,4.17,4.17,0,0,1,325.3672,196.93Z" transform="translate(-61.043 -45.0127)"/>
          <path class="cls-9" d="M327.8628,206.4146c0,2.9741-13.7259,2.9741-13.7259,0S317.21,201.03,321,201.03,327.8628,203.44,327.8628,206.4146Z" transform="translate(-61.043 -45.0127)"/>
        </g>
      </g>
      <polygon class="cls-33" points="133.644 131.697 133.644 278.279 134.287 278.279 387.651 131.697 133.644 131.697"/>
    </g>
    <path class="cls-34" d="M336.3887,200.0635s3.0791,5.22,4.3789,6.0722c1.7657,1.1573.6592,2.3277-.1787,2.3287s-5.1181.3071-6.0615-.7632-1.41-4.2779-2.2881-5.1167-1.7822-4.1739.4268-4.9839C334.6211,196.8833,336.3887,200.0635,336.3887,200.0635Z" transform="translate(-61.043 -45.0127)"/>
    <path class="cls-35" d="M335.0557,197.7676s3.5264,6.1128,4.1338,7.0161-1.1445.9014-2.2305.4726-3.8164-4.8129-4.209-5.6118a2.9473,2.9473,0,0,1-.0839-2.0439Z" transform="translate(-61.043 -45.0127)"/>
    <polygon class="cls-34" points="270.44 156.044 271.254 162.31 271.686 162.33 271.551 157.821 270.44 156.044"/>
    <path class="cls-34" d="M305.8536,200.0635s3.08,5.22,4.3789,6.0722c1.7656,1.1573.66,2.3277-.1778,2.3287s-5.1191.3071-6.0615-.7632-1.4111-4.2779-2.2881-5.1167-1.8125-4.26.4268-4.9839C304.0967,196.9648,305.8536,200.0635,305.8536,200.0635Z" transform="translate(-61.043 -45.0127)"/>
    <path class="cls-35" d="M304.7051,197.78s3.3418,6.1,3.95,7.0034-1.1455.9014-2.23.4726-3.8174-4.8129-4.209-5.6118a2.9469,2.9469,0,0,1-.084-2.0439Z" transform="translate(-61.043 -45.0127)"/>
    <polygon class="cls-34" points="239.904 156.044 240.719 162.31 241.15 162.33 241.017 157.821 239.904 156.044"/>
    <path class="cls-35" d="M292.1924,152.5591l27.8643,12.6963a5.3586,5.3586,0,0,1,3.459,4.4648c1.0879,10.7793,9.15,27.88,9.15,27.88,2.5879,1.2646,2.39.167,2.39.167-1.63-5.2339-3.6152-26.8032-4.3232-35.4756-.15-1.8369-.2432-3.0947-.2637-3.4966-.0137-.2739-.3125-.6318-.8281-1.05-3.8242-3.1006-19.5567-9.5195-19.5567-9.5195C298.2715,147.9258,292.1924,152.5591,292.1924,152.5591Z" transform="translate(-61.043 -45.0127)"/>
    <path class="cls-35" d="M286.9405,158.0107c.8623,7.5318,11.6142,6.6695,11.6142,6.6695h13.03a81.36,81.36,0,0,0-4.7451,14.04c-1.4024,6.8174-4.708,18.88-4.708,18.88s.2158.4092,2.5732.18c0,0,10.2285-20.3858,14.1446-25.5108a34.61,34.61,0,0,0,3.6718-10.66c.1407-1.2017.0537-2.1294-.3945-2.5059a32.7081,32.7081,0,0,0-2.877-1.9663c-4.082-2.5737-11.17-6.5361-15.1191-7.4233-5.2891-1.189-13.6543-3.417-13.6543-3.417A14.4005,14.4005,0,0,0,286.9405,158.0107Z" transform="translate(-61.043 -45.0127)"/>
    <path class="cls-36" d="M295.8086,99.998a12.1416,12.1416,0,0,1-1-7.6459c.9512-3.9429,4.6094-7.8716,9.9668-6.0674s9.6875,5.9658,6.4766,10.7778,2.9063,6.9849,1.3467,9.2749-.9678,4.68-.3076,5.2134,2.789,2.4316,2.5547,4.68-10.3936-6.5528-10.3936-6.5528S298.919,98.5605,295.8086,99.998Z" transform="translate(-61.043 -45.0127)"/>
    <path class="cls-37" d="M312.1368,147.3228s-.8067,3.92-21.6172-1.0293C290.52,146.2935,297.4952,143.9761,312.1368,147.3228Z" transform="translate(-61.043 -45.0127)"/>
    <path class="cls-38" d="M290.2833,147.3931q-.485.9236-.9678,1.8476,11.4111.3325,22.8213.6651c-1.2022-4.0293-.8125-9.4859-.6016-13.628.2578-5.0586,3.0508-8.5761,2.7539-13.6928,1.5049.2436,1.7647.29,3.2725.5205-2.3057-6.5679-3.0948-9.8213-10.2549-12.35a13.3822,13.3822,0,0,0-6.3867-.7779c-8.293.6831-10.795.7813-14.8672,8.2964,6.376,1.0152,5.3262,3.3047,7.26,9.6475.9434,3.0932,1.9278,6.5449,1.4219,9.8076C294.2364,140.9409,290.2833,144.4639,290.2833,147.3931Z" transform="translate(-61.043 -45.0127)"/>
    <path class="cls-39" d="M303.5176,112.3481c-3.3945-.6416-2.6718-2.5288-2.6718-2.5288s.1572-1.0654.2187-2.4121c.0156-.3447.0244-.7085.0225-1.0771a14.4523,14.4523,0,0,0-.0928-1.669c-.2783-2.2778,6.16-.9189,6.16-.9189s-.371,4.6094.5176,5.9907C308.5586,111.1147,306.9122,112.9893,303.5176,112.3481Z" transform="translate(-61.043 -45.0127)"/>
    <path class="cls-39" d="M297.043,109.8071s6.8457,7.9048,9.377,9.7373c0,0,2.9072-2.6279,1.1152-9.5659C307.5352,109.9785,304.23,108.3228,297.043,109.8071Z" transform="translate(-61.043 -45.0127)"/>
    <path class="cls-39" d="M297.23,90.7812s-3.5556,6.8506-.03,13.3394c3.5273,6.4888,10.455-2.8257,10.9023-3.9185.4492-1.0932,2.8242-7.2744-1.9-9.1528S298.2364,88.9219,297.23,90.7812Z" transform="translate(-61.043 -45.0127)"/>
    <path class="cls-36" d="M298.4112,93.2119s-2.4473,3.2149-2.7373,5.59a12.7343,12.7343,0,0,1,1.78-8.8052c2.7549-4.3145,9.76-.2051,10.6983,1.5185s3.6875,3.2427-.9316,10.6509C307.2208,102.166,298.9141,96.3945,298.4112,93.2119Z" transform="translate(-61.043 -45.0127)"/>
    <path class="cls-40" d="M304.0928,104.8042a6.6425,6.6425,0,0,1-3.0283,2.603c.0156-.3447.0244-.7085.0225-1.0771A5.7623,5.7623,0,0,0,304.0928,104.8042Z" transform="translate(-61.043 -45.0127)"/>
    <path class="cls-39" d="M268.16,141.23s-1.6894.7515-2.4922.4106a7.4788,7.4788,0,0,0-2.4306-.4077c-.5225-.001-2.1592-.5849-2.1319.0542.0293.64,2.6572,1.0855,3.1953,1.2852s-1.6093,1.3813-1.8086,1.9062,2.2246,3.9707,3.5909,2.9893,2.1074-2.9419,2.3857-3.0664a9.9572,9.9572,0,0,0,1.0264-.6748Z" transform="translate(-61.043 -45.0127)"/>
    <path class="cls-39" d="M262.751,144.1729s-3.9638,3.2866-4.0254,3.73.1465.6519.5313.36,3.9306-3.063,3.9306-3.063-3.9716,4.69-4.1054,5.0386c-.0781.2041.3027.6279.5244.4907s4.4453-4.5527,4.4453-4.5527-3.7,4.3862-3.72,4.7148a.43.43,0,0,0,.7265.291c.2989-.3061,3.9805-4.1758,3.9805-4.1758s-2.4746,3.3672-2.3223,3.6641c.0938.1812.4063.562,1.0157-.3281s2.2832-2.8306,2.2832-2.8306Z" transform="translate(-61.043 -45.0127)"/>
    <path class="cls-41" d="M310.2247,164.6807h-11.67s-10.7519.8618-11.6132-6.669a14.3976,14.3976,0,0,1,3.5351-11.7143s5.68,1.5122,10.6387,2.71a38.4441,38.4441,0,0,1,8.9687-.7817s21.02,6.9458,20.3868,10.6025C330.4708,158.8281,321.6778,154.127,310.2247,164.6807Z" transform="translate(-61.043 -45.0127)"/>
    <polygon class="cls-42" points="241.586 106.626 263.836 106.298 252.602 112.003 241.586 106.626"/>
    <path class="cls-38" d="M309.5411,148.7959a19.0315,19.0315,0,0,1-11.1416.1855l-.2871-2.291,12.6337.7022Z" transform="translate(-61.043 -45.0127)"/>
    <polygon class="cls-43" points="252.602 112.003 241.586 107.735 241.586 106.626 253.473 110.914 252.602 112.003"/>
    <g>
      <path class="cls-44" d="M309.4629,149.856a1.1016,1.1016,0,0,0,1.5313,1.0913l1.291-.5513a.9194.9194,0,0,0,.5469-.9927c-.5371-3.3657-1.6914-16.4663-.0039-18.7148a8.1453,8.1453,0,0,0,1.23-2.1953c1.1143,2.8711,2.5,6.5693,3.0508,8.559l10.5117,13.9849,3.5254.8941a119.2644,119.2644,0,0,0-7.9316-16.2129c-.6885-1.8472-2.6611-7.44-4.4082-12.42-1.1035-3.1446-2.1162-6.0445-2.66-7.6031a3.5615,3.5615,0,0,0-1.539-1.8852c-1.628-.9737-4.3409-2.5074-6.8018-3.7017l-.0293-.0142c-.0791-.038-.1572-.0761-.2353-.1137l-.0049-.0015-.001-.0005c4.6777,7.0782,2.8535,27.0674,1.9307,39.85Z" transform="translate(-61.043 -45.0127)"/>
      <path class="cls-44" d="M292.0977,110.582c-1.499.2315-5.2148,3.8389-7.1875,7.48-2.2519,4.1558-4.5449,8.8867-6.2627,10.4429-3.1592,2.8628-12.0029,12.98-12.4228,12.7348a27.2913,27.2913,0,0,0,2.7539,3.1661c.164.0727,14.5351-12.3794,15.915-14.2769,1.31-1.7988,4.8086-9.3477,5.8555-9.1816l.0029.0053.002.003a56.2186,56.2186,0,0,1,2.5585,6.9663c.02.0674.0391.1338.06.2011a22.3913,22.3913,0,0,1,.3047,9.3018c-.34,2.5913-2.2744,6.8276-3.44,8.8892a1.3988,1.3988,0,0,0,.0469,1.0786v.0005a.7719.7719,0,0,0,.3828.4467l4.2187,1.5635.9922.3672a2.1615,2.1615,0,0,0,2.8926-1.7461c.9375-7.2163,2.125-14.5893,3.0713-17.3662a26.309,26.309,0,0,0-1.6221-21.3442A78.5077,78.5077,0,0,0,292.0977,110.582Z" transform="translate(-61.043 -45.0127)"/>
    </g>
    <polygon class="cls-45" points="252.602 112.003 259.221 93.933 280.557 94.281 274.248 110.933 252.602 112.003"/>
    <path class="cls-46" d="M327.09,146.939c-.65,1.3022-.4541,2.7192.4394,3.1665s2.1465-.2461,2.7969-1.5474.4551-2.7192-.4394-3.1665C328.9942,144.9448,327.7413,145.6377,327.09,146.939Z" transform="translate(-61.043 -45.0127)"/>
    <path class="cls-36" d="M304.5987,97.603s1.3662,2.126.1045,3.9619c-1.2637,1.835.3183,3.6377.5918,5.5777s-5.2705,7.103.8965,9.7,8.1289-1.6958,6.5546-4.0586c-1.5722-2.3628-2.6894-4.28-2.8222-7.6485S308.6827,96.5161,304.5987,97.603Z" transform="translate(-61.043 -45.0127)"/>
  </g>
</svg>
