<?xml version="1.0" encoding="utf-8"?>
<!-- Generator: Adobe Illustrator 24.1.0, SVG Export Plug-In . SVG Version: 6.00 Build 0)  -->
<svg version="1.1" id="Camada_1" xmlns="http://www.w3.org/2000/svg" xmlns:xlink="http://www.w3.org/1999/xlink" x="0px" y="0px"
	 viewBox="0 0 2536 985" style="enable-background:new 0 0 2536 985;" xml:space="preserve">
<style type="text/css">
	.st0{fill:#14C5D7;}
	.st1{fill:#2C94EA;}
	.st2{fill:#01EEC8;}
	.st3{fill:#25A1E4;}
	.st4{fill:#279DE6;}
	.st5{fill:#1AB8DC;}
	.st6{fill:#05E4CB;}
	.st7{fill:#1DB3DD;}
	.st8{fill:#07E0CC;}
	.st9{fill:#1FAFDF;}
	.st10{fill:#21AAE1;}
	.st11{fill:#17C0D9;}
	.st12{fill:#2A99E7;}
	.st13{fill:#10CDD4;}
	.st14{fill:#24A5E3;}
	.st15{fill:#24A6E3;}
	.st16{fill:#03E8CA;}
	.st17{fill:#15C4D7;}
	.st18{fill:#1ABADB;}
	.st19{fill:#0DD2D2;}
	.st20{fill:#27A1E5;}
	.st21{fill:#12C9D5;}
	.st22{fill:#18BCDA;}
	.st23{fill:#09DBCE;}
	.st24{fill:#07E0CD;}
	.st25{fill:#1BB7DC;}
	.st26{fill:#19BBDA;}
	.st27{fill:#0BD7D0;}
	.st28{fill:#02EDC8;}
	.st29{fill:#11CCD4;}
	.st30{fill:#1EB2DE;}
	.st31{fill:#0CD7D0;}
	.st32{fill:#0DD3D2;}
	.st33{fill:#0ADACE;}
	.st34{fill:#07DFCD;}
	.st35{fill:#07E4CB;}
	.st36{fill:#0FCFD3;}
	.st37{fill:#04E7CA;}
	.st38{fill:#03EAC9;}
	.st39{fill:#23B4DE;}
	.st40{fill:#12C8D5;}
	.st41{fill:#1DC3DA;}
	.st42{fill:#1DC7D8;}
	.st43{fill:#23AEE0;}
	.st44{fill:#16C0D9;}
	.st45{fill:#0CD6D0;}
	.st46{fill:#06E1CC;}
	.st47{fill:#2F9FE7;}
	.st48{fill:#0CD5D0;}
	.st49{fill:#16D0D4;}
	.st50{fill:#08E0CD;}
	.st51{fill:#24BDDC;}
	.st52{fill:#32C7DD;}
	.st53{fill:#1ECAD8;}
	.st54{fill:#12CAD5;}
	.st55{fill:#14C4D7;}
	.st56{fill:#13C8D6;}
	.st57{fill:#08DECD;}
	.st58{fill:#10CED3;}
	.st59{opacity:0.84;}
	.st60{fill:url(#SVGID_1_);}
	.st61{fill:url(#SVGID_2_);}
	.st62{fill:url(#SVGID_3_);}
	.st63{fill:url(#SVGID_4_);}
	.st64{fill:url(#SVGID_5_);}
	.st65{fill:url(#SVGID_6_);}
	.st66{fill:url(#SVGID_7_);}
	.st67{fill:url(#SVGID_8_);}
	.st68{fill:url(#SVGID_9_);}
	.st69{fill:url(#SVGID_10_);}
	.st70{fill:url(#SVGID_11_);}
	.st71{fill:url(#SVGID_12_);}
	.st72{fill:url(#SVGID_13_);}
	.st73{fill:url(#SVGID_14_);}
	.st74{fill:url(#SVGID_15_);}
	.st75{fill:url(#SVGID_16_);}
	.st76{fill:url(#SVGID_17_);}
	.st77{fill:url(#SVGID_18_);}
	.st78{fill:url(#SVGID_19_);}
	.st79{fill:url(#SVGID_20_);}
	.st80{fill:url(#SVGID_21_);}
	.st81{fill:url(#SVGID_22_);}
	.st82{fill:url(#SVGID_23_);}
	.st83{fill:url(#SVGID_24_);}
	.st84{fill:url(#SVGID_25_);}
	.st85{fill:url(#SVGID_26_);}
	.st86{fill:url(#SVGID_27_);}
</style>
<g>
	<path class="st0" d="M31.2,981.8c-14.2-7.3-4.8-18-6.1-27.2c29.8-42.6,75.4-75.2,114-112.1c14.1-13.5,30-25.6,41-41.1
		c50.2-54.8,113.7-100.7,164.2-155.3c7.7-8.4,19.3-13.5,28.5-20.6c8.4-6.6,19-12.9,5.2-22.7c-6.5-6.4-9.1-13.7-2.5-20.3
		c28.1-27.6,39.1-62.4,62.6-91.9c6.4-8,11.9-16.2,26.5-13.8c12.8,14,10.7,27.6-3.4,39.7c-19.4,16.7-21.4,40.5-39.3,57.8
		c-5.1,5-4.5,12.4,4.1,16.9c6.2,4.4,13.3,8.7,6,16.2c-35.7,13-56.8,36.2-70.8,64.2c-5.1,10.3-9.5,20.9-14.2,31.3
		C273,770.4,201,839.3,125.2,905.6C95,931.9,70.3,962.5,31.2,981.8z"/>
	<path class="st1" d="M903.8,187.6c23.1,29.4,28.4,62.7,32.5,96.2c-2,29.9-0.3,60.9-36.7,81c-29.6,15.7-60.1,29.8-95.8,34.9
		c-7.4,0.9-14.5,0.5-20.7-3.4c-4.7-7.5-1.7-14.7,2.2-21.5c32.4-56.7,67.2-112.6,96.6-170.4C886.1,196.5,892.1,189.5,903.8,187.6z"/>
	<path class="st2" d="M114.7,188.3C40.1,170.1,25.6,131,77.2,85.4c32.6-28.9,71.7-49.4,121.4-54.5c12.3,8.7,14,9.3,8.1,19.4
		c-27,46.2-49.2,94.3-82,138.3C121.2,190.6,117.9,190.6,114.7,188.3z"/>
	<path class="st3" d="M656.7,385.4c24.1-14.8,14.7-38.3,23.6-57c5.3,0.2,9.5,1.3,12.9-4.8c40.6-72.2,80.1-144.9,117.9-218.1
		c1.8-3.5,4.5-6.4,8.6-8.4c11.3,6.2,21.3,13.3,28,23c7.6,9.6,5.8,19,1.2,29.3c-18.5,41.2-39.6,81.2-65.9,119.8
		c-23.8,35-36.5,74.4-62.5,108.8c-7.1,9.5-10.9,20.8-24,26.9c-22.6,2.1-47.3,12.2-63.6-10.3C635.4,382.5,649.3,389.2,656.7,385.4z"
		/>
	<path class="st4" d="M699.5,400.8c28.8-50.1,57.3-100.2,86.4-150.2c24.6-42.3,51-84.1,61.8-130.5c14.6,9.8,26.7,21.1,34.3,35.1
		c2.3,19.7-12.2,35.8-21.9,51.7c-36,59.1-67.1,120-103.3,179c-4.6,7.5-8.8,15.2-19.1,19.2C724.1,408.5,710.9,409.7,699.5,400.8z"/>
	<path class="st5" d="M556.9,272.8c-17.6-0.4-33.4-6.1-49.3-11.2c46.3-43,62.8-98.2,94.1-147.4c17.6-27.6,37.1-55.5,41.7-87.5
		c19.6,1.1,38.4,4.4,56,11.4c9.4,10.4,1.8,19.8-4.1,28.5c-40.7,60.6-72.2,124.7-111,186.1C578.4,262.1,576.6,275.2,556.9,272.8z"/>
	<path class="st6" d="M25.1,686.1c0-18.6,0-37.2,0-55.8c45.2-67,90.7-133.8,137-200.3c6.8-9.8,12.8-20,24.7-26.8
		c8.4-3.3,17.4-3.9,26.6-3.2c5.5,0.6,10.6,2,15.1,4.7c8.2,9.9,0.7,17.9-5.4,25.7c-53,68.3-96.7,140.7-145.6,210.7
		C65,658.8,55.4,680.6,25.1,686.1z"/>
	<path class="st7" d="M556.9,272.8c26.1-23.3,36.6-53.2,52.9-80.6c30.4-51.2,59.8-102.7,89.7-154c13.4,0.8,24.2,6.5,35.1,11.8
		c4.5,4,4.2,8.7,1.6,13c-43.1,71.3-79.6,145-123.3,216.1c-2.6,4.2-6.5,7.7-11.9,9.9C585,285.8,570.3,280.4,556.9,272.8z"/>
	<path class="st8" d="M25.1,686.1c45.5-36.5,66.9-84.6,97.2-128.3c35.1-50.5,70.4-100.9,105.7-151.3c6.3-4.9,13.3-5,20.8-2.1
		c10.3,8.4,10.7,19.1,4.6,28c-20.7,30.3-39.9,61.4-68,88.1c-12.6,2.3-22.9,7.4-31.3,17.2c5-3.5,8.9-4.9,13.2-1.6
		c7.6,10.2,3.4,19.5-3.9,28.4c-35.2,43.3-61.8,90.3-92.6,135.4C61.5,712,56.1,726.6,39,734.4c-5.3,0.7-10.1-0.3-13.9-3.4
		C25.1,716,25.1,701,25.1,686.1z"/>
	<path class="st9" d="M600.9,289c17.5-33.2,34.4-66.6,52.8-99.4C680,142.8,707.6,96.5,734.6,50c13,0.9,18.8,10.2,28.1,15.3
		c6.1,30.9-18.6,54.4-32.3,80c-23.1,43.2-47.8,85.9-69.7,129.6c-5.6,11.1-9,26.1-31.2,25C618.5,298.6,609,295,600.9,289z"/>
	<path class="st10" d="M629.4,299.9c31.3-17.6,33.2-48.5,45.8-72.9c28.2-54.2,64.2-105.8,87.4-161.7c15.7,0.3,25.2,8.8,35.1,16.9
		c11.5,12.3,3.1,23.5-4.6,33.5c-41.6,53.8-66.6,113.6-99.7,170.5c-7.5,12.8-11.4,30-37.8,25.7C646.9,307.9,638.2,303.9,629.4,299.9z
		"/>
	<path class="st11" d="M432.1,607.5c-0.3-7.2-5.2-10.7-14.1-10.8c-2.8-22.2,14.5-39.5,27.9-55.2c37.5-43.9,58.3-95.1,98.5-137.5
		c13.9-5.9,28.2-5.4,42.8-2.3c3.4,1.1,6.2,2.8,8.4,5.1c3.2,9.6-0.1,18.9-5.6,26.8c-38.2,54.5-68.3,112.6-115.8,162.9
		C460.2,600,446.1,603.8,432.1,607.5z"/>
	<path class="st12" d="M741.7,400.8C784.2,317.4,832.2,236,882,155.2c11.3,9.1,18.6,19.9,21.8,32.4c-27.8,48.3-55.6,96.6-83.5,144.8
		c-12.1,20.9-24.3,41.8-36.5,62.7c2.3,8.1-5.5,9.2-12.1,11.2c-3.5,0.6-7.1,0.9-10.7,0.8C753.7,406.8,746.7,405.7,741.7,400.8z"/>
	<path class="st13" d="M25.1,926.9c0-13.1,0-26.2,0-39.3c54.2-40.8,97.3-89.3,145.9-133.9c37.3-34.3,75.7-68.1,112.1-103.2
		c18.5-17.8,39.5-33.8,65-45.7c27.5,2.9,22.8,17.3,10.6,26.8c-41.4,32.6-72.4,72.4-114.9,104.1c-29,21.6-52.7,46.7-73.5,73.5
		c-4.7,5.6-10.6,10.3-17.3,14.3c-26.9,14.2-48.3,32.3-62.5,55.6c-13.3,13.5-25.4,27.7-40.5,40C43.4,924.4,37.9,933.6,25.1,926.9z"/>
	<path class="st11" d="M31.2,981.8c30.7-28.7,60.1-58.3,92.2-85.9c68.4-58.9,134.2-119.6,198.2-181.4c7.1-6.9,13.3-12.9,25.5-11.5
		c-0.2,9.4-0.4,18.8-0.6,28.2c-31.4,37.1-70.5,69.1-107.1,102.7c-48.2,44.2-98.4,87.2-144.1,133c-14.9,14.9-32.7,11.1-49.8,14.7
		C40.7,981.6,35.9,981.7,31.2,981.8z"/>
	<path class="st10" d="M769.8,400.8c5.8-0.2,11.1-1.1,14.1-5.6c7,0,14.1,0,21.1,0c17.7,3.2,20.1,7.2,15.9,22.7
		c-4.6,17-22.3,27.6-31.4,42.6c-17.6,28.9-39.5,56.2-50.2,87.5c-3,8.7-13.3,12.5-18.7,19.5c-22.1,9.2-45.1,16.1-70.3,17.6
		c-5-7.4-2.5-15.1,2-21.3C691.6,509.5,720.7,450.6,769.8,400.8z"/>
	<path class="st14" d="M720.6,567.5c15.5-39.9,40.1-76.6,62.9-113.9c6-9.7,17.7-15.2,22.8-24.2c6.3-10.9,19.8-23.5-1.4-34.3
		c30.5-11.2,61-22.4,91.5-33.6c10.5,13.4-2.9,22.5-9.8,32.4c-32.6,46.7-62.3,94.6-95.9,140.9C770.4,549.8,747.2,561,720.6,567.5z"/>
	<path class="st15" d="M655.7,311.8c8-3.6,19-5,21.6-13.1c12.8-39.6,47.8-71.7,58.1-112.4c6.3-24.8,32.5-42.3,44.6-65.5
		c6.6-12.7,19.3-23.6,17.8-38.7c9.5,2.9,16.5,8.1,21.9,14.9c-4.5,36.8-34,66.1-47.5,100.2c-17,43.1-47.3,81.5-68.7,123.1
		c-3.3,6.4-4.8,25.4-23.2,8C672.1,322.9,663.9,317.3,655.7,311.8z"/>
	<path class="st16" d="M185.8,406.4c-20.1,33.2-40.5,65.9-66.3,97c-24.3,29.2-41.4,62.3-60.1,94.3c-8,13.7-16.9,25.7-34.3,32.6
		c0-20.5,0-41,0-61.6c17.8-37.5,47.5-69.9,70.9-104.9c12.5-18.8,22.5-38.4,32.8-57.9C147.9,399.2,167,394.4,185.8,406.4z"/>
	<path class="st17" d="M460.2,255.5c-14.7,1.8-27.2-1.2-36.4-10.9c5.9-28.6,17.6-55.3,40.1-78.4c8-8.2,12.4-17.3,15.9-27.3
		c14.4-41.7,42.5-78.7,64.8-117.8c11.8,0,23.6,0.1,35.4,0.1c16.6,6.1,12.6,16.9,7.4,26c-36.3,64.8-72.8,129.6-111.9,193.5
		C472,246.6,467,251.6,460.2,255.5z"/>
	<path class="st11" d="M460.2,255.5c26.7-46.7,53.5-93.3,80.1-140.1C554.1,91,567,66.4,581,42.1c4.2-7.4,5.3-14.1-0.9-20.9
		c14.4-0.4,29.1-2.8,42.5,3.7c9.8,30-11.2,54.7-27.8,77.4c-34.9,47.7-55.8,99.8-84.6,149.4c-2,3.4-4.7,6.4-7.7,9.2
		C488.1,260.4,473,263.8,460.2,255.5z"/>
	<path class="st18" d="M474.3,596.3c3.5-24.6,26.3-41.9,38.4-63.3c24.5-43.1,62.5-80.9,81.2-126.6c13.8-10.1,29-7.8,44.4-3
		c12.9,4.2,9.4,11.9,5.1,18.5c-27.6,43-53,87-86.7,127.3c-11.5,13.7-11.9,33-33.2,41.6C507.4,593.7,491.4,598,474.3,596.3z"/>
	<path class="st19" d="M347.6,607.9c-57.5,47.9-112.9,96.9-166.4,147.9c-40.8,38.9-80.1,79.1-122.8,116.9
		c-8.1,7.2-22.1,10-33.4,14.9c0-9.3,0-18.7,0-28c4.3-6.6,7.8-13.5,14.9-18.8c69.2-51.3,125.1-111.9,186.7-168.4
		c22-20.2,43.9-40.7,67.4-60c3.3-3.4,7.2-6.1,12-8.1c6.9-2.4,14.1-3.1,21.5-3C335.3,601.7,342.5,602.8,347.6,607.9z"/>
	<path class="st9" d="M769.8,400.8c-9.6,31.7-38,55.6-55,84.4c-20,33.8-46.7,65-64.5,99.8c-15.9,4.6-32.2,7.2-49.2,5.3
		c-1.2-24.5,19.8-42.3,29.6-63.2c19.3-41.2,58.9-73.2,75.6-114.9c1.5-3.6,4.8-6.3,9.1-8.1c15.6-2.6,32.2,3,47.4-3.3
		C765.1,400.8,767.5,400.8,769.8,400.8z"/>
	<path class="st20" d="M790.8,534.9c-8.3-15.9,7.5-25.6,15.3-37.3c30.2-45.3,60.2-90.7,90.4-136c28.3-21.1,32.8-49.8,39.9-77.7
		C945,388.5,898.2,472.8,790.8,534.9z"/>
	<path class="st21" d="M544.7,21.1c7.5,34.3-30.1,55.6-39.3,85.9c-14,46-55.5,83.5-72.5,129.4c-1.2,3.2-5.9,5.5-9,8.2
		c-12.1-5.5-24.2-11-36.3-16.5c31.7-63.5,74.7-122.8,107.2-185.9c4.6-8.9,12.1-15.6,21.8-21.1C525.9,21.1,535.3,21.1,544.7,21.1z"/>
	<path class="st22" d="M502.4,260.9c-3.9-31.2,24-53.8,35.8-80.7c14.3-32.6,35.3-63,57.4-93.1c13.7-18.6,18.3-41.3,27-62.2
		c6.9,0.6,13.9,1.2,20.8,1.8c14.7,7.9,8,17.3,2.9,26.5c-32.7,58.6-64.3,117.6-99,175.4c-7.8,13-11.9,33.2-39.7,32.9
		c0,0-2.7,0.4-2.7,0.4L502.4,260.9z"/>
	<path class="st23" d="M333.7,21.1c16.4,0,32.7,0,49.1,0c9,19-6.1,34.3-14.6,49.3c-23,40.5-50.3,79.4-71,120.8
		c-2.7,5.4-7.8,9.2-12.9,13c-14.8,2.1-28.8-0.2-42.2-5.2c-5.8-16.6,2.7-31.7,12.2-44.9C285.2,111.4,309.2,66.2,333.7,21.1z"/>
	<path class="st24" d="M333.7,21.1c8.5,19-8.7,33-16.5,48.2c-22.8,44-56.3,84.2-75.1,129.8c-28.8-0.4-58,3.4-86.2-4.8
		c4.6-5.3,11.7-6.5,19-7.5c19.7,0.4,27.8-9.5,34.6-22.6c19.2-36.6,43.1-71.6,60.8-108.7c6.1-12.8,13-25.9,28-34.4
		C310.1,21.1,321.9,21.1,333.7,21.1z"/>
	<path class="st25" d="M143.9,972.6c-13.2,6.8-27.9,5.9-42.5,5.2c-10.5-14.8,4.9-22.4,15-30c73.6-55.4,133.3-120.7,202-179.4
		c7.5-6.4,13.4-16.5,28.1-9.3c0,1.9,0,3.9,0,5.8c-5.8,9.3,0.8,20.1-5.2,29.4c1.3,1.4,1.1,2.7-0.3,3.9
		c-48.7,55.6-114.5,99.8-163.6,155C168.7,962.8,153.7,964.7,143.9,972.6z"/>
	<path class="st7" d="M713.5,406.4c-3.7,26.3-17.9,48.8-40.1,68.3c-6.2,5.4-14,9.8-15.6,17.8c-7.3,36.9-45.5,62.4-56.7,97.8
		c-14.1,0.2-28.2,0.3-42.3,0.5c8-49.9,48.1-88.3,77.6-130c13.3-18.8,15.1-42.8,38.8-57C688,404.7,701.2,401,713.5,406.4z"/>
	<path class="st26" d="M346.5,759c-29.7,6.7-37.2,31.3-56.6,46.4c-45.6,35.3-84.1,76.5-124.9,115.7c-20.3,19.5-54.8,29.1-63.6,56.7
		c-18.2,5.5-37,4.8-55.9,3.8c52.8-9.8,71.2-49.9,103.9-76.8c68.1-56,124.7-120.5,197.1-173.5C346.5,740.4,346.5,749.7,346.5,759z"/>
	<path class="st27" d="M298.4,613.5c1.1,20.2-23.5,30.4-35.9,39.1c-50.4,35.3-85.1,81-132.1,118.7c-35.4,28.3-65.6,62.1-105.2,88.3
		c0-7.4,0-14.8,0-22.2c14.4-20.3,32.2-39,52.9-54.9c44.5-34.2,76.5-76.8,122.5-109.9c19.7-14.1,36.7-31.1,46.3-51.7
		c8-8.6,20.6-9.1,32-11.7C286.1,608.3,293.1,608.7,298.4,613.5z"/>
	<path class="st28" d="M129.5,411.9c2.8,30.1-23.1,51.2-40.3,73.8c-21,27.7-31.9,60.7-64.1,82.9c-6.6-65.4,9.5-123.3,83.9-162.1
		C119.1,400.4,124.3,406.2,129.5,411.9z"/>
	<path class="st29" d="M516.5,21.1C483.3,77.8,455.3,136.3,414.3,190c-9.5,12.4-0.7,33-26.8,38.2c-6.7-1.2-14.8,1-19.5-5
		c-4.8-5.1-4.4-10.6-1.1-15.8c37.2-58.6,66-120.2,100.8-179.7c1.5-2.5,4.1-4.5,6.5-6.5C488.4,21.1,502.4,21.1,516.5,21.1z"/>
	<path class="st30" d="M143.9,972.6c52.3-50.1,104.3-100.4,162-146.7c11.6-9.3,11.7-28,35-27.8c0.9,13.5-0.6,26.7-7.8,39.2
		c-29.8,43.4-74.8,77.4-112.3,116.1C195.8,961.2,172.1,972.8,143.9,972.6z"/>
	<path class="st31" d="M284.3,204.3c15.8-45.2,46-85.2,71.3-126.9c10.9-18,18.2-37.5,27.2-56.3c11.7,0,23.5,0,35.2,0
		c8.7,7.4,7.5,15.6,1.1,23c-36.2,41.8-40,95.7-81.1,135.6c-9.1,8.9-3.6,22.1-12.2,31.6C311.9,209,298.1,206.7,284.3,204.3z"/>
	<path class="st25" d="M671.3,406.4c1.3,34.9-32.1,57.3-49.2,85.6c-20.1,33.3-42.1,65.9-63.4,98.8c-11.7,0-23.5,0-35.2,0
		c20.9-41.7,51.4-79.3,78-118.6c14.6-21.6,27.7-43.8,41.5-65.8C652.6,402.3,661.9,402.3,671.3,406.4z"/>
	<path class="st32" d="M325.8,211.4c-10.1-12.9-6.3-27.9,3.7-36.4c38.6-33,43.2-77.7,66.2-115.9c7.5-12.4,30.2-19.9,22.3-37.9
		c14.1,0,28.1,0,42.2,0c2.6,2,4.9,5.1,3.3,7.4c-39.4,55.4-64.9,116-103.6,171.6c-7.7,11.1-18.1,16.8-34.3,11L325.8,211.4z"/>
	<path class="st33" d="M249.1,624.6c11.8,14.3-8.5,20.3-14.8,26.2c-66.3,62.5-134.7,123.6-202.6,185c-1.3,1.1-4.4,1-6.6,1.5
		c0-9.4,0-18.8,0-28.1c34.5-41.8,80-76.3,119.3-114.8c23.3-22.8,54-40.6,71.2-67.5c2-2.5,4.6-4.3,7.9-5.7
		C232.9,618.4,241.6,618.9,249.1,624.6z"/>
	<path class="st34" d="M221,630.3c-10,29.5-45.4,42.9-66.5,65.6c-28.7,30.7-64.5,57.1-94.8,86.9c-10.4,10.3-21.4,19-34.5,26.4
		c0-9.3,0-18.5,0-27.8C61.8,729,121.6,691.4,164.6,643c2-2.3,4.3-4.3,6.8-6.2C186.8,629.5,202.4,622.5,221,630.3z"/>
	<path class="st35" d="M298.4,21.1c-29.3,53.7-58.8,107.4-87.9,161.2c-6.6,12.2-18.8,11.8-31.8,11.2c-12.1-11.5-5.3-22.8,1.1-33.6
		c24.3-40.9,46.9-82.4,70.5-123.5c5.9-10.3-11.6-5-10.4-11.4C258.8,17.9,278.6,20.2,298.4,21.1z"/>
	<path class="st36" d="M325.6,211c30.4,0.2,39.8-23.4,45.2-36.5c22.1-54.3,57.8-103,89.4-153.4c4.7,0,9.4,0,14.1,0
		c-9.2,41.3-34.3,78.6-55.8,115.6c-16.6,28.6-28.6,59.5-50.4,86.4C353.9,219.1,339.8,215.1,325.6,211z"/>
	<path class="st37" d="M239.9,24.9c24.1-0.9,19.6,10.4,13.7,21.2c-20.9,37.8-42,75.5-63.9,113c-6.5,11.1-12.7,21.8-11,34.3
		c-7.6,0.3-15.1,0.6-22.7,0.8c-14.2,0-28.6,0.8-41.2-6c2.6-0.3,5.1-0.6,7.7-0.9c35.4-25.2,46.3-61.8,66.5-93.8
		c14.6-23.1,31.3-45.2,46.1-68.2C236.5,24.2,238.1,24,239.9,24.9z"/>
	<path class="st6" d="M171.7,647c-37.4,34.4-73.5,69.8-112.9,102.6c-12.2,10.2-8.9,30.6-33.7,31.7c0.1-5.7,0.3-11.4,0.4-17.1
		c4.2-11.1-1.1-24.4,12.5-33.3c9.4-11.2,18.8-22.4,28.1-33.6c12.8-15.6,29.8-28,48.4-39C132.4,650.9,148,636.1,171.7,647z"/>
	<path class="st38" d="M235,25.4c5.4,24.8-21.8,38.5-31.9,58.1c-14.9,28.9-31.2,57.4-48.7,85.4c-5.9,9.5-15.3,19-32,18.6
		c19.3-50,53.1-94.9,78.6-142.8c3.2-5.9,5.3-10-2.5-13.8C209.5,23.7,222.4,25.2,235,25.4z"/>
	<path class="st39" d="M656.7,385.4c-5.6,5.3-13.4,3.9-20.6,4.5c-25.4,15.4-58,0.5-84.2,12.5c-14.6,3.8-29.1,8.2-44.5,2.6
		c-11.8-5.9-6.5-13.3-0.7-18.7c30.1-28.1,21.4-54-5.7-79.3c-2.2-2.1-3.2-4.9-4.2-7.5c-1.4-6.1-0.1-11.5,5.7-16
		c46.1,23.3,60.9,46.2,51.2,85.2c-3.4,13.4,1.4,16.1,16.3,16C598.9,384.6,627.8,385.2,656.7,385.4z"/>
	<path class="st40" d="M150.6,820.5c2.7-5.3,7.4-9.1,14.1-11.2c6-4.3,11.6-9.7,21.1-5.6c-6.9,26.8-38.9,37.7-57.6,57.1
		c-31.7,33-65.6,64.7-103.1,93.8c0-9.3,0-18.6,0-27.8c28.6-10.6,36-37.8,62.2-50.3C109.5,858.6,123.5,834.9,150.6,820.5z"/>
	<path class="st41" d="M177.4,388.9c57.4-9.2,115.5-2.1,173.3-4.1c14.2-0.5,29.6,1.7,24.5-16.4c-3.3-8.7-8.3-20,3.5-24.3
		c14.5-5.2,17.3,7.7,22.4,15.3c8.1,15.4,26.2,25.4,34.6,40.7c0.1,3-1,5.6-3.3,8c-8.2,4.6-17.4,4.4-26.8,3.5
		c-3.8-0.4-7.5-1.1-11.1-2.1c-51.8-5.8-102.8-17.7-156-12C217.7,396.1,195.4,402.2,177.4,388.9z"/>
	<path class="st42" d="M395.8,367.2c-3.6-6.5-7.1-13-10.9-19.8c-14.9,4.1-6.7,14.2-9.7,21c-16.4-43.7,11.2-80.6,68.4-91.6
		c13.4-2.9,26.7-2.9,40.1,0c8.5-1.7,11.9,5.5,18.7,6.7c-0.1,5.8-0.2,11.5-0.3,17.3c-8.1,2.6-15.3-0.4-22.7-2.2
		c-11.8-3.6-23.3-3.5-34.4,2c-25.1,12-41.3,28-40.5,52.6C404.7,358.7,402.5,364.1,395.8,367.2z"/>
	<path class="st43" d="M220.9,953.5c-2.4-21.4,22.5-29.5,35.3-42.7c24.3-25.2,46.3-52.3,77-73.4C317.5,889.4,281,928.7,220.9,953.5z
		"/>
	<path class="st30" d="M291.3,266.8c-16.4-0.4-32.8-0.9-49.3-1.3c-12.9-18.7-6.7-33.3,15.1-44.6c17.1-2.5,31.7,6.7,48.2,6.7
		C318.1,244.6,302.2,255.2,291.3,266.8z"/>
	<path class="st44" d="M257.2,221c-8.7,14.1-16.3,28.4-15.1,44.6c-14.1-1.9-28.1-3.7-42.2-5.6c-11.7-12.5-12.6-24.9,0-37.4
		c2-0.7,4.2-1,6.4-1.1c16.9-4,33.7-3.5,50.7-0.3L257.2,221z"/>
	<path class="st45" d="M177.4,388.9c21.6,0.3,43.1,0.7,64.7,1c14.2,8.7,30.8,3.8,46.3,5.4c10.3,1.1,24.5-2.5,24.4,12
		c-10.3,6.9-22.6,6.7-34.9,6.6c-10.7,0.1-20.6-1.7-28.8-7.6c-7,0-14.1,0-21.1,0c-4.7,0-9.4,0-14.1,0c-27.4-7.9-56.7,1.9-84.1-5.5
		C143.6,391.6,160.1,389.3,177.4,388.9z"/>
	<path class="st3" d="M291.3,266.8c-4.4-15.1,18-24.2,14.1-39.2c14.1,3.8,28.1,7.6,42.2,11.5c10.6,26,7.7,29.7-24.2,30
		c-9.2,0.1-18.6,1.2-27.5-1.9l-2.4,0.6L291.3,266.8z"/>
	<path class="st46" d="M136.1,252.2c-31.6-3.9-63.7-5.7-96.8-15.9c30.8-9.8,61.3-8.6,90.1-13.8C138.6,231.4,144.5,240.8,136.1,252.2
		z"/>
	<path class="st47" d="M295.9,267.2c22.3-3.5,58.9,9.7,51.7-28.1c19.8,2.4,33.7,12.9,57.1,24.4C362.8,266.9,330.3,278.4,295.9,267.2
		z"/>
	<path class="st48" d="M136.1,252.2c-4.1-9.6-8.1-19.3-6.7-29.7c6.7-0.4,13.3-0.8,20-1.2c7.5-3.2,15.1-2.7,22.8-0.7
		c11,13.3,3.8,24-7.7,34.1C155,254.7,145,257.7,136.1,252.2z"/>
	<path class="st49" d="M164.6,254.6c2.3-10.9,4.6-21.7,6.9-32.6c3.1-4.5,10.1-2.1,14.1-5c4.8,1.8,9.5,3.7,14.3,5.5
		c0,12.5,0,24.9,0,37.4C186.8,263.5,176.1,257.5,164.6,254.6z"/>
	<path class="st50" d="M129.8,400.8c28,2.8,57.1-6.1,84.1,5.5c-9.4,0-18.8,0-28.2,0c-18.7,2.4-39-5.6-56.3,5.5
		c-6.8-1.8-13.6-3.6-20.5-5.4C113.8,399.7,122.3,401.4,129.8,400.8z"/>
	<path class="st34" d="M38,731c-4.2,11.1-8.3,22.2-12.5,33.3c-0.1-11.1-0.3-22.2-0.4-33.3C29.4,731,33.7,731,38,731z"/>
	<path class="st51" d="M256.9,221.2c-16.9,0.1-33.8,0.2-50.7,0.3C223,212.6,240,215.1,256.9,221.2z"/>
	<path class="st52" d="M483.7,276.9c-13.3,0-26.7,0-40,0C457,270.9,470.4,270.8,483.7,276.9z"/>
	<path class="st30" d="M341.3,794.2c0.6-9.9-5-20.5,5.2-29.4C347.5,774.9,348.4,785,341.3,794.2z"/>
	<path class="st53" d="M185.6,217.1c-4.7,1.7-9.4,3.3-14.1,5c-7.3-0.3-14.7-0.5-22-0.8C160.8,215.8,173.2,216.4,185.6,217.1z"/>
	<path class="st54" d="M185.8,803.7c-7,1.9-14.1,3.7-21.1,5.6c11.5-30.3,38.2-53.1,66.2-72.8c46.5-32.8,75.5-77.5,123.1-109.3
		c10.3-6.9,12.8-16.5-6.4-19.4c-7,0-14.1,0-21.1,0c-5.5-8.6-2-16.9,3.7-23.7c22.2-26.3,34-57.5,56.8-82.8
		c22.2-24.6,21.3-57.2,49.8-78.6c8.4-6.3,13.2-15.4,24-19.9c9-2.8,17.8-3,26.2,1.3c8,9,0.1,16.2-5.7,22.5
		C437.7,475,415.9,533,372.3,581.3c-8.8,9.7-13.1,20.4,10.5,21c18.2-0.1,27.5,5,10.1,16.6c-37.7,25.2-63.7,58.5-97.5,86.3
		c-30.5,25.1-61.7,49.3-84.5,79.6C205.2,792.4,194.3,797.5,185.8,803.7z"/>
	<path class="st55" d="M544.6,406.4c-22.9,47.7-57.1,90.6-88.9,134.6c-13.2,18.3-25.2,37.1-37.8,55.6c-25.8-7.1-6.7-26.1-3.9-27.9
		c25.4-16.3,17.7-47.7,47.5-61.9c10.4-5-5.2-19.3,5.6-27.7c-7-31.1,18.4-52.1,37.3-75.1C517.9,404.5,531.7,401,544.6,406.4z"/>
	<path class="st56" d="M502.4,406.4c-1.5,27.4-29.7,46.6-35.2,72.7c-31.7,9.1-30.8,36.5-47.2,54.3c-15.2,16.6-16.3,40.3-40.3,53.7
		c-6.6,3.7,0.9,10.1,3,15.2c-36.4,2.7-24.9-17.5-16.2-27.2C414.3,522,436,457.3,488.3,406.5c1.8-1.8,4.2-2.8,7-3.2
		C498.2,403.6,500.6,404.6,502.4,406.4z"/>
	<path class="st10" d="M551.7,400.7c4.2-16.7,21-10.3,33.2-10.9c17-0.8,34.2,0,51.2,0.1c16.3,21.5,42.6,6.1,63.4,10.9
		c14.1,0,28.1,0,42.2,0c7,0,14.1,0,21.1,0.1c-14.8,10.7-32.9,3.4-49.3,5.6c-14.1,0-28.1,0-42.2,0c-9.4,0-18.8,0-28.1,0
		c-16.4,0-32.8,0-49.3,0l0,0C581,399.1,564.7,407.8,551.7,400.7z"/>
	<path class="st57" d="M249.1,406.4c9.4,0,18.8,0,28.1,0c10.9,15.9-1.6,28.9-10,41.5c-40.3,60.7-82.4,120.6-127,179.4
		c-9,11.9-12.2,26.2-24.8,36.5C99,675,82.6,686.2,66.1,697.4c23.8-47,54.1-91.4,88.3-133.9c7.6-9.4,10.6-18.1,10.2-28.4
		c-0.1-8.2,5.6-13.2,14.1-16.8C203.5,481.5,244.8,451.3,249.1,406.4z"/>
	<path class="st50" d="M178.7,518.3c-4.7,5.6-9.4,11.2-14.1,16.8c-4.1,4.9-8.2,9.8-12.3,14.7C152.6,534.6,152,518.8,178.7,518.3z"/>
	<path class="st18" d="M551.7,400.7c14.1,1.9,29.9-4.5,42.2,5.6c-16.4,0-32.8,0-49.3,0c-14.1,0-28.1,0-42.2,0c-2.3,0-4.7,0-7,0
		c-2.5-1.1-3.2-2.8-2.3-4.9c1.8-1.6,4-2.2,6.7-1.8C517.1,400,534.4,400.4,551.7,400.7z"/>
	<path class="st54" d="M150.6,820.5c-21.2,18.6-30.2,45.9-63.3,56C96.3,849.2,118.7,831.5,150.6,820.5z"/>
	<path class="st58" d="M403.9,406.4c9.4,0,18.8,0,28.1,0c5.6,23.5-13.9,41-26.5,58.6c-33.8,47.4-57.2,99.6-100.2,142.9
		c-2.3,1.9-4.7,3.7-7,5.6c-7,0-14.1,0-21.1,0c-14.2-10.9-15.9-14.8-4.7-27.7c41.6-47.9,67-102.8,103-153
		C382.9,422.6,386.2,409.5,403.9,406.4z"/>
	<path class="st29" d="M305.4,607.9c-2.3-22.9,22.8-35.8,33-54.2c28-50.2,67.8-96,93.6-147.3c0-1.9,0.1-3.8,0.1-5.7
		c2.4-1.8,5.1-2.6,8.4-2.3c7.6,1.4,15.3,2.7,19.6,8.8c-50.3,64.5-86.4,135-133.7,200.7C319.5,607.9,312.4,607.9,305.4,607.9z"/>
	<path class="st19" d="M403.9,406.4c-22.1,33.6-42.3,68.2-66.2,100.6c-18.8,25.5-22.2,57.7-54.2,77.8c-9,5.6-21.2,16.9-6.3,28.7
		c-6,9.1-22.1,2.1-28.2,11.2c-9.4,0-18.8,0-28.1,0c-11.2-10.8-6.1-22.6,2-30.9c49.9-50.7,75.2-112.7,121.1-165.1
		c7.9-9,13.4-19.8,27.2-24.7C382.2,404.4,393.6,401.3,403.9,406.4L403.9,406.4z"/>
	<path class="st45" d="M368.7,406.4c-30,43.3-62.8,85.5-88.9,130.3c-17.7,30.4-57.8,51-58.9,88c0,1.9,0,3.7,0,5.6
		c-16.4,3.7-32.8,7.5-49.3,11.2c-5.9,1.4-8.5-0.7-8.6-5.2c-0.2-7.7,2.6-15.1,7.3-21.4c49.9-66.3,89-137.4,141.4-202.6
		c3-3.8,6.2-8,11.9-10C339.5,398.2,354,403.5,368.7,406.4z"/>
	<path class="st33" d="M319.5,406.4c-19.4,42.8-55.9,78.7-77.6,120.6c-18.6,36-53.8,64.8-69.4,102.1c-1.7,4.1-7,8-0.8,12.4
		c0,1.9,0,3.7,0,5.6c-21.9-1-37.7,10.9-56.3,16.8c16.2-59.2,72.3-102,100.9-155.8c18.4-34.8,53.3-63.1,61-101.7
		c11.7,0,23.5,0,35.2,0C314.8,404.6,317.1,404.6,319.5,406.4z"/>
	<path class="st58" d="M319.5,406.4c-2.3,0-4.7,0-7,0c-12.7-10.1-28.7-4-43.1-5.5c-10.8-1.1-24.5,2.8-27.3-10.9
		c55.4-3.3,109.4,1.6,161.8,16.4c-11.7,0-23.5,0-35.2,0C352.3,406.4,335.9,406.4,319.5,406.4z"/>
	<path class="st52" d="M481.2,293.6c-11.6,0-23.3,0.1-34.9,0.1C457.9,286.3,469.5,286.3,481.2,293.6z"/>
	<path class="st41" d="M439.3,401.7c18.7-0.2,37.4-0.5,56.1-0.7c0,1.8,0,3.6,0,5.4c-2.4,0.1-4.7,0.1-7.1,0.2
		c-9.4,0.2-18.8,0.4-28.1,0.6C452.9,406.1,444.6,407.5,439.3,401.7z"/>
</g>
<g class="st59">
	<g>
		<linearGradient id="SVGID_1_" gradientUnits="userSpaceOnUse" x1="716.5505" y1="732.4406" x2="909.8977" y2="944.4984">
			<stop  offset="0" style="stop-color:#00EFA9"/>
			<stop  offset="1" style="stop-color:#3F56F0"/>
		</linearGradient>
		<path class="st60" d="M892.5,796.7c0,50-25.2,90.3-57.6,90.3h-24.7v82.8h-37.6V706.4h62.4C867.3,706.4,892.5,746.6,892.5,796.7z
			 M854.8,796.7c0-19.2-8.5-33.9-20-33.9h-24.7v67.7h24.7C846.3,830.6,854.8,815.9,854.8,796.7z"/>
	</g>
	<linearGradient id="SVGID_2_" gradientUnits="userSpaceOnUse" x1="796.0136" y1="847.9906" x2="835.1175" y2="849.3748">
		<stop  offset="0" style="stop-color:#000000"/>
		<stop  offset="1" style="stop-color:#000000;stop-opacity:0"/>
	</linearGradient>
	<rect x="810.1" y="834.1" class="st61" width="31.5" height="29.8"/>
	<linearGradient id="SVGID_3_" gradientUnits="userSpaceOnUse" x1="769.1979" y1="784.1655" x2="828.9664" y2="782.6029">
		<stop  offset="0" style="stop-color:#000000"/>
		<stop  offset="1" style="stop-color:#000000;stop-opacity:0"/>
	</linearGradient>
	<path class="st62" d="M810.1,798.3c0,0-2.2-30.1-37.6-30.1l61.1,0.3l1.2,29.8L810.1,798.3z"/>
	<g>
		<g>
			<linearGradient id="SVGID_4_" gradientUnits="userSpaceOnUse" x1="913.4822" y1="713.7465" x2="1080.8691" y2="931.5296">
				<stop  offset="0" style="stop-color:#00EFA9"/>
				<stop  offset="1" style="stop-color:#3F56F0"/>
			</linearGradient>
			<path class="st63" d="M1052.7,925.6h-46l-6.2,40.4h-31l42.1-256.8h36.1l42.1,256.8h-31L1052.7,925.6z M1044.2,870.6l-14.5-94.3
				l-14.5,94.3H1044.2z"/>
		</g>
		<linearGradient id="SVGID_5_" gradientUnits="userSpaceOnUse" x1="1001.0186" y1="898.7117" x2="1029.2328" y2="898.1893">
			<stop  offset="0" style="stop-color:#000000"/>
			<stop  offset="1" style="stop-color:#000000;stop-opacity:0"/>
		</linearGradient>
		<polygon class="st64" points="1015.2,870.6 1006.7,925.6 1050.6,925.6 1042.7,870.6 		"/>
		<linearGradient id="SVGID_6_" gradientUnits="userSpaceOnUse" x1="991.9865" y1="719.9538" x2="1065.666" y2="810.6361">
			<stop  offset="0" style="stop-color:#000000"/>
			<stop  offset="1" style="stop-color:#000000;stop-opacity:0"/>
		</linearGradient>
		<path class="st65" d="M1029.7,776.3c0,0,4.9-37.2,9.2-49.8c4.3-12.6,8.8-17.3,8.8-17.3l19.3,117.8l-24.2,35L1029.7,776.3z"/>
	</g>
	<g>
		<g>
			<linearGradient id="SVGID_7_" gradientUnits="userSpaceOnUse" x1="1127.6553" y1="726.2844" x2="1277.1906" y2="916.4341">
				<stop  offset="0" style="stop-color:#00EFA9"/>
				<stop  offset="1" style="stop-color:#3F56F0"/>
			</linearGradient>
			<path class="st66" d="M1227.5,881.7h-17V966h-35.8V709.5h62.7c29.8,0,53.7,39.2,53.7,87.9c0,31.5-11.6,60.1-28.9,74.4l33.3,94.2
				h-38.5L1227.5,881.7z M1210.5,830.4h26.9c9.8,0,17.9-14.3,17.9-33c0-18.7-8.1-33-17.9-33h-26.9V830.4z"/>
		</g>
		<linearGradient id="SVGID_8_" gradientUnits="userSpaceOnUse" x1="1204.2754" y1="856.0406" x2="1229.6797" y2="856.0406">
			<stop  offset="0" style="stop-color:#000000"/>
			<stop  offset="1" style="stop-color:#000000;stop-opacity:0"/>
		</linearGradient>
		<rect x="1210.5" y="830.4" class="st67" width="30" height="51.3"/>
		<linearGradient id="SVGID_9_" gradientUnits="userSpaceOnUse" x1="1171.9706" y1="737.7897" x2="1228.4355" y2="736.3135">
			<stop  offset="0" style="stop-color:#000000"/>
			<stop  offset="1" style="stop-color:#000000;stop-opacity:0"/>
		</linearGradient>
		<path class="st68" d="M1210.5,764.7c0,0-2.1-55.5-35.8-55.5l58.1,0.5l1.1,55L1210.5,764.7z"/>
		<linearGradient id="SVGID_10_" gradientUnits="userSpaceOnUse" x1="1209.2798" y1="868.2402" x2="1249.5299" y2="904.794">
			<stop  offset="0" style="stop-color:#000000"/>
			<stop  offset="1" style="stop-color:#000000;stop-opacity:0"/>
		</linearGradient>
		<path class="st69" d="M1262.2,871.8c0,0-10.3,9.9-34.7,9.9l24.5,69.9h38.4L1262.2,871.8z"/>
	</g>
	<g>
		<g>
			<linearGradient id="SVGID_11_" gradientUnits="userSpaceOnUse" x1="1346.9911" y1="724.2568" x2="1496.1943" y2="921.4178">
				<stop  offset="0" style="stop-color:#00EFA9"/>
				<stop  offset="1" style="stop-color:#3F56F0"/>
			</linearGradient>
			<path class="st70" d="M1453.2,966L1410,847.1V966h-30.9V709.2h30.9v111.5l41.3-111.5h35.1l-45.5,125.1l47.4,131.7H1453.2z"/>
		</g>
		
			<linearGradient id="SVGID_12_" gradientUnits="userSpaceOnUse" x1="-3768.4653" y1="819.9658" x2="-3768.4653" y2="720.8605" gradientTransform="matrix(-1 0 0 1 -2373.8831 0)">
			<stop  offset="0" style="stop-color:#000000"/>
			<stop  offset="1" style="stop-color:#000000;stop-opacity:0"/>
		</linearGradient>
		<path class="st71" d="M1410,807.5c0,0,0.6-53.4-30.9-53.4v-44.9h30.9V807.5z"/>
		<linearGradient id="SVGID_13_" gradientUnits="userSpaceOnUse" x1="1440.8627" y1="834.2984" x2="1440.8627" y2="834.2984">
			<stop  offset="0" style="stop-color:#000000"/>
			<stop  offset="1" style="stop-color:#000000;stop-opacity:0"/>
		</linearGradient>
		<path class="st72" d="M1440.9,834.3"/>
		<linearGradient id="SVGID_14_" gradientUnits="userSpaceOnUse" x1="1402.8934" y1="835.5269" x2="1452.0708" y2="902.4081">
			<stop  offset="0" style="stop-color:#000000"/>
			<stop  offset="1" style="stop-color:#000000;stop-opacity:0"/>
		</linearGradient>
		<polygon class="st73" points="1440.9,834.3 1422.5,881.6 1446.6,947.9 1469.3,913.2 		"/>
	</g>
	<g>
		<g>
			<linearGradient id="SVGID_15_" gradientUnits="userSpaceOnUse" x1="1576.141" y1="734.6439" x2="1764.9102" y2="941.6807">
				<stop  offset="0" style="stop-color:#00EFA9"/>
				<stop  offset="1" style="stop-color:#3F56F0"/>
			</linearGradient>
			<path class="st74" d="M1750.2,797.9c0,48.7-25.3,87.9-57.9,87.9h-24.8v80.5h-37.8V710.1h62.6
				C1724.9,710.1,1750.2,749.3,1750.2,797.9z M1712.4,797.9c0-18.7-8.5-33-20.1-33h-24.8v65.9h24.8
				C1703.9,830.9,1712.4,816.6,1712.4,797.9z"/>
		</g>
		<linearGradient id="SVGID_16_" gradientUnits="userSpaceOnUse" x1="1652.5925" y1="857.2621" x2="1692.8971" y2="858.6888">
			<stop  offset="0" style="stop-color:#000000"/>
			<stop  offset="1" style="stop-color:#000000;stop-opacity:0"/>
		</linearGradient>
		<rect x="1667.6" y="830.9" class="st75" width="31.6" height="54.9"/>
		<linearGradient id="SVGID_17_" gradientUnits="userSpaceOnUse" x1="1626.8448" y1="738.1879" x2="1686.4193" y2="736.6304">
			<stop  offset="0" style="stop-color:#000000"/>
			<stop  offset="1" style="stop-color:#000000;stop-opacity:0"/>
		</linearGradient>
		<path class="st76" d="M1667.6,765c0,0-2.2-55.4-37.8-55.4l61.3,0.5l1.2,54.9L1667.6,765z"/>
	</g>
	<g>
		<g>
			<linearGradient id="SVGID_18_" gradientUnits="userSpaceOnUse" x1="1733.5481" y1="713.2212" x2="1905.0223" y2="936.3221">
				<stop  offset="0" style="stop-color:#00EFA9"/>
				<stop  offset="1" style="stop-color:#3F56F0"/>
			</linearGradient>
			<path class="st77" d="M1879.2,926h-51.9l-7,40.4h-34.9l47.5-256.8h40.7l47.5,256.8h-35L1879.2,926z M1869.6,871l-16.4-94.3
				l-16.4,94.3H1869.6z"/>
		</g>
		<linearGradient id="SVGID_19_" gradientUnits="userSpaceOnUse" x1="1820.8578" y1="899.1633" x2="1852.7037" y2="898.5735">
			<stop  offset="0" style="stop-color:#000000"/>
			<stop  offset="1" style="stop-color:#000000;stop-opacity:0"/>
		</linearGradient>
		<polygon class="st78" points="1836.8,871 1827.2,926 1876.7,926 1867.9,871 		"/>
		<linearGradient id="SVGID_20_" gradientUnits="userSpaceOnUse" x1="1817.6486" y1="720.5546" x2="1891.0765" y2="810.9275">
			<stop  offset="0" style="stop-color:#000000"/>
			<stop  offset="1" style="stop-color:#000000;stop-opacity:0"/>
		</linearGradient>
		<path class="st79" d="M1853.2,776.7c0,0,5.6-37.2,10.4-49.8c4.9-12.6,10-17.3,10-17.3l21.8,117.8l-27.3,35L1853.2,776.7z"/>
	</g>
	<g>
		<g>
			<linearGradient id="SVGID_21_" gradientUnits="userSpaceOnUse" x1="1928.8315" y1="700.5818" x2="2102.3369" y2="918.3863">
				<stop  offset="0" style="stop-color:#00EFA9"/>
				<stop  offset="1" style="stop-color:#3F56F0"/>
			</linearGradient>
			<path class="st80" d="M2031.1,867.7v98.7h-30.7v-98.7l-45.1-158.1h34.9l25.5,99l25.5-99h34.9L2031.1,867.7z"/>
		</g>
		<linearGradient id="SVGID_22_" gradientUnits="userSpaceOnUse" x1="1993.5577" y1="874.0574" x2="2036.076" y2="793.2724">
			<stop  offset="0" style="stop-color:#000000"/>
			<stop  offset="1" style="stop-color:#000000;stop-opacity:0"/>
		</linearGradient>
		<polygon class="st81" points="2015.7,808.6 2031.1,867.7 2060.1,765.8 2036.8,727 		"/>
	</g>
	<g>
		<g>
			<linearGradient id="SVGID_23_" gradientUnits="userSpaceOnUse" x1="2173.2356" y1="707.9901" x2="2324.3735" y2="956.6985">
				<stop  offset="0" style="stop-color:#00EFA9"/>
				<stop  offset="1" style="stop-color:#3F56F0"/>
			</linearGradient>
			<path class="st82" d="M2323.4,845.3c0,77.3-29.9,124.3-69.2,124.3c-44.1,0-75.8-58.5-75.8-131.2c0-73.4,32.3-131.9,73.6-131.9
				c26.9,0,49.6,23.8,61.4,57.8l-27.3,28.2c-5.8-16.6-18.5-29.6-34.3-29.6c-23.7,0-41.3,31.4-41.3,75.9c0,43,16.9,74.4,44.1,74.4
				c18.7,0,30.9-14.8,35.9-39H2253v-50.6h70.4V845.3z"/>
		</g>
		<linearGradient id="SVGID_24_" gradientUnits="userSpaceOnUse" x1="2216.6597" y1="750.9409" x2="2232.7153" y2="935.5822">
			<stop  offset="0" style="stop-color:#000000"/>
			<stop  offset="1" style="stop-color:#000000;stop-opacity:0"/>
		</linearGradient>
		<path class="st83" d="M2250,762.8c0,0-48.4-8.5-54,93.8c-4.2,75.4,27.5,110.4,38.8,109.9l10.8-54.2c0,0-34.1-3.6-35.1-74.3
			C2210.4,838.1,2209.7,768.7,2250,762.8z"/>
		<linearGradient id="SVGID_25_" gradientUnits="userSpaceOnUse" x1="2308.2493" y1="850.3766" x2="2293.9038" y2="910.0234">
			<stop  offset="0" style="stop-color:#000000"/>
			<stop  offset="1" style="stop-color:#000000;stop-opacity:0"/>
		</linearGradient>
		<path class="st84" d="M2290.5,874.2h31.4c0,0-4.6,45.3-23.7,70.4l-24.3-38.2C2273.9,906.4,2286.3,898.1,2290.5,874.2z"/>
	</g>
	<g>
		<g>
			<linearGradient id="SVGID_26_" gradientUnits="userSpaceOnUse" x1="2343.7915" y1="682.3154" x2="2491.0696" y2="919.924">
				<stop  offset="0" style="stop-color:#00EFA9"/>
				<stop  offset="1" style="stop-color:#3F56F0"/>
			</linearGradient>
			<path class="st85" d="M2352.9,837.9c0-74.6,39.1-131.9,87.3-131.9c48.2,0,87.3,57.2,87.3,131.9s-39.1,131.9-87.3,131.9
				C2392,969.7,2352.9,912.5,2352.9,837.9z M2489.1,837.9c0-45.3-21.6-75.3-48.9-75.3c-27.3,0-48.9,30.1-48.9,75.3
				c0,45.3,21.6,75.4,48.9,75.4C2467.6,913.2,2489.1,883.2,2489.1,837.9z"/>
		</g>
		<linearGradient id="SVGID_27_" gradientUnits="userSpaceOnUse" x1="2399.0647" y1="751.1982" x2="2415.0891" y2="935.4805">
			<stop  offset="0" style="stop-color:#000000"/>
			<stop  offset="1" style="stop-color:#000000;stop-opacity:0"/>
		</linearGradient>
		<path class="st86" d="M2437.6,762.7c0,0-57.8-8.5-64.6,94c-5,75.6,30.6,105.8,46.6,109.4l12.8-53.6c0,0-40.1-7.5-41.2-74.6
			C2391.1,838,2390.7,767.7,2437.6,762.7z"/>
	</g>
</g>
</svg>
