<svg id="Camada_1" data-name="Camada 1" xmlns="http://www.w3.org/2000/svg" xmlns:xlink="http://www.w3.org/1999/xlink" viewBox="0 0 210 55">
  <defs>
    <style>
      .cls-1 {
        fill: url(#linear-gradient);
      }

      .cls-2 {
        fill: #14c5d7;
      }

      .cls-3 {
        fill: #2c94ea;
      }

      .cls-4 {
        fill: #01eec8;
      }

      .cls-5 {
        fill: #25a1e4;
      }

      .cls-6 {
        fill: #279de6;
      }

      .cls-7 {
        fill: #1ab8dc;
      }

      .cls-8 {
        fill: #05e4cb;
      }

      .cls-9 {
        fill: #1db3dd;
      }

      .cls-10 {
        fill: #07e0cc;
      }

      .cls-11 {
        fill: #1fafdf;
      }

      .cls-12 {
        fill: #21aae1;
      }

      .cls-13 {
        fill: #17c0d9;
      }

      .cls-14 {
        fill: #2a99e7;
      }

      .cls-15 {
        fill: #10cdd4;
      }

      .cls-16 {
        fill: #24a5e3;
      }

      .cls-17 {
        fill: #24a6e3;
      }

      .cls-18 {
        fill: #03e8ca;
      }

      .cls-19 {
        fill: #15c4d7;
      }

      .cls-20 {
        fill: #1abadb;
      }

      .cls-21 {
        fill: #0dd2d2;
      }

      .cls-22 {
        fill: #27a1e5;
      }

      .cls-23 {
        fill: #12c9d5;
      }

      .cls-24 {
        fill: #18bcda;
      }

      .cls-25 {
        fill: #09dbce;
      }

      .cls-26 {
        fill: #07e0cd;
      }

      .cls-27 {
        fill: #1bb7dc;
      }

      .cls-28 {
        fill: #19bbda;
      }

      .cls-29 {
        fill: #0bd7d0;
      }

      .cls-30 {
        fill: #02edc8;
      }

      .cls-31 {
        fill: #11ccd4;
      }

      .cls-32 {
        fill: #1eb2de;
      }

      .cls-33 {
        fill: #0cd7d0;
      }

      .cls-34 {
        fill: #0dd3d2;
      }

      .cls-35 {
        fill: #0adace;
      }

      .cls-36 {
        fill: #07dfcd;
      }

      .cls-37 {
        fill: #07e4cb;
      }

      .cls-38 {
        fill: #0fcfd3;
      }

      .cls-39 {
        fill: #04e7ca;
      }

      .cls-40 {
        fill: #03eac9;
      }

      .cls-41 {
        fill: #23b4de;
      }

      .cls-42 {
        fill: #12c8d5;
      }

      .cls-43 {
        fill: #1dc3da;
      }

      .cls-44 {
        fill: #1dc7d8;
      }

      .cls-45 {
        fill: #23aee0;
      }

      .cls-46 {
        fill: #16c0d9;
      }

      .cls-47 {
        fill: #0cd6d0;
      }

      .cls-48 {
        fill: #06e1cc;
      }

      .cls-49 {
        fill: #2f9fe7;
      }

      .cls-50 {
        fill: #0cd5d0;
      }

      .cls-51 {
        fill: #16d0d4;
      }

      .cls-52 {
        fill: #08e0cd;
      }

      .cls-53 {
        fill: #24bddc;
      }

      .cls-54 {
        fill: #32c7dd;
      }

      .cls-55 {
        fill: #1ecad8;
      }

      .cls-56 {
        fill: #12cad5;
      }

      .cls-57 {
        fill: #14c4d7;
      }

      .cls-58 {
        fill: #13c8d6;
      }

      .cls-59 {
        fill: #08decd;
      }

      .cls-60 {
        fill: #10ced3;
      }

      .cls-61 {
        font-size: 18px;
        fill: #fff;
        font-family: ArialRoundedMTBold, Arial Rounded MT Bold;
      }
    </style>
    <linearGradient id="linear-gradient" y1="27.5" x2="210" y2="27.5" gradientUnits="userSpaceOnUse">
      <stop offset="0" stop-color="#073e96"/>
      <stop offset="0.249" stop-color="#0f56a0"/>
      <stop offset="0.7721" stop-color="#2293ba"/>
      <stop offset="1" stop-color="#2bb0c6"/>
    </linearGradient>
  </defs>
  <g>
    <path class="cls-1" d="M195.1558,2.92a11.9375,11.9375,0,0,1,11.924,11.924V40.1557A11.9376,11.9376,0,0,1,195.1557,52.08H14.8443A11.9376,11.9376,0,0,1,2.92,40.1557V14.8443A11.9376,11.9376,0,0,1,14.8443,2.92H195.1558m0-2.92H14.8443A14.8443,14.8443,0,0,0,0,14.8443V40.1557A14.8443,14.8443,0,0,0,14.8443,55H195.1557A14.8443,14.8443,0,0,0,210,40.1557V14.8442A14.8442,14.8442,0,0,0,195.1558,0Z"/>
    <g>
      <path class="cls-2" d="M11.7474,45.984c-.4732-.3125-.16-.767-.2028-1.1571A32.7948,32.7948,0,0,1,15.35,40.0494a12.3709,12.3709,0,0,0,1.3683-1.7506C18.3949,35.9644,20.5158,34.01,22.2,31.682a7.873,7.873,0,0,1,.9505-.88c.2811-.2794.6347-.5477.1739-.9678a.6524.6524,0,0,1-.0818-.8637c.9376-1.1744,1.3063-2.6579,2.0913-3.9142.2137-.342.3972-.6885.8835-.59a1.2315,1.2315,0,0,1-.1129,1.69c-.6474.71-.7155,1.7251-1.3111,2.4643a.48.48,0,0,0,.137.7207c.2056.1893.4454.3693.2.691a4.6862,4.6862,0,0,0-2.3643,2.7362c-.1718.4389-.3164.8888-.4734,1.3336-2.4727,2.8741-4.8764,5.8093-7.4072,8.6319A16.2036,16.2036,0,0,1,11.7474,45.984Z"/>
      <path class="cls-3" d="M40.88,12.1427a9.2688,9.2688,0,0,1,1.0865,4.0992c-.0666,1.2744-.01,2.594-1.2237,3.45a8.4833,8.4833,0,0,1-3.1975,1.4862.8389.8389,0,0,1-.69-.144,1.04,1.04,0,0,1,.0719-.917c1.08-2.4176,2.2447-4.7966,3.2261-7.26A1.0191,1.0191,0,0,1,40.88,12.1427Z"/>
      <path class="cls-4" d="M14.5373,12.1718c-2.49-.775-2.9748-2.4435-1.253-4.3865A6.4875,6.4875,0,0,1,17.336,5.4612c.4111.3706.4673.3971.27.8281-.9024,1.9694-1.6416,4.0176-2.7387,5.8942A.2326.2326,0,0,1,14.5373,12.1718Z"/>
      <path class="cls-5" d="M32.6313,20.57c.8057-.6286.4924-1.6305.7868-2.43.1774.0091.3157.0571.43-.2029q2.0352-4.6172,3.9353-9.2928a.72.72,0,0,1,.2877-.3592,2.8454,2.8454,0,0,1,.9331.98,1.3484,1.3484,0,0,1,.0391,1.247,36.2749,36.2749,0,0,1-2.2,5.1044c-.7961,1.49-1.2188,3.1687-2.085,4.6377-.2378.4033-.3627.8846-.8,1.1448-.7557.09-1.58.5208-2.1246-.4391C31.9182,20.4481,32.3814,20.7335,32.6313,20.57Z"/>
      <path class="cls-6" d="M34.0582,21.2242c.96-2.1334,1.9134-4.27,2.8836-6.3991a23.88,23.88,0,0,0,2.0627-5.56,4.0943,4.0943,0,0,1,1.1464,1.4972,4.2418,4.2418,0,0,1-.73,2.2044c-1.2016,2.5191-2.2407,5.1123-3.4472,7.6275a1.5135,1.5135,0,0,1-.6392.8166A1.1538,1.1538,0,0,1,34.0582,21.2242Z"/>
      <path class="cls-7" d="M29.2976,15.7711a4.6376,4.6376,0,0,1-1.6442-.479c1.544-1.8343,2.0972-4.1859,3.1422-6.28a11.31,11.31,0,0,0,1.3909-3.7266,4.7746,4.7746,0,0,1,1.87.4877c.3126.4449.06.8424-.1356,1.2143-1.3578,2.5839-2.409,5.3148-3.7057,7.9275C30.0157,15.3171,29.9549,15.8742,29.2976,15.7711Z"/>
      <path class="cls-8" d="M11.5449,33.3807V31.0018q2.265-4.2795,4.5749-8.5344a3.1981,3.1981,0,0,1,.8232-1.1433,1.592,1.592,0,0,1,.8872-.1375,1.006,1.006,0,0,1,.5029.2c.274.42.0231.7625-.179,1.0948-1.77,2.91-3.2271,5.9937-4.8619,8.9783C12.8767,32.218,12.5566,33.1463,11.5449,33.3807Z"/>
      <path class="cls-9" d="M29.2976,15.7711a13.4276,13.4276,0,0,0,1.7645-3.4343c1.0136-2.18,1.9978-4.3748,2.9943-6.5634a2.6106,2.6106,0,0,1,1.1732.5037.48.48,0,0,1,.0534.5539C33.8444,9.87,32.6263,13.01,31.1661,16.0385a.9025.9025,0,0,1-.3985.4227A4.2754,4.2754,0,0,1,29.2976,15.7711Z"/>
      <path class="cls-10" d="M11.5449,33.3807c1.5188-1.5558,2.2322-3.6036,3.2459-5.4684q1.7554-3.2292,3.5276-6.4488a.5578.5578,0,0,1,.696-.09.987.987,0,0,1,.1531,1.1934,22.1351,22.1351,0,0,1-2.2688,3.7547,1.6653,1.6653,0,0,0-1.046.7309c.1662-.1487.2983-.2071.4407-.0682a1.0869,1.0869,0,0,1-.1285,1.21c-1.176,1.8429-2.0621,3.846-3.0914,5.77-.3142.5215-.4924,1.1453-1.0641,1.4762a.4929.4929,0,0,1-.4645-.1456Z"/>
      <path class="cls-11" d="M30.7676,16.4612c.5858-1.4133,1.1467-2.8379,1.7634-4.2372.8781-1.9921,1.7971-3.9655,2.6986-5.9469.4355.0362.6281.4327.94.6527.2051,1.316-.6222,2.3193-1.0787,3.4082C34.3183,12.18,33.495,14,32.7621,15.8608c-.186.4724-.3,1.1124-1.0423,1.0659A1.7183,1.7183,0,0,1,30.7676,16.4612Z"/>
      <path class="cls-12" d="M31.72,16.9267c1.0456-.7514,1.1074-2.0671,1.5305-3.106.9415-2.3113,2.1442-4.51,2.919-6.8909a1.7149,1.7149,0,0,1,1.1716.72c.3831.5226.1033,1-.1549,1.4256a68.0223,68.0223,0,0,0-3.3278,7.265c-.25.5472-.3809,1.2782-1.2614,1.0947Z"/>
      <path class="cls-13" d="M25.1308,30.0325a.4262.4262,0,0,0-.4693-.4611,3.6437,3.6437,0,0,1,.9324-2.3536c1.2528-1.87,1.9451-4.0523,3.29-5.86a1.8566,1.8566,0,0,1,1.43-.0982.6414.6414,0,0,1,.2789.2166,1.5519,1.5519,0,0,1-.1867,1.14,59.0551,59.0551,0,0,1-3.8652,6.9407Z"/>
      <path class="cls-14" d="M35.4677,21.224c1.42-3.5524,3.0211-7.0213,4.6832-10.4619a2.7353,2.7353,0,0,1,.7292,1.3807q-1.3929,3.086-2.7864,6.1718c-.4032.8917-.8111,1.7812-1.2168,2.6718.0775.3448-.1851.39-.4042.4752a1.4375,1.4375,0,0,1-.3588.0352A.8146.8146,0,0,1,35.4677,21.224Z"/>
      <path class="cls-15" d="M11.5452,43.6409l0-1.676c1.8086-1.7369,3.2477-3.8051,4.8689-5.7071,1.2463-1.4622,2.5255-2.9029,3.7413-4.3955a8.3152,8.3152,0,0,1,2.1686-1.9468c.9177.1242.76.7372.3553,1.1441-1.3833,1.39-2.4162,3.0843-3.8348,4.4373a15.1359,15.1359,0,0,0-2.4549,3.132,2.4988,2.4988,0,0,1-.5763.6108,5.884,5.884,0,0,0-2.0855,2.3682,19.6078,19.6078,0,0,1-1.3521,1.7031C12.1559,43.5378,11.9738,43.9291,11.5452,43.6409Z"/>
      <path class="cls-13" d="M11.7474,45.984c1.0234-1.2233,2.0065-2.4844,3.0785-3.6622,2.2835-2.509,4.4786-5.0942,6.6157-7.7307.2387-.2944.4426-.5478.8515-.4888l-.02,1.2a46.4344,46.4344,0,0,1-3.5762,4.3745c-1.6094,1.8845-3.2856,3.7142-4.8113,5.6674-.4974.6367-1.091.4749-1.6609.6256Z"/>
      <path class="cls-12" d="M36.4064,21.2266a.4909.4909,0,0,0,.4705-.24l.7037-.0008c.5894.1382.67.3054.5309.968-.1521.725-.7453,1.177-1.05,1.8146a21.9134,21.9134,0,0,0-1.675,3.7294c-.099.3716-.4432.5336-.6242.8309a5.9631,5.9631,0,0,1-2.3455.7479.9193.9193,0,0,1,.0671-.9065C33.7954,25.8577,34.7651,23.3461,36.4064,21.2266Z"/>
      <path class="cls-16" d="M34.7625,28.3285a34.6685,34.6685,0,0,1,2.1012-4.8539c.1986-.4139.59-.648.7623-1.0293.21-.4634.6611-1-.0454-1.46l3.0548-1.432c.3516.5714-.0955.96-.3264,1.3821-1.0893,1.989-2.0806,4.0317-3.2016,6.0031A6.0415,6.0415,0,0,1,34.7625,28.3285Z"/>
      <path class="cls-17" d="M32.5968,17.4349c.2678-.1513.6343-.2145.7212-.5575.4275-1.687,1.5962-3.0557,1.9385-4.7886.2091-1.0587,1.086-1.8043,1.49-2.7907.2218-.5422.6432-1.0062.5948-1.6485a1.48,1.48,0,0,1,.73.6356c-.15,1.5669-1.1342,2.8148-1.5841,4.2685-.5678,1.8346-1.5806,3.4725-2.2945,5.2443-.11.2738-.16,1.0823-.7748.3421Z"/>
      <path class="cls-18" d="M16.9087,21.4636a35.0258,35.0258,0,0,1-2.2126,4.1314,30.4322,30.4322,0,0,0-2.0055,4.0164,2.6188,2.6188,0,0,1-1.1457,1.39l0-2.6232A40.031,40.031,0,0,1,13.91,23.9068c.4183-.8016.7509-1.6353,1.0958-2.4688A1.6739,1.6739,0,0,1,16.9087,21.4636Z"/>
      <path class="cls-19" d="M26.07,15.0349a1.1666,1.1666,0,0,1-1.2139-.4653,7.2711,7.2711,0,0,1,1.34-3.3387,3.2439,3.2439,0,0,0,.53-1.164A34.8854,34.8854,0,0,1,28.89,5.048l1.1827.0042c.5557.2591.4192.72.2485,1.109-1.2131,2.7627-2.4319,5.523-3.7362,8.2432A1.6492,1.6492,0,0,1,26.07,15.0349Z"/>
      <path class="cls-13" d="M26.07,15.0349c.8914-1.99,1.7873-3.9774,2.6723-5.97.461-1.0377.8941-2.088,1.3587-3.1239a.8247.8247,0,0,0-.029-.8889,2.3616,2.3616,0,0,1,1.4191.1557c.3285,1.2791-.374,2.3315-.9277,3.2972-1.165,2.0318-1.8636,4.254-2.825,6.3649a1.6884,1.6884,0,0,1-.2586.3934C27.0017,15.2418,26.4967,15.3884,26.07,15.0349Z"/>
      <path class="cls-20" d="M26.5406,29.5569c.1165-1.0472.8765-1.7865,1.2836-2.6986.8194-1.8358,2.0856-3.4492,2.71-5.3948a1.28,1.28,0,0,1,1.4823-.1282c.43.1771.313.5057.1714.7878a53.8975,53.8975,0,0,1-2.8927,5.4225c-.3824.5845-.398,1.4077-1.1076,1.7746A4.6923,4.6923,0,0,1,26.5406,29.5569Z"/>
      <path class="cls-21" d="M22.3116,30.049c-1.9182,2.0394-3.77,4.13-5.5535,6.3-1.3632,1.6583-2.6732,3.3723-4.098,4.9808a4.0062,4.0062,0,0,1-1.1153.635l0-1.1922a2.6967,2.6967,0,0,1,.4979-.7991,89.4657,89.4657,0,0,0,6.234-7.1767c.7353-.8607,1.4646-1.7357,2.2495-2.5564a1.1882,1.1882,0,0,1,.4018-.3459,1.677,1.677,0,0,1,.7176-.1264A.8465.8465,0,0,1,22.3116,30.049Z"/>
      <path class="cls-11" d="M36.4064,21.2266c-.3215,1.3492-1.2692,2.37-1.8363,3.596-.6665,1.4409-1.5579,2.7709-2.1531,4.2538a3.3207,3.3207,0,0,1-1.642.2237c-.04-1.0458.66-1.8.9877-2.6925.6444-1.7552,1.9652-3.1187,2.524-4.8947a.5914.5914,0,0,1,.3029-.3435c.5223-.11,1.0743.1269,1.5822-.1424Q36.2891,21.2261,36.4064,21.2266Z"/>
      <path class="cls-22" d="M37.1074,26.9388c-.2759-.678.25-1.0889.5114-1.59q1.5105-2.8967,3.0166-5.7956a5.681,5.681,0,0,0,1.3312-3.3117A11.5647,11.5647,0,0,1,37.1074,26.9388Z"/>
      <path class="cls-23" d="M28.89,5.048c.25,1.4629-1.0061,2.3683-1.3134,3.66-.4659,1.959-1.8543,3.5589-2.42,5.5119-.0391.1347-.1969.2339-.3.35l-1.2124-.7016c1.0575-2.7041,2.4933-5.2319,3.5792-7.9226a2.0221,2.0221,0,0,1,.7264-.8973Z"/>
      <path class="cls-24" d="M27.48,15.2634c-.1294-1.3306.8-2.2921,1.1936-3.44a22.9648,22.9648,0,0,1,1.9147-3.9668,13.9407,13.9407,0,0,0,.903-2.6492l.695.0779c.4917.3367.2665.7387.0954,1.1306-1.09,2.4965-2.1462,5.01-3.3033,7.4742-.26.554-.3983,1.4167-1.3251,1.4014l-.0917.017Z"/>
      <path class="cls-25" d="M21.8479,5.0478h1.638c.3008.8078-.2043,1.4619-.4889,2.1025-.7668,1.7256-1.6776,3.3847-2.37,5.1475a1.6035,1.6035,0,0,1-.429.5554A2.2567,2.2567,0,0,1,18.79,12.63a2.5015,2.5015,0,0,1,.408-1.9123A55.4358,55.4358,0,0,0,21.8479,5.0478Z"/>
      <path class="cls-26" d="M21.8479,5.0478c.2827.81-.2893,1.4057-.5517,2.0532-.76,1.8761-1.878,3.5882-2.506,5.5293a8.4246,8.4246,0,0,1-2.8765-.2035.8512.8512,0,0,1,.6332-.3187c.6589.0183.9265-.4065,1.1544-.9609.6413-1.56,1.4376-3.0491,2.03-4.6331a2.9731,2.9731,0,0,1,.9358-1.4665Z"/>
      <path class="cls-27" d="M15.51,45.59a2.1654,2.1654,0,0,1-1.42.22c-.3512-.6315.1641-.9558.4993-1.2779,2.4566-2.361,4.4483-5.1418,6.7447-7.6461.25-.2725.4465-.7035.9391-.3978l.001.249c-.1942.3978.0272.8553-.1746,1.252a.12.12,0,0,1-.0111.1679c-1.6253,2.3689-3.8219,4.251-5.4629,6.6057C16.3407,45.171,15.8392,45.2555,15.51,45.59Z"/>
      <path class="cls-9" d="M34.5272,21.464a5.1371,5.1371,0,0,1-1.3386,2.9088c-.2057.23-.4687.4186-.5215.7583-.2439,1.57-1.5179,2.6593-1.8921,4.169l-1.4129.02c.2683-2.1273,1.6049-3.7645,2.59-5.5382.4441-.8.5032-1.8258,1.294-2.4279C33.6733,21.392,34.1163,21.235,34.5272,21.464Z"/>
      <path class="cls-28" d="M22.2732,36.4877c-.991.2845-1.241,1.3352-1.89,1.976a60.42,60.42,0,0,0-4.1694,4.9289c-.6793.8327-1.8283,1.2389-2.1236,2.4169a4.251,4.251,0,0,1-1.8653.16c1.7641-.4179,2.3761-2.1283,3.4674-3.2731,2.2743-2.3859,4.1639-5.1324,6.581-7.3944Z"/>
      <path class="cls-29" d="M20.6675,30.2872c.0383.8615-.7853,1.2969-1.1988,1.6659-1.6841,1.5028-2.841,3.4531-4.4107,5.0559-1.1823,1.2073-2.1909,2.6451-3.5128,3.7637v-.9472a10.197,10.197,0,0,1,1.7673-2.34c1.4853-1.4553,2.5535-3.2737,4.09-4.6838a5.6509,5.6509,0,0,0,1.5453-2.203c.2663-.3651.6871-.3875,1.0687-.5A.6781.6781,0,0,1,20.6675,30.2872Z"/>
      <path class="cls-30" d="M15.03,21.6993c.0949,1.2823-.7719,2.1806-1.3457,3.1454-.7025,1.1813-1.0643,2.5868-2.14,3.5339-.222-2.7862.3167-5.2544,2.8021-6.909C14.6842,21.2094,14.8561,21.4572,15.03,21.6993Z"/>
      <path class="cls-31" d="M27.95,5.0481a72.37,72.37,0,0,1-3.412,7.1942c-.3169.5287-.0228,1.4049-.8935,1.6257-.2227-.052-.4927.0446-.65-.213a.6068.6068,0,0,1-.0357-.6712C24.201,10.4854,25.1623,7.86,26.3232,5.325a1.1028,1.1028,0,0,1,.2174-.2773Z"/>
      <path class="cls-32" d="M15.51,45.59c1.7472-2.1332,3.4815-4.2794,5.4086-6.25.3868-.3955.3916-1.1923,1.17-1.1837a3.549,3.549,0,0,1-.2591,1.672,39.3365,39.3365,0,0,1-3.7479,4.9459A6.901,6.901,0,0,1,15.51,45.59Z"/>
      <path class="cls-33" d="M20.1978,12.8533a33.1719,33.1719,0,0,1,2.3814-5.408c.3655-.7681.6082-1.5965.9067-2.3974l1.1749,0a.7327.7327,0,0,1,.0358.982c-1.2077,1.779-1.3342,4.0776-2.7082,5.7785-.3052.3779-.1213.9419-.4059,1.3459Z"/>
      <path class="cls-27" d="M33.1182,21.4635c.0426,1.4875-1.072,2.4428-1.6412,3.6474-.6708,1.42-1.4071,2.8076-2.1149,4.2093H28.1874a49.5681,49.5681,0,0,1,2.6049-5.0539c.4888-.92.9259-1.8678,1.3862-2.8031A.9172.9172,0,0,1,33.1182,21.4635Z"/>
      <path class="cls-34" d="M21.5825,13.154a1.3072,1.3072,0,0,1,.1227-1.55c1.29-1.4067,1.4425-3.3115,2.2111-4.94.25-.53,1.0075-.8482.7445-1.6162l1.4092,0c.0882.0869.1643.2188.1117.3133C24.8672,7.72,24.014,10.3034,22.724,12.6735c-.2571.4724-.6038.7155-1.1455.4667Z"/>
      <path class="cls-35" d="M19.0231,30.7638c.3944.6087-.2845.8643-.4931,1.1156-2.2122,2.664-4.4959,5.2667-6.7649,7.8819-.0425.049-.1453.044-.22.0642V38.6263a62.551,62.551,0,0,1,3.983-4.8933,17.4967,17.4967,0,0,0,2.3777-2.8768.6938.6938,0,0,1,.2636-.241A.7472.7472,0,0,1,19.0231,30.7638Z"/>
      <path class="cls-36" d="M18.0836,31.0027c-.3349,1.2565-1.5142,1.83-2.221,2.7944-.9577,1.3072-2.1545,2.4313-3.1641,3.7031a5.7744,5.7744,0,0,1-1.1533,1.1261V37.4408c1.2242-2.2316,3.2231-3.8319,4.6565-5.8946a1.649,1.649,0,0,1,.2273-.265A1.5638,1.5638,0,0,1,18.0836,31.0027Z"/>
      <path class="cls-37" d="M20.6674,5.0476c-.9794,2.2885-1.9645,4.5745-2.9337,6.8675-.2191.5185-.628.5017-1.0615.4758-.4045-.4885-.1777-.9709.0379-1.4329.8125-1.7414,1.5665-3.5095,2.3534-5.2624.1969-.4387-.3879-.2132-.3483-.4862A3.8172,3.8172,0,0,1,20.6674,5.0476Z"/>
      <path class="cls-38" d="M21.5785,13.14c1.0158.0082,1.33-.9968,1.5082-1.5551A48.4635,48.4635,0,0,1,26.07,5.048l.4706,0a20.6875,20.6875,0,0,1-1.864,4.9273,29.3284,29.3284,0,0,1-1.6823,3.68Z"/>
      <path class="cls-39" d="M18.7152,5.2094c.8049-.0389.6557.4433.4557.9041-.699,1.61-1.4032,3.2189-2.1321,4.8156a2.7652,2.7652,0,0,0-.3666,1.4619q-.3792.0177-.7584.0358a2.2812,2.2812,0,0,1-1.3765-.255l.2572-.038c1.1831-1.075,1.5456-2.6316,2.2212-3.9948.4882-.985,1.046-1.9277,1.5377-2.9079A.1117.1117,0,0,1,18.7152,5.2094Z"/>
      <path class="cls-8" d="M16.4391,31.7177C15.1914,33.1833,13.986,34.69,12.6708,36.09c-.4069.4332-.2984,1.3052-1.1255,1.3507l.0142-.7289c.1412-.4716-.037-1.04.4161-1.4168l.94-1.4309a6.5071,6.5071,0,0,1,1.6167-1.6627C15.1286,31.8821,15.65,31.25,16.4391,31.7177Z"/>
      <path class="cls-40" d="M18.5534,5.2311c.1793,1.0586-.727,1.64-1.0646,2.4736q-.748,1.8465-1.6252,3.6379a1.1692,1.1692,0,0,1-1.0692.7914A64.8187,64.8187,0,0,1,17.419,6.05c.1058-.2534.1753-.4241-.083-.589A1.6746,1.6746,0,0,1,18.5534,5.2311Z"/>
      <path class="cls-41" d="M32.6313,20.57c-.1861.2245-.4484.1677-.6887.1922-.849.6577-1.9365.02-2.8118.5344a1.9077,1.9077,0,0,1-1.4847.11c-.3953-.25-.2169-.5649-.0239-.795,1.0052-1.1983.7142-2.3-.1911-3.3779a.8886.8886,0,0,1-.1414-.3214.7121.7121,0,0,1,.19-.68c1.54.9924,2.0339,1.969,1.7085,3.63-.1122.5729.0481.6874.5455.6831C30.7,20.5375,31.6655,20.56,32.6313,20.57Z"/>
      <path class="cls-42" d="M15.7343,39.1107a.815.815,0,0,1,.47-.4771c.2009-.183.3862-.4139.7049-.2383-.232,1.14-1.3,1.6052-1.922,2.4336a36.2856,36.2856,0,0,1-3.4424,3.998l.0006-1.186c.9556-.452,1.2027-1.61,2.0749-2.1454A15.3107,15.3107,0,0,1,15.7343,39.1107Z"/>
      <path class="cls-43" d="M16.63,20.7193c1.9178-.3909,3.8564-.0892,5.7837-.1737.4744-.0208.9873.0718.8195-.6974-.1108-.3695-.2755-.8542.118-1.0346.4825-.2211.5763.3292.7474.65.2709.6542.874,1.0822,1.1535,1.7327a.5187.5187,0,0,1-.11.34,1.1962,1.1962,0,0,1-.8952.1484,1.7886,1.7886,0,0,1-.3715-.0886,18.5886,18.5886,0,0,0-5.209-.51C17.9761,21.0271,17.2306,21.2862,16.63,20.7193Z"/>
      <path class="cls-44" d="M23.9206,19.7947l-.3626-.8424c-.4964.1744-.2229.6039-.3244.8957a2.9438,2.9438,0,0,1,2.285-3.904,2.4476,2.4476,0,0,1,1.3371.0009c.2842-.0745.3967.235.6241.2876l-.0113.736a1.0738,1.0738,0,0,1-.7562-.0946,1.2082,1.2082,0,0,0-1.1468.0857,2.439,2.439,0,0,0-1.3524,2.2433A.6338.6338,0,0,1,23.9206,19.7947Z"/>
      <path class="cls-45" d="M18.0815,44.7745c-.0785-.91.7517-1.2558,1.1771-1.8194a19.5888,19.5888,0,0,1,2.5708-3.1265A7.1631,7.1631,0,0,1,18.0815,44.7745Z"/>
      <path class="cls-32" d="M20.4327,15.5171l-1.6447-.0547a1.2988,1.2988,0,0,1,.5046-1.9c.571-.1065,1.0568.2834,1.6093.2848C21.3257,14.5719,20.7949,15.02,20.4327,15.5171Z"/>
      <path class="cls-46" d="M19.2926,13.5625a3.821,3.821,0,0,0-.5046,1.9l-1.4089-.2382a1.1931,1.1931,0,0,1,0-1.5929.6573.6573,0,0,1,.2125-.049,3.133,3.133,0,0,1,1.6913-.0108Z"/>
      <path class="cls-47" d="M16.63,20.7193l2.1586.0441c.4731.3711,1.029.1615,1.5455.23.343.0453.8181-.1069.8136.5134a1.6129,1.6129,0,0,1-1.1646.2793,1.3366,1.3366,0,0,1-.96-.3223h-.7047l-.4693-.0006c-.9154-.3357-1.8923.0828-2.8089-.2364A2.4368,2.4368,0,0,1,16.63,20.7193Z"/>
      <path class="cls-5" d="M20.4327,15.5171c-.1476-.6447.6-1.03.4692-1.67l1.4081.4884c.3541,1.1064.256,1.2669-.8066,1.2783a2.1214,2.1214,0,0,1-.9186-.0821l-.0791.0254Z"/>
      <path class="cls-48" d="M15.2514,14.8921a14.5486,14.5486,0,0,1-3.2314-.6789,17.0887,17.0887,0,0,1,3.0089-.5865A1.0408,1.0408,0,0,1,15.2514,14.8921Z"/>
      <path class="cls-49" d="M20.5848,15.5319c.7438-.1481,1.9647.4132,1.7252-1.1962a5.54,5.54,0,0,1,1.9052,1.0409C22.8188,15.5207,21.735,16.0089,20.5848,15.5319Z"/>
      <path class="cls-50" d="M15.2514,14.8921a2.93,2.93,0,0,1-.2225-1.2654l.6674-.052a.9065.9065,0,0,1,.7624-.0292c.3687.5664.1254,1.0215-.256,1.4514C15.8815,15,15.5469,15.1292,15.2514,14.8921Z"/>
      <path class="cls-51" d="M16.2027,14.9969l.23-1.3876c.1031-.1929.3359-.0908.47-.2129l.4771.2349,0,1.5929C16.9447,15.374,16.5861,15.1191,16.2027,14.9969Z"/>
      <path class="cls-52" d="M15.04,21.2265c.9331.1176,1.9066-.2589,2.8089.2364l-.94.0007c-.6233.1032-1.3-.2366-1.8789.2357l-.6832-.23C14.507,21.1805,14.79,21.2515,15.04,21.2265Z"/>
      <path class="cls-36" d="M11.9756,35.2951,11.56,36.7119l-.0146-1.4171Z"/>
      <path class="cls-53" d="M19.2832,13.5715l-1.6913.0109A1.6226,1.6226,0,0,1,19.2832,13.5715Z"/>
      <path class="cls-54" d="M26.8557,15.9449,25.519,15.944A1.26,1.26,0,0,1,26.8557,15.9449Z"/>
      <path class="cls-32" d="M22.1,37.9887c.0207-.4227-.1658-.8752.1746-1.252A1.9816,1.9816,0,0,1,22.1,37.9887Z"/>
      <path class="cls-55" d="M16.9023,13.3964q-.2351.1062-.47.2127-.3681-.0169-.7359-.0344A1.9512,1.9512,0,0,1,16.9023,13.3964Z"/>
      <path class="cls-56" d="M16.909,38.3953l-.7049.2383a6.9686,6.9686,0,0,1,2.2107-3.1022c1.5532-1.3986,2.5207-3.3025,4.1094-4.6559.3443-.2934.4289-.7021-.2126-.8265l-.7042-.0006a.9813.9813,0,0,1,.1239-1.0112c.7408-1.1216,1.1336-2.451,1.8973-3.5274.7424-1.0461.7107-2.4388,1.6631-3.3483.2793-.2668.4408-.6543.8012-.8483a.9017.9017,0,0,1,.8748.057c.266.3846.0017.6885-.19.9587-1.4582,2.0569-2.1864,4.528-3.6426,6.5866-.2923.4131-.4375.8694.3514.8944.6074-.0046.9176.2133.3377.7083a47.1083,47.1083,0,0,0-3.2552,3.6792,19.1785,19.1785,0,0,0-2.8223,3.3917A4.2686,4.2686,0,0,1,16.909,38.3953Z"/>
      <path class="cls-57" d="M28.8894,21.4639a41.6642,41.6642,0,0,1-2.9662,5.7368c-.44.7789-.8423,1.58-1.2617,2.3707-.8608-.3011-.2236-1.1119-.1286-1.1895.8476-.6928.5894-2.0315,1.5851-2.6367.3477-.2114-.1744-.824.1876-1.1818-.2322-1.326.6136-2.22,1.245-3.2A2.9405,2.9405,0,0,1,28.8894,21.4639Z"/>
      <path class="cls-58" d="M27.48,21.4636c-.05,1.1665-.9928,1.9846-1.1745,3.1-1.0579.3866-1.0292,1.5538-1.574,2.3124-.5075.7068-.5431,1.7151-1.3439,2.2872-.2209.1577.0311.4318.099.6469-1.2137.1164-.8316-.7455-.5411-1.1581,1.5913-2.2611,2.318-5.02,4.0642-7.1823a.3666.3666,0,0,1,.2346-.1353A.3372.3372,0,0,1,27.48,21.4636Z"/>
      <path class="cls-12" d="M29.1249,21.2235c.1391-.71.7011-.439,1.1069-.4643.568-.0353,1.14-.0017,1.7108.0026.5438.9155,1.4207.26,2.1156.4625l1.41,0,.7041.003c-.4957.4547-1.0984.1435-1.6446.237l-1.409,0-.94,0-1.6445,0v0C30.1025,21.1523,29.5582,21.5241,29.1249,21.2235Z"/>
      <path class="cls-59" d="M19.0231,21.4635l.9395,0c.3624.679-.0549,1.2333-.3326,1.7676-1.3446,2.5872-2.7515,5.14-4.2411,7.645a7.5362,7.5362,0,0,1-.8291,1.5572l-1.6445,1.4306a34.5769,34.5769,0,0,1,2.9493-5.705,2.0143,2.0143,0,0,0,.34-1.2109.7706.7706,0,0,1,.47-.7154C17.5006,24.6652,18.8806,23.3784,19.0231,21.4635Z"/>
      <path class="cls-52" d="M16.674,26.2329l-.47.7154-.4121.6255C15.8022,26.9249,15.7819,26.2537,16.674,26.2329Z"/>
      <path class="cls-20" d="M29.1249,21.2235c.47.0792.9976-.1927,1.4091.24l-1.6446.0006-1.4093,0q-.1173-.0006-.2347-.0007a.1567.1567,0,0,1-.0765-.2089.2173.2173,0,0,1,.2243-.0758Z"/>
      <path class="cls-56" d="M15.7343,39.1107c-.7061.7937-1.0067,1.9579-2.1142,2.3848A3.4717,3.4717,0,0,1,15.7343,39.1107Z"/>
      <path class="cls-60" d="M24.1919,21.4628h.9389c.1866,1.0032-.4651,1.7469-.8841,2.4969-1.1292,2.0216-1.908,4.2433-3.3441,6.0889l-.2351.2387H19.963c-.4737-.4659-.53-.6323-.1576-1.1793,1.39-2.0431,2.2355-4.3786,3.44-6.52C23.49,22.1541,23.6008,21.5985,24.1919,21.4628Z"/>
      <path class="cls-31" d="M20.9026,30.0485c-.0753-.9759.7595-1.5244,1.1032-2.31.936-2.1381,2.2637-4.0886,3.125-6.2761l.0029-.244a.3379.3379,0,0,1,.2805-.0974.8807.8807,0,0,1,.6559.3737c-1.68,2.7474-2.8828,5.7519-4.4627,8.5534Z"/>
      <path class="cls-21" d="M24.1919,21.4628c-.7375,1.43-1.412,2.908-2.21,4.2866-.6278,1.0852-.7409,2.4591-1.81,3.3141-.2988.2389-.7076.72-.2089,1.2238-.2016.386-.7384.09-.94.4765l-.9395,0a1.0071,1.0071,0,0,1,.0682-1.3146c1.6665-2.16,2.5088-4.8021,4.044-7.0342.2639-.3837.4472-.8419.9069-1.0538.3647.0178.7426-.1136,1.089.1013Z"/>
      <path class="cls-47" d="M23.0164,21.4639c-1,1.845-2.0965,3.6447-2.9663,5.5509-.59,1.294-1.9305,2.1726-1.9665,3.7495v.2384l-1.6445.4766c-.1972.0616-.2837-.0279-.288-.2217a1.7274,1.7274,0,0,1,.2453-.91c1.6658-2.8265,2.9712-5.8557,4.72-8.6344a.9706.9706,0,0,1,.3988-.4243A2.5876,2.5876,0,0,1,23.0164,21.4639Z"/>
      <path class="cls-35" d="M21.3722,21.4636c-.6473,1.825-1.8662,3.3534-2.5893,5.138-.6215,1.5338-1.7946,2.7626-2.318,4.349-.0575.1742-.2336.3415-.0258.5287v.2384c-.73-.0417-1.2569.4662-1.8793.7159.5416-2.52,2.4142-4.3459,3.3667-6.638.6155-1.4811,1.7808-2.6869,2.0361-4.3319l1.1749,0A.1516.1516,0,0,1,21.3722,21.4636Z"/>
      <path class="cls-60" d="M21.3722,21.4636q-.1173,0-.2347,0c-.4232-.4289-.957-.1725-1.4387-.2351-.3622-.0471-.8187.12-.91-.4648a12.8607,12.8607,0,0,1,5.4027.7l-1.1753.0009Z"/>
      <path class="cls-54" d="M26.7711,16.66l-1.166.004A.8368.8368,0,0,1,26.7711,16.66Z"/>
      <path class="cls-43" d="M25.3723,21.2651l1.8729-.0311,0,.2289-.2356.0065q-.47.0126-.94.0253C25.8274,21.45,25.551,21.51,25.3723,21.2651Z"/>
    </g>
    <text class="cls-61" transform="translate(54.3413 34.104)">Estacionamento</text>
  </g>
</svg>
