<?xml version="1.0" encoding="utf-8"?>
<!-- Generator: Adobe Illustrator 24.1.0, SVG Export Plug-In . SVG Version: 6.00 Build 0)  -->
<svg version="1.1" id="Camada_1" xmlns="http://www.w3.org/2000/svg" xmlns:xlink="http://www.w3.org/1999/xlink" x="0px" y="0px"
	 viewBox="0 0 210 55" style="enable-background:new 0 0 210 55;" xml:space="preserve">
<style type="text/css">
	.st0{fill:url(#SVGID_1_);}
	.st1{fill:#14C5D7;}
	.st2{fill:#2C94EA;}
	.st3{fill:#01EEC8;}
	.st4{fill:#25A1E4;}
	.st5{fill:#279DE6;}
	.st6{fill:#1AB8DC;}
	.st7{fill:#05E4CB;}
	.st8{fill:#1DB3DD;}
	.st9{fill:#07E0CC;}
	.st10{fill:#1FAFDF;}
	.st11{fill:#21AAE1;}
	.st12{fill:#17C0D9;}
	.st13{fill:#2A99E7;}
	.st14{fill:#10CDD4;}
	.st15{fill:#24A5E3;}
	.st16{fill:#24A6E3;}
	.st17{fill:#03E8CA;}
	.st18{fill:#15C4D7;}
	.st19{fill:#1ABADB;}
	.st20{fill:#0DD2D2;}
	.st21{fill:#27A1E5;}
	.st22{fill:#12C9D5;}
	.st23{fill:#18BCDA;}
	.st24{fill:#09DBCE;}
	.st25{fill:#07E0CD;}
	.st26{fill:#1BB7DC;}
	.st27{fill:#19BBDA;}
	.st28{fill:#0BD7D0;}
	.st29{fill:#02EDC8;}
	.st30{fill:#11CCD4;}
	.st31{fill:#1EB2DE;}
	.st32{fill:#0CD7D0;}
	.st33{fill:#0DD3D2;}
	.st34{fill:#0ADACE;}
	.st35{fill:#07DFCD;}
	.st36{fill:#07E4CB;}
	.st37{fill:#0FCFD3;}
	.st38{fill:#04E7CA;}
	.st39{fill:#03EAC9;}
	.st40{fill:#23B4DE;}
	.st41{fill:#12C8D5;}
	.st42{fill:#1DC3DA;}
	.st43{fill:#1DC7D8;}
	.st44{fill:#23AEE0;}
	.st45{fill:#16C0D9;}
	.st46{fill:#0CD6D0;}
	.st47{fill:#06E1CC;}
	.st48{fill:#2F9FE7;}
	.st49{fill:#0CD5D0;}
	.st50{fill:#16D0D4;}
	.st51{fill:#08E0CD;}
	.st52{fill:#24BDDC;}
	.st53{fill:#32C7DD;}
	.st54{fill:#1ECAD8;}
	.st55{fill:#12CAD5;}
	.st56{fill:#14C4D7;}
	.st57{fill:#13C8D6;}
	.st58{fill:#08DECD;}
	.st59{fill:#10CED3;}
	.st60{fill:#228BD0;}
	.st61{font-family:'ArialRoundedMTBold';}
	.st62{font-size:18px;}
</style>
<g>
	
		<linearGradient id="SVGID_1_" gradientUnits="userSpaceOnUse" x1="0" y1="28.5" x2="210" y2="28.5" gradientTransform="matrix(1 0 0 -1 0 56)">
		<stop  offset="0" style="stop-color:#073E96"/>
		<stop  offset="0.249" style="stop-color:#0F56A0"/>
		<stop  offset="0.7721" style="stop-color:#2293BA"/>
		<stop  offset="1" style="stop-color:#2BB0C6"/>
	</linearGradient>
	<path class="st0" d="M195.2,2.9c6.6,0,11.9,5.3,11.9,11.9v25.3c0,6.6-5.3,11.9-11.9,11.9H14.8c-6.6,0-11.9-5.3-11.9-11.9V14.8
		c0-6.6,5.3-11.9,11.9-11.9H195.2 M195.2,0H14.8C6.6,0,0,6.6,0,14.8v25.3C0,48.4,6.6,55,14.8,55h180.3c8.2,0,14.8-6.6,14.8-14.8
		V14.8C210,6.6,203.4,0,195.2,0z"/>
	<g>
		<path class="st1" d="M11.7,46c-0.5-0.3-0.2-0.8-0.2-1.2c1.1-1.7,2.4-3.3,3.8-4.8c0.5-0.5,1-1.1,1.4-1.8c1.7-2.3,3.8-4.3,5.5-6.6
			c0.3-0.3,0.6-0.6,1-0.9c0.3-0.3,0.6-0.5,0.2-1c-0.2-0.2-0.3-0.6-0.1-0.9c0.9-1.2,1.3-2.7,2.1-3.9c0.2-0.3,0.4-0.7,0.9-0.6
			c0.4,0.5,0.4,1.2-0.1,1.7c-0.6,0.7-0.7,1.7-1.3,2.5c-0.2,0.2-0.1,0.5,0.1,0.7c0,0,0,0,0.1,0c0.2,0.2,0.4,0.4,0.2,0.7
			c-1.1,0.6-2,1.5-2.4,2.7c-0.2,0.4-0.3,0.9-0.5,1.3c-2.5,2.9-4.9,5.8-7.4,8.6C14,44,12.9,45.1,11.7,46z"/>
		<path class="st2" d="M40.9,12.1c0.7,1.3,1,2.7,1.1,4.1c-0.1,1.3,0,2.6-1.2,3.5c-0.9,0.7-2,1.2-3.2,1.5c-0.2,0.1-0.5,0-0.7-0.1
			c-0.1-0.3-0.1-0.6,0.1-0.9c1.1-2.4,2.2-4.8,3.2-7.3C40.3,12.5,40.5,12.2,40.9,12.1z"/>
		<path class="st3" d="M14.5,12.2c-2.5-0.8-3-2.4-1.3-4.4c1-1.3,2.5-2.1,4.1-2.3c0.4,0.4,0.5,0.4,0.3,0.8c-0.9,2-1.6,4-2.7,5.9
			C14.8,12.3,14.6,12.3,14.5,12.2C14.5,12.2,14.5,12.2,14.5,12.2z"/>
		<path class="st4" d="M32.6,20.6c0.8-0.6,0.5-1.6,0.8-2.4c0.2,0,0.3,0.1,0.4-0.2c1.4-3.1,2.7-6.2,3.9-9.3c0.1-0.1,0.2-0.3,0.3-0.4
			c0.4,0.2,0.7,0.6,0.9,1c0.2,0.4,0.2,0.8,0,1.2c-0.6,1.8-1.3,3.5-2.2,5.1c-0.8,1.5-1.2,3.2-2.1,4.6c-0.2,0.4-0.4,0.9-0.8,1.1
			c-0.8,0.1-1.6,0.5-2.1-0.4C31.9,20.4,32.4,20.7,32.6,20.6z"/>
		<path class="st5" d="M34.1,21.2c1-2.1,1.9-4.3,2.9-6.4c0.9-1.8,1.6-3.6,2.1-5.6c0.5,0.4,0.9,0.9,1.1,1.5c0,0.8-0.3,1.6-0.7,2.2
			c-1.2,2.5-2.2,5.1-3.4,7.6c-0.1,0.3-0.3,0.6-0.6,0.8C34.9,21.6,34.4,21.5,34.1,21.2z"/>
		<path class="st6" d="M29.3,15.8c-0.6-0.1-1.1-0.2-1.6-0.5c1.5-1.8,2.1-4.2,3.1-6.3c0.7-1.2,1.2-2.4,1.4-3.7c0.7,0,1.3,0.2,1.9,0.5
			c0.3,0.4,0.1,0.8-0.1,1.2c-1.4,2.6-2.4,5.3-3.7,7.9C30,15.3,30,15.9,29.3,15.8z"/>
		<path class="st7" d="M11.5,33.4V31c1.5-2.9,3-5.7,4.6-8.5c0.2-0.4,0.5-0.8,0.8-1.1c0.3-0.1,0.6-0.2,0.9-0.1c0.2,0,0.4,0.1,0.5,0.2
			c0.3,0.4,0,0.8-0.2,1.1c-1.8,2.9-3.2,6-4.9,9C12.9,32.2,12.6,33.1,11.5,33.4z"/>
		<path class="st8" d="M29.3,15.8c0.8-1.1,1.3-2.2,1.8-3.4c1-2.2,2-4.4,3-6.6c0.4,0.1,0.8,0.2,1.2,0.5c0.1,0.2,0.2,0.4,0.1,0.6
			c-1.4,3-2.7,6.2-4.1,9.2c-0.1,0.2-0.2,0.3-0.4,0.4C30.2,16.3,29.7,16.1,29.3,15.8z"/>
		<path class="st9" d="M11.5,33.4c1.5-1.6,2.2-3.6,3.2-5.5c1.2-2.2,2.3-4.3,3.5-6.4c0.2-0.2,0.5-0.2,0.7-0.1
			c0.3,0.3,0.4,0.8,0.2,1.2c-0.6,1.3-1.4,2.6-2.3,3.8c-0.4,0.1-0.8,0.4-1,0.7c0.2-0.1,0.3-0.2,0.4-0.1c0.2,0.4,0.2,0.9-0.1,1.2
			C15,30,14.1,32,13.1,34c-0.3,0.5-0.5,1.1-1.1,1.5c-0.2,0-0.3,0-0.5-0.1L11.5,33.4z"/>
		<path class="st10" d="M30.8,16.5c0.6-1.4,1.1-2.8,1.8-4.2c0.9-2,1.8-4,2.7-5.9c0.4,0,0.6,0.4,0.9,0.7c0.2,1.3-0.6,2.3-1.1,3.4
			c-0.8,1.8-1.6,3.7-2.3,5.5c-0.2,0.5-0.3,1.1-1,1.1C31.4,16.9,31,16.7,30.8,16.5z"/>
		<path class="st11" d="M31.7,16.9c1-0.8,1.1-2.1,1.5-3.1c0.9-2.3,2.1-4.5,2.9-6.9c0.5,0.1,0.9,0.3,1.2,0.7c0.4,0.5,0.1,1-0.2,1.4
			c-1.3,2.4-2.4,4.8-3.3,7.3c-0.2,0.5-0.4,1.3-1.3,1.1L31.7,16.9z"/>
		<path class="st12" d="M25.1,30c0-0.2-0.2-0.4-0.4-0.5c0,0-0.1,0-0.1,0c0-0.9,0.4-1.7,0.9-2.4c1.3-1.9,1.9-4.1,3.3-5.9
			c0.4-0.2,1-0.3,1.4-0.1c0.1,0,0.2,0.1,0.3,0.2c0.1,0.4,0,0.8-0.2,1.1c-1.1,2.4-2.4,4.7-3.9,6.9L25.1,30z"/>
		<path class="st13" d="M35.5,21.2c1.4-3.6,3-7,4.7-10.5c0.4,0.4,0.6,0.9,0.7,1.4c-0.9,2.1-1.9,4.1-2.8,6.2
			c-0.4,0.9-0.8,1.8-1.2,2.7c0.1,0.3-0.2,0.4-0.4,0.5c-0.1,0-0.2,0-0.4,0C35.9,21.5,35.6,21.4,35.5,21.2z"/>
		<path class="st14" d="M11.5,43.6V42c1.8-1.7,3.2-3.8,4.9-5.7c1.2-1.5,2.5-2.9,3.7-4.4c0.6-0.8,1.3-1.4,2.2-1.9
			c0.9,0.1,0.8,0.7,0.4,1.1c-1.4,1.4-2.4,3.1-3.8,4.4c-1,0.9-1.8,2-2.5,3.1c-0.2,0.2-0.4,0.4-0.6,0.6c-0.9,0.6-1.6,1.4-2.1,2.4
			c-0.4,0.6-0.9,1.2-1.4,1.7C12.2,43.5,12,43.9,11.5,43.6z"/>
		<path class="st12" d="M11.7,46c1-1.2,2-2.5,3.1-3.7c2.3-2.5,4.5-5.1,6.6-7.7c0.2-0.3,0.4-0.5,0.9-0.5l0,1.2
			c-1.1,1.5-2.3,3-3.6,4.4c-1.6,1.9-3.3,3.7-4.8,5.7c-0.5,0.6-1.1,0.5-1.7,0.6L11.7,46z"/>
		<path class="st11" d="M36.4,21.2c0.2,0,0.4-0.1,0.5-0.2l0.7,0c0.6,0.1,0.7,0.3,0.5,1c-0.2,0.7-0.7,1.2-1,1.8
			c-0.7,1.2-1.2,2.4-1.7,3.7c-0.1,0.4-0.4,0.5-0.6,0.8c-0.7,0.4-1.5,0.7-2.3,0.7c-0.1-0.3-0.1-0.6,0.1-0.9
			C33.8,25.9,34.8,23.3,36.4,21.2z"/>
		<path class="st15" d="M34.8,28.3c0.6-1.7,1.3-3.3,2.1-4.9c0.2-0.4,0.6-0.6,0.8-1c0.2-0.5,0.7-1,0-1.5l3.1-1.4
			c0.4,0.6-0.1,1-0.3,1.4c-1.1,2-2.1,4-3.2,6C36.4,27.6,35.6,28,34.8,28.3z"/>
		<path class="st16" d="M32.6,17.4c0.3-0.2,0.6-0.2,0.7-0.6c0.4-1.7,1.6-3.1,1.9-4.8c0.2-1.1,1.1-1.8,1.5-2.8c0.2-0.5,0.6-1,0.6-1.6
			c0.3,0.1,0.6,0.3,0.7,0.6c-0.2,1.6-1.1,2.8-1.6,4.3c-0.6,1.8-1.6,3.5-2.3,5.2c-0.1,0.3-0.2,1.1-0.8,0.3L32.6,17.4z"/>
		<path class="st17" d="M16.9,21.5c-0.6,1.4-1.4,2.8-2.2,4.1c-0.8,1.3-1.4,2.6-2,4c-0.2,0.6-0.6,1.1-1.1,1.4v-2.6
			c0.7-1.5,1.5-3,2.4-4.5c0.4-0.8,0.8-1.6,1.1-2.5C15.6,21.1,16.3,21.1,16.9,21.5z"/>
		<path class="st18" d="M26.1,15c-0.5,0.1-0.9-0.1-1.2-0.5c0.2-1.2,0.6-2.4,1.3-3.3c0.3-0.3,0.4-0.7,0.5-1.2c0.6-1.7,1.3-3.4,2.2-5
			l1.2,0c0.6,0.3,0.4,0.7,0.2,1.1c-1.2,2.8-2.4,5.5-3.7,8.2C26.5,14.7,26.3,14.9,26.1,15z"/>
		<path class="st12" d="M26.1,15c0.9-2,1.8-4,2.7-6c0.5-1,0.9-2.1,1.4-3.1c0.2-0.3,0.2-0.6,0-0.9c0.5-0.1,1,0,1.4,0.2
			c0.3,1.3-0.4,2.3-0.9,3.3c-1.2,2-1.9,4.3-2.8,6.4c-0.1,0.1-0.2,0.3-0.3,0.4C27,15.2,26.5,15.4,26.1,15z"/>
		<path class="st19" d="M26.5,29.6c0.1-1,0.9-1.8,1.3-2.7c0.8-1.8,2.1-3.4,2.7-5.4c0.4-0.4,1-0.4,1.5-0.1c0.4,0.2,0.3,0.5,0.2,0.8
			c-0.9,1.9-1.8,3.7-2.9,5.4c-0.4,0.6-0.4,1.4-1.1,1.8C27.7,29.5,27.1,29.6,26.5,29.6z"/>
		<path class="st20" d="M22.3,30c-1.9,2-3.8,4.1-5.6,6.3c-1.4,1.7-2.7,3.4-4.1,5c-0.3,0.3-0.7,0.5-1.1,0.6v-1.2
			c0.1-0.3,0.3-0.6,0.5-0.8c2.2-2.3,4.3-4.7,6.2-7.2c0.7-0.9,1.5-1.7,2.2-2.6c0.1-0.1,0.2-0.3,0.4-0.3c0.2-0.1,0.5-0.1,0.7-0.1
			C21.9,29.8,22.1,29.9,22.3,30z"/>
		<path class="st10" d="M36.4,21.2c-0.3,1.3-1.3,2.4-1.8,3.6c-0.7,1.4-1.6,2.8-2.2,4.3c-0.5,0.2-1.1,0.3-1.6,0.2c0-1,0.7-1.8,1-2.7
			c0.6-1.8,2-3.1,2.5-4.9c0.1-0.2,0.2-0.3,0.3-0.3c0.5-0.1,1.1,0.1,1.6-0.1C36.2,21.2,36.3,21.2,36.4,21.2z"/>
		<path class="st21" d="M37.1,26.9c-0.3-0.7,0.2-1.1,0.5-1.6c1-1.9,2-3.9,3-5.8c0.8-0.9,1.3-2.1,1.3-3.3
			C42.4,20.4,40.6,24.5,37.1,26.9z"/>
		<path class="st22" d="M28.9,5c0.2,1.5-1,2.4-1.3,3.7c-0.5,2-1.9,3.6-2.4,5.5c0,0.1-0.2,0.2-0.3,0.4l-1.2-0.7
			c1.1-2.7,2.5-5.2,3.6-7.9c0.1-0.4,0.4-0.7,0.7-0.9L28.9,5z"/>
		<path class="st23" d="M27.5,15.3c-0.1-1.3,0.8-2.3,1.2-3.4c0.5-1.4,1.2-2.7,1.9-4C31,7,31.3,6.1,31.5,5.2l0.7,0.1
			c0.5,0.3,0.3,0.7,0.1,1.1c-1.1,2.5-2.1,5-3.3,7.5c-0.3,0.6-0.4,1.4-1.3,1.4L27.5,15.3L27.5,15.3z"/>
		<path class="st24" d="M21.8,5h1.6c0.3,0.8-0.2,1.5-0.5,2.1c-0.8,1.7-1.7,3.4-2.4,5.1c-0.1,0.2-0.2,0.4-0.4,0.6
			c-0.5,0.1-1,0-1.4-0.2c-0.1-0.7,0-1.4,0.4-1.9C20.2,8.9,21.1,7,21.8,5z"/>
		<path class="st25" d="M21.8,5c0.3,0.8-0.3,1.4-0.6,2.1c-0.8,1.9-1.9,3.6-2.5,5.5c-1,0.1-1.9,0-2.9-0.2c0.2-0.2,0.4-0.3,0.6-0.3
			c0.7,0,0.9-0.4,1.2-1c0.6-1.6,1.4-3,2-4.6c0.2-0.6,0.5-1.1,0.9-1.5L21.8,5z"/>
		<path class="st26" d="M15.5,45.6c-0.4,0.2-0.9,0.3-1.4,0.2c-0.4-0.6,0.2-1,0.5-1.3c2.5-2.4,4.4-5.1,6.7-7.6
			c0.2-0.3,0.4-0.7,0.9-0.4l0,0.2c-0.2,0.4,0,0.9-0.2,1.3c0,0,0,0.1,0,0.2c-1.6,2.4-3.8,4.3-5.5,6.6C16.3,45.2,15.8,45.3,15.5,45.6z
			"/>
		<path class="st8" d="M34.5,21.5c-0.1,1.1-0.6,2.1-1.3,2.9c-0.2,0.2-0.5,0.4-0.5,0.8c-0.2,1.6-1.5,2.7-1.9,4.2l-1.4,0
			c0.3-2.1,1.6-3.8,2.6-5.5c0.4-0.8,0.5-1.8,1.3-2.4C33.7,21.4,34.1,21.2,34.5,21.5z"/>
		<path class="st27" d="M22.3,36.5c-1,0.3-1.2,1.3-1.9,2c-1.5,1.6-2.9,3.2-4.2,4.9c-0.7,0.8-1.8,1.2-2.1,2.4
			c-0.6,0.2-1.2,0.2-1.9,0.2c1.8-0.4,2.4-2.1,3.5-3.3c2.3-2.4,4.2-5.1,6.6-7.4L22.3,36.5z"/>
		<path class="st28" d="M20.7,30.3c0,0.9-0.8,1.3-1.2,1.7c-1.7,1.5-2.8,3.5-4.4,5.1c-1.2,1.2-2.2,2.6-3.5,3.8v-0.9
			c0.5-0.9,1.1-1.6,1.8-2.3c1.5-1.5,2.6-3.3,4.1-4.7c0.7-0.6,1.2-1.4,1.5-2.2c0.3-0.4,0.7-0.4,1.1-0.5C20.3,30,20.5,30.1,20.7,30.3z
			"/>
		<path class="st29" d="M15,21.7c0.1,1.3-0.8,2.2-1.3,3.1c-0.7,1.2-1.1,2.6-2.1,3.5c-0.2-2.8,0.3-5.3,2.8-6.9
			C14.7,21.2,14.9,21.5,15,21.7z"/>
		<path class="st30" d="M28,5c-1,2.5-2.1,4.9-3.4,7.2c-0.3,0.5,0,1.4-0.9,1.6c-0.2-0.1-0.5,0-0.6-0.2c-0.1-0.2-0.2-0.5,0-0.7
			c1.2-2.5,2.2-5.1,3.4-7.7c0.1-0.1,0.1-0.2,0.2-0.3L28,5z"/>
		<path class="st31" d="M15.5,45.6c1.7-2.1,3.5-4.3,5.4-6.2c0.4-0.4,0.4-1.2,1.2-1.2c0,0.6,0,1.1-0.3,1.7c-1.1,1.7-2.4,3.4-3.7,4.9
			C17.3,45.2,16.4,45.5,15.5,45.6z"/>
		<path class="st32" d="M20.2,12.9c0.6-1.9,1.4-3.7,2.4-5.4c0.4-0.8,0.6-1.6,0.9-2.4h1.2c0.3,0.3,0.3,0.7,0,1
			c-1.2,1.8-1.3,4.1-2.7,5.8c-0.3,0.4-0.1,0.9-0.4,1.3L20.2,12.9z"/>
		<path class="st26" d="M33.1,21.5c0,1.5-1.1,2.4-1.6,3.6c-0.7,1.4-1.4,2.8-2.1,4.2h-1.2c0.8-1.7,1.6-3.4,2.6-5.1
			c0.5-0.9,0.9-1.9,1.4-2.8C32.5,21.3,32.8,21.3,33.1,21.5z"/>
		<path class="st33" d="M21.6,13.2c-0.3-0.5-0.3-1.1,0.1-1.6c1.3-1.4,1.4-3.3,2.2-4.9c0.2-0.5,1-0.8,0.7-1.6h1.4
			c0.1,0.1,0.2,0.2,0.1,0.3c-1.3,2.4-2.2,4.9-3.5,7.3C22.5,13.1,22.1,13.4,21.6,13.2L21.6,13.2z"/>
		<path class="st34" d="M19,30.8c0.4,0.6-0.3,0.9-0.5,1.1c-2.2,2.7-4.5,5.3-6.8,7.9c0,0-0.1,0-0.2,0.1v-1.2c1.2-1.7,2.6-3.3,4-4.9
			c0.9-0.9,1.7-1.8,2.4-2.9c0.1-0.1,0.2-0.2,0.3-0.2C18.5,30.5,18.8,30.5,19,30.8z"/>
		<path class="st35" d="M18.1,31c-0.3,1.3-1.5,1.8-2.2,2.8c-1,1.3-2.2,2.4-3.2,3.7c-0.3,0.4-0.7,0.8-1.2,1.1v-1.2
			c1.2-2.2,3.2-3.8,4.7-5.9c0.1-0.1,0.1-0.2,0.2-0.3C16.9,30.9,17.5,30.8,18.1,31z"/>
		<path class="st36" d="M20.7,5c-1,2.3-2,4.6-2.9,6.9c-0.2,0.5-0.6,0.5-1.1,0.5c-0.4-0.5-0.2-1,0-1.4c0.8-1.7,1.6-3.5,2.4-5.3
			c0.2-0.4-0.4-0.2-0.3-0.5C19.3,5,20,4.9,20.7,5z"/>
		<path class="st37" d="M21.6,13.1c1,0,1.3-1,1.5-1.6c0.8-2.2,1.8-4.4,3-6.5h0.5c-0.4,1.7-1,3.4-1.9,4.9c-0.5,1.3-1,2.5-1.7,3.7
			L21.6,13.1z"/>
		<path class="st38" d="M18.7,5.2c0.8,0,0.7,0.4,0.5,0.9c-0.7,1.6-1.4,3.2-2.1,4.8c-0.3,0.4-0.4,1-0.4,1.5c-0.3,0-0.5,0-0.8,0
			c-0.5,0.1-1,0-1.4-0.3l0.3,0c1.2-1.1,1.5-2.6,2.2-4c0.5-1,1-1.9,1.5-2.9C18.6,5.2,18.7,5.2,18.7,5.2C18.7,5.2,18.7,5.2,18.7,5.2z"
			/>
		<path class="st7" d="M16.4,31.7c-1.2,1.5-2.5,3-3.8,4.4c-0.4,0.4-0.3,1.3-1.1,1.4l0-0.7c0.1-0.5,0-1,0.4-1.4l0.9-1.4
			c0.4-0.6,1-1.2,1.6-1.7C15.1,31.9,15.6,31.2,16.4,31.7z"/>
		<path class="st39" d="M18.6,5.2c0.2,1.1-0.7,1.6-1.1,2.5c-0.5,1.2-1,2.4-1.6,3.6c-0.2,0.5-0.6,0.8-1.1,0.8
			c0.8-2.1,1.6-4.1,2.6-6.1c0.1-0.3,0.2-0.4-0.1-0.6C17.7,5.2,18.1,5.1,18.6,5.2z"/>
		<path class="st40" d="M32.6,20.6c-0.2,0.2-0.4,0.2-0.7,0.2c-0.8,0.7-1.9,0-2.8,0.5c-0.5,0.2-1,0.3-1.5,0.1c-0.4-0.2-0.2-0.6,0-0.8
			c1-1.2,0.7-2.3-0.2-3.4c-0.1-0.1-0.1-0.2-0.1-0.3c-0.1-0.2,0-0.5,0.2-0.7c1.5,1,2,2,1.7,3.6c-0.1,0.6,0,0.7,0.5,0.7
			C30.7,20.5,31.7,20.6,32.6,20.6z"/>
		<path class="st41" d="M15.7,39.1c0.1-0.2,0.3-0.4,0.5-0.5c0.2-0.2,0.4-0.4,0.7-0.2c-0.2,1.1-1.3,1.6-1.9,2.4c-1,1.4-2.2,2.8-3.4,4
			l0-1.2c1-0.5,1.2-1.6,2.1-2.1C14.2,40.6,14.9,39.8,15.7,39.1z"/>
		<path class="st42" d="M16.6,20.7c1.9-0.4,3.9-0.1,5.8-0.2c0.5,0,1,0.1,0.8-0.7c-0.1-0.4-0.3-0.9,0.1-1c0.5-0.2,0.6,0.3,0.7,0.6
			c0.3,0.7,0.9,1.1,1.2,1.7c0,0.1,0,0.2-0.1,0.3c-0.3,0.2-0.6,0.2-0.9,0.1c-0.1,0-0.3,0-0.4-0.1c-1.7-0.4-3.5-0.6-5.2-0.5
			C18,21,17.2,21.3,16.6,20.7z"/>
		<path class="st43" d="M23.9,19.8L23.6,19c-0.5,0.2-0.2,0.6-0.3,0.9c-0.6-1.5,0.2-3.2,1.8-3.8c0.2-0.1,0.3-0.1,0.5-0.1
			c0.4-0.1,0.9-0.1,1.3,0c0.3-0.1,0.4,0.2,0.6,0.3l0,0.7c-0.3,0.1-0.5,0-0.8-0.1c-0.4-0.2-0.8-0.1-1.1,0.1c-0.8,0.4-1.4,1.3-1.4,2.2
			C24.2,19.4,24.1,19.7,23.9,19.8z"/>
		<path class="st44" d="M18.1,44.8c-0.1-0.9,0.8-1.3,1.2-1.8c0.7-1.1,1.6-2.2,2.6-3.1C21.4,42,20,43.8,18.1,44.8z"/>
		<path class="st31" d="M20.4,15.5l-1.6-0.1c-0.4-0.6-0.3-1.4,0.3-1.8c0.1,0,0.1-0.1,0.2-0.1c0.6-0.1,1.1,0.3,1.6,0.3
			C21.3,14.6,20.8,15,20.4,15.5z"/>
		<path class="st45" d="M19.3,13.6c-0.3,0.6-0.5,1.2-0.5,1.9l-1.4-0.2c-0.4-0.5-0.4-1.1,0-1.6c0.1,0,0.1,0,0.2,0
			C18.1,13.4,18.7,13.4,19.3,13.6L19.3,13.6z"/>
		<path class="st46" d="M16.6,20.7l2.2,0c0.5,0.4,1,0.2,1.5,0.2c0.3,0,0.8-0.1,0.8,0.5c-0.3,0.2-0.8,0.3-1.2,0.3
			c-0.3,0-0.7-0.1-1-0.3h-0.7l-0.5,0c-0.9-0.3-1.9,0.1-2.8-0.2C15.5,20.9,16.1,20.7,16.6,20.7z"/>
		<path class="st4" d="M20.4,15.5c-0.1-0.6,0.6-1,0.5-1.7l1.4,0.5c0.4,1.1,0.3,1.3-0.8,1.3c-0.3,0-0.6,0-0.9-0.1L20.4,15.5
			L20.4,15.5z"/>
		<path class="st47" d="M15.3,14.9c-1.1-0.1-2.2-0.3-3.2-0.7c1-0.3,2-0.5,3-0.6C15.4,13.9,15.5,14.5,15.3,14.9z"/>
		<path class="st48" d="M20.6,15.5c0.7-0.1,2,0.4,1.7-1.2c0.7,0.2,1.3,0.6,1.9,1C22.8,15.5,21.7,16,20.6,15.5z"/>
		<path class="st49" d="M15.3,14.9c-0.2-0.4-0.2-0.8-0.2-1.3l0.7-0.1c0.2-0.1,0.5-0.1,0.8,0c0.4,0.6,0.1,1-0.3,1.5
			C15.9,15,15.5,15.1,15.3,14.9z"/>
		<path class="st50" d="M16.2,15l0.2-1.4c0.1-0.2,0.3-0.1,0.5-0.2l0.5,0.2v1.6C16.9,15.4,16.6,15.1,16.2,15z"/>
		<path class="st51" d="M15,21.2c0.9,0.1,1.9-0.3,2.8,0.2l-0.9,0c-0.6,0.1-1.3-0.2-1.9,0.2l-0.7-0.2C14.5,21.2,14.8,21.3,15,21.2z"
			/>
		<path class="st35" d="M12,35.3l-0.4,1.4l0-1.4L12,35.3z"/>
		<path class="st52" d="M19.3,13.6l-1.7,0C18.1,13.3,18.8,13.3,19.3,13.6z"/>
		<path class="st53" d="M26.9,15.9l-1.3,0C25.9,15.7,26.4,15.7,26.9,15.9z"/>
		<path class="st31" d="M22.1,38c0-0.4-0.2-0.9,0.2-1.3C22.4,37.2,22.3,37.6,22.1,38z"/>
		<path class="st54" d="M16.9,13.4c-0.2,0.1-0.3,0.1-0.5,0.2c-0.2,0-0.5,0-0.7,0C16.1,13.4,16.5,13.3,16.9,13.4z"/>
		<path class="st55" d="M16.9,38.4l-0.7,0.2c0.4-1.2,1.2-2.3,2.2-3.1c1.6-1.4,2.5-3.3,4.1-4.7c0.3-0.3,0.4-0.7-0.2-0.8l-0.7,0
			c-0.2-0.3-0.1-0.7,0.1-1c0.7-1.1,1.1-2.5,1.9-3.5c0.7-1,0.7-2.4,1.7-3.3c0.3-0.3,0.4-0.7,0.8-0.8c0.3-0.1,0.6-0.1,0.9,0.1
			c0.3,0.4,0,0.7-0.2,1c-1.5,2.1-2.2,4.5-3.6,6.6c-0.3,0.4-0.4,0.9,0.4,0.9c0.6,0,0.9,0.2,0.3,0.7c-1.1,1.2-2.2,2.4-3.3,3.7
			c-1.1,1-2,2.2-2.8,3.4C17.5,37.9,17.2,38.2,16.9,38.4z"/>
		<path class="st56" d="M28.9,21.5c-0.8,2-1.8,3.9-3,5.7c-0.4,0.8-0.8,1.6-1.3,2.4c-0.9-0.3-0.2-1.1-0.1-1.2c0.8-0.7,0.6-2,1.6-2.6
			c0.3-0.2-0.2-0.8,0.2-1.2c-0.2-1.3,0.6-2.2,1.2-3.2C28,21.3,28.5,21.3,28.9,21.5z"/>
		<path class="st57" d="M27.5,21.5c0,1.2-1,2-1.2,3.1c-1.1,0.4-1,1.6-1.6,2.3c-0.5,0.7-0.5,1.7-1.3,2.3c-0.2,0.2,0,0.4,0.1,0.6
			c-1.2,0.1-0.8-0.7-0.5-1.2c1.6-2.3,2.3-5,4.1-7.2c0.1-0.1,0.1-0.1,0.2-0.1C27.3,21.3,27.4,21.4,27.5,21.5z"/>
		<path class="st11" d="M29.1,21.2c0.1-0.7,0.7-0.4,1.1-0.5c0.6,0,1.1,0,1.7,0c0.5,0.9,1.4,0.3,2.1,0.5h1.4l0.7,0
			c-0.5,0.5-1.1,0.1-1.6,0.2h-1.4h-0.9h-1.6l0,0C30.1,21.2,29.6,21.5,29.1,21.2z"/>
		<path class="st58" d="M19,21.5H20c0.4,0.7-0.1,1.2-0.3,1.8c-1.3,2.6-2.8,5.1-4.2,7.6c-0.2,0.5-0.5,1.1-0.8,1.6l-1.6,1.4
			c0.8-2,1.8-3.9,2.9-5.7c0.2-0.4,0.4-0.8,0.3-1.2c0-0.3,0.2-0.6,0.5-0.7C17.5,24.7,18.9,23.4,19,21.5z"/>
		<path class="st51" d="M16.7,26.2l-0.5,0.7l-0.4,0.6C15.8,26.9,15.8,26.3,16.7,26.2z"/>
		<path class="st19" d="M29.1,21.2c0.5,0.1,1-0.2,1.4,0.2l-1.6,0h-1.4c-0.1,0-0.2,0-0.2,0c-0.1,0-0.1-0.1-0.1-0.2c0,0,0,0,0,0
			c0.1-0.1,0.1-0.1,0.2-0.1L29.1,21.2z"/>
		<path class="st55" d="M15.7,39.1c-0.7,0.8-1,2-2.1,2.4C13.9,40.4,14.7,39.5,15.7,39.1z"/>
		<path class="st59" d="M24.2,21.5h0.9c0.2,1-0.5,1.7-0.9,2.5c-1.1,2-1.9,4.2-3.3,6.1l-0.2,0.2H20c-0.5-0.5-0.5-0.6-0.2-1.2
			c1.4-2,2.2-4.4,3.4-6.5C23.5,22.2,23.6,21.6,24.2,21.5z"/>
		<path class="st30" d="M20.9,30c-0.1-1,0.8-1.5,1.1-2.3c0.9-2.1,2.3-4.1,3.1-6.3l0-0.2c0.1-0.1,0.2-0.1,0.3-0.1
			c0.3,0,0.5,0.2,0.7,0.4c-1.7,2.7-2.9,5.8-4.5,8.6L20.9,30z"/>
		<path class="st20" d="M24.2,21.5c-0.7,1.4-1.4,2.9-2.2,4.3c-0.6,1.1-0.7,2.5-1.8,3.3c-0.3,0.2-0.7,0.7-0.2,1.2
			c-0.2,0.4-0.7,0.1-0.9,0.5h-0.9c-0.3-0.4-0.3-1,0.1-1.3c1.7-2.2,2.5-4.8,4-7c0.3-0.4,0.4-0.8,0.9-1.1
			C23.5,21.4,23.8,21.2,24.2,21.5L24.2,21.5z"/>
		<path class="st46" d="M23,21.5c-1,1.8-2.1,3.6-3,5.6c-0.6,1.3-1.9,2.2-2,3.7V31l-1.6,0.5c-0.2,0.1-0.3,0-0.3-0.2
			c0-0.3,0.1-0.6,0.2-0.9c1.7-2.8,3-5.9,4.7-8.6c0.1-0.2,0.2-0.3,0.4-0.4C22,21.2,22.5,21.3,23,21.5z"/>
		<path class="st34" d="M21.4,21.5c-0.6,1.8-1.9,3.4-2.6,5.1c-0.6,1.5-1.8,2.8-2.3,4.3c-0.1,0.2-0.2,0.3,0,0.5v0.2
			c-0.7,0-1.3,0.5-1.9,0.7c0.5-2.5,2.4-4.3,3.4-6.6c0.6-1.5,1.8-2.7,2-4.3h1.2C21.2,21.4,21.3,21.4,21.4,21.5
			C21.4,21.4,21.4,21.5,21.4,21.5z"/>
		<path class="st59" d="M21.4,21.5c-0.1,0-0.2,0-0.2,0c-0.4-0.4-1-0.2-1.4-0.2c-0.4,0-0.8,0.1-0.9-0.5c1.8-0.2,3.7,0.1,5.4,0.7
			l-1.2,0L21.4,21.5z"/>
		<path class="st53" d="M26.8,16.7l-1.2,0C25.9,16.3,26.4,16.3,26.8,16.7z"/>
		<path class="st42" d="M25.4,21.3l1.9,0v0.2l-0.2,0c-0.3,0-0.6,0-0.9,0C25.8,21.5,25.6,21.5,25.4,21.3z"/>
	</g>
	<text transform="matrix(1 0 0 1 75.603 35.1838)" class="st60 st61 st62">Empresa</text>
</g>
</svg>
