<svg id="Camada_1" data-name="Camada 1" xmlns="http://www.w3.org/2000/svg" xmlns:xlink="http://www.w3.org/1999/xlink" viewBox="0 0 240 211.988">
  <defs>
    <style>
      .cls-1 {
        fill: #14c5d7;
      }

      .cls-2 {
        fill: #2c94ea;
      }

      .cls-3 {
        fill: #01eec8;
      }

      .cls-4 {
        fill: #25a1e4;
      }

      .cls-5 {
        fill: #279de6;
      }

      .cls-6 {
        fill: #1ab8dc;
      }

      .cls-7 {
        fill: #05e4cb;
      }

      .cls-8 {
        fill: #1db3dd;
      }

      .cls-9 {
        fill: #07e0cc;
      }

      .cls-10 {
        fill: #1fafdf;
      }

      .cls-11 {
        fill: #21aae1;
      }

      .cls-12 {
        fill: #17c0d9;
      }

      .cls-13 {
        fill: #2a99e7;
      }

      .cls-14 {
        fill: #10cdd4;
      }

      .cls-15 {
        fill: #24a5e3;
      }

      .cls-16 {
        fill: #24a6e3;
      }

      .cls-17 {
        fill: #03e8ca;
      }

      .cls-18 {
        fill: #15c4d7;
      }

      .cls-19 {
        fill: #1abadb;
      }

      .cls-20 {
        fill: #0dd2d2;
      }

      .cls-21 {
        fill: #27a1e5;
      }

      .cls-22 {
        fill: #12c9d5;
      }

      .cls-23 {
        fill: #18bcda;
      }

      .cls-24 {
        fill: #09dbce;
      }

      .cls-25 {
        fill: #07e0cd;
      }

      .cls-26 {
        fill: #1bb7dc;
      }

      .cls-27 {
        fill: #19bbda;
      }

      .cls-28 {
        fill: #0bd7d0;
      }

      .cls-29 {
        fill: #02edc8;
      }

      .cls-30 {
        fill: #11ccd4;
      }

      .cls-31 {
        fill: #1eb2de;
      }

      .cls-32 {
        fill: #0cd7d0;
      }

      .cls-33 {
        fill: #0dd3d2;
      }

      .cls-34 {
        fill: #0adace;
      }

      .cls-35 {
        fill: #07dfcd;
      }

      .cls-36 {
        fill: #07e4cb;
      }

      .cls-37 {
        fill: #0fcfd3;
      }

      .cls-38 {
        fill: #04e7ca;
      }

      .cls-39 {
        fill: #03eac9;
      }

      .cls-40 {
        fill: #23b4de;
      }

      .cls-41 {
        fill: #12c8d5;
      }

      .cls-42 {
        fill: #1dc3da;
      }

      .cls-43 {
        fill: #1dc7d8;
      }

      .cls-44 {
        fill: #23aee0;
      }

      .cls-45 {
        fill: #16c0d9;
      }

      .cls-46 {
        fill: #0cd6d0;
      }

      .cls-47 {
        fill: #06e1cc;
      }

      .cls-48 {
        fill: #2f9fe7;
      }

      .cls-49 {
        fill: #0cd5d0;
      }

      .cls-50 {
        fill: #16d0d4;
      }

      .cls-51 {
        fill: #08e0cd;
      }

      .cls-52 {
        fill: #24bddc;
      }

      .cls-53 {
        fill: #32c7dd;
      }

      .cls-54 {
        fill: #1ecad8;
      }

      .cls-55 {
        fill: #12cad5;
      }

      .cls-56 {
        fill: #14c4d7;
      }

      .cls-57 {
        fill: #13c8d6;
      }

      .cls-58 {
        fill: #08decd;
      }

      .cls-59 {
        fill: #10ced3;
      }

      .cls-60 {
        opacity: 0.84;
      }

      .cls-61 {
        fill: url(#Nova_amostra_de_gradiente_1);
      }

      .cls-62 {
        fill: url(#Gradiente_sem_nome_22);
      }

      .cls-63 {
        fill: url(#Gradiente_sem_nome_22-2);
      }

      .cls-64 {
        fill: url(#Nova_amostra_de_gradiente_1-2);
      }

      .cls-65 {
        fill: url(#Gradiente_sem_nome_3);
      }

      .cls-66 {
        fill: url(#Gradiente_sem_nome_3-2);
      }

      .cls-67 {
        fill: url(#Nova_amostra_de_gradiente_1-3);
      }

      .cls-68 {
        fill: url(#Gradiente_sem_nome_22-3);
      }

      .cls-69 {
        fill: url(#Gradiente_sem_nome_22-4);
      }

      .cls-70 {
        fill: url(#Gradiente_sem_nome_22-5);
      }

      .cls-71 {
        fill: url(#Nova_amostra_de_gradiente_1-4);
      }

      .cls-72 {
        fill: url(#Gradiente_sem_nome_22-6);
      }

      .cls-73 {
        fill: url(#Gradiente_sem_nome_22-7);
      }

      .cls-74 {
        fill: url(#Gradiente_sem_nome_22-8);
      }

      .cls-75 {
        fill: url(#Nova_amostra_de_gradiente_1-5);
      }

      .cls-76 {
        fill: url(#Gradiente_sem_nome_22-9);
      }

      .cls-77 {
        fill: url(#Gradiente_sem_nome_22-10);
      }

      .cls-78 {
        fill: url(#Nova_amostra_de_gradiente_1-6);
      }

      .cls-79 {
        fill: url(#Gradiente_sem_nome_3-3);
      }

      .cls-80 {
        fill: url(#Gradiente_sem_nome_3-4);
      }

      .cls-81 {
        fill: url(#Nova_amostra_de_gradiente_1-7);
      }

      .cls-82 {
        fill: url(#Gradiente_sem_nome_22-11);
      }

      .cls-83 {
        fill: url(#Nova_amostra_de_gradiente_1-8);
      }

      .cls-84 {
        fill: url(#Gradiente_sem_nome_22-12);
      }

      .cls-85 {
        fill: url(#Gradiente_sem_nome_22-13);
      }

      .cls-86 {
        fill: url(#Nova_amostra_de_gradiente_1-9);
      }

      .cls-87 {
        fill: url(#Gradiente_sem_nome_22-14);
      }
    </style>
    <linearGradient id="Nova_amostra_de_gradiente_1" data-name="Nova amostra de gradiente 1" x1="16.4181" y1="253.9817" x2="34.3795" y2="273.6813" gradientUnits="userSpaceOnUse">
      <stop offset="0" stop-color="#00efa9"/>
      <stop offset="1" stop-color="#3f56f0"/>
    </linearGradient>
    <linearGradient id="Gradiente_sem_nome_22" data-name="Gradiente sem nome 22" x1="3.2678" y1="201.3146" x2="8.5523" y2="201.5017" gradientUnits="userSpaceOnUse">
      <stop offset="0"/>
      <stop offset="1" stop-opacity="0"/>
    </linearGradient>
    <linearGradient id="Gradiente_sem_nome_22-2" x1="19.5309" y1="259.8579" x2="27.7421" y2="259.6433" xlink:href="#Gradiente_sem_nome_22"/>
    <linearGradient id="Nova_amostra_de_gradiente_1-2" x1="43.7347" y1="253.326" x2="59.9021" y2="274.361" xlink:href="#Nova_amostra_de_gradiente_1"/>
    <linearGradient id="Gradiente_sem_nome_3" data-name="Gradiente sem nome 3" x1="31.2792" y1="205.8162" x2="35.1375" y2="205.7447" xlink:href="#Gradiente_sem_nome_22"/>
    <linearGradient id="Gradiente_sem_nome_3-2" data-name="Gradiente sem nome 3" x1="52.7313" y1="254.2976" x2="59.0603" y2="262.0872" xlink:href="#Gradiente_sem_nome_22"/>
    <linearGradient id="Nova_amostra_de_gradiente_1-3" x1="72.3097" y1="253.3904" x2="87.3505" y2="272.5163" xlink:href="#Nova_amostra_de_gradiente_1"/>
    <linearGradient id="Gradiente_sem_nome_22-3" x1="59.0492" y1="202.0671" x2="62.5232" y2="202.0671" xlink:href="#Gradiente_sem_nome_22"/>
    <linearGradient id="Gradiente_sem_nome_22-4" x1="74.5938" y1="255.8125" x2="82.345" y2="255.6098" xlink:href="#Gradiente_sem_nome_22"/>
    <linearGradient id="Gradiente_sem_nome_22-5" x1="80.8889" y1="266.0386" x2="85.3914" y2="270.1276" xlink:href="#Gradiente_sem_nome_22"/>
    <linearGradient id="Nova_amostra_de_gradiente_1-4" x1="101.7951" y1="253.2398" x2="116.6032" y2="272.8075" xlink:href="#Nova_amostra_de_gradiente_1"/>
    <linearGradient id="Gradiente_sem_nome_22-6" x1="-4714.9564" y1="262.934" x2="-4714.9564" y2="254.2936" gradientTransform="matrix(-1, 0, 0, 1, -4609.883, 0)" xlink:href="#Gradiente_sem_nome_22"/>
    <linearGradient id="Gradiente_sem_nome_22-7" x1="111.4022" y1="264.1836" x2="111.4022" y2="264.1836" xlink:href="#Gradiente_sem_nome_22"/>
    <linearGradient id="Gradiente_sem_nome_22-8" x1="88.1618" y1="200.1797" x2="92.5369" y2="206.1298" xlink:href="#Gradiente_sem_nome_22"/>
    <linearGradient id="Nova_amostra_de_gradiente_1-5" x1="133.8663" y1="254.161" x2="151.4326" y2="273.4272" xlink:href="#Nova_amostra_de_gradiente_1"/>
    <linearGradient id="Gradiente_sem_nome_22-9" x1="120.4444" y1="202.1227" x2="125.8404" y2="202.3137" xlink:href="#Gradiente_sem_nome_22"/>
    <linearGradient id="Gradiente_sem_nome_22-10" x1="136.7969" y1="255.8496" x2="144.9817" y2="255.6356" xlink:href="#Gradiente_sem_nome_22"/>
    <linearGradient id="Nova_amostra_de_gradiente_1-6" x1="155.8779" y1="253.2355" x2="172.6041" y2="274.9977" xlink:href="#Nova_amostra_de_gradiente_1"/>
    <linearGradient id="Gradiente_sem_nome_3-3" data-name="Gradiente sem nome 3" x1="143.3914" y1="205.8592" x2="147.7463" y2="205.7786" xlink:href="#Gradiente_sem_nome_22"/>
    <linearGradient id="Gradiente_sem_nome_3-4" data-name="Gradiente sem nome 3" x1="165.6308" y1="254.3502" x2="171.9327" y2="262.1064" xlink:href="#Gradiente_sem_nome_22"/>
    <linearGradient id="Nova_amostra_de_gradiente_1-7" x1="181.8213" y1="250.3477" x2="198.5852" y2="271.3916" xlink:href="#Nova_amostra_de_gradiente_1"/>
    <linearGradient id="Gradiente_sem_nome_22-11" x1="168.9419" y1="203.717" x2="172.6926" y2="196.5905" xlink:href="#Gradiente_sem_nome_22"/>
    <linearGradient id="Nova_amostra_de_gradiente_1-8" x1="214.9307" y1="252.3328" x2="229.1233" y2="275.6877" xlink:href="#Nova_amostra_de_gradiente_1"/>
    <linearGradient id="Gradiente_sem_nome_22-12" x1="217.815" y1="257.0095" x2="219.2115" y2="273.0702" xlink:href="#Gradiente_sem_nome_22"/>
    <linearGradient id="Gradiente_sem_nome_22-13" x1="229.5315" y1="265.2299" x2="228.2276" y2="270.6513" xlink:href="#Gradiente_sem_nome_22"/>
    <linearGradient id="Nova_amostra_de_gradiente_1-9" x1="238.8045" y1="249.559" x2="252.9456" y2="272.3734" xlink:href="#Nova_amostra_de_gradiente_1"/>
    <linearGradient id="Gradiente_sem_nome_22-14" x1="242.7558" y1="257.0471" x2="244.1493" y2="273.0729" xlink:href="#Gradiente_sem_nome_22"/>
  </defs>
  <g>
    <path class="cls-1" d="M86.064,235.7746c-2.0132-1.3095-.68-3.2143-.8628-4.85,4.235-7.6053,10.7064-13.4267,16.1917-20.0223,2-2.4049,4.2623-4.58,5.8215-7.3365,7.1313-9.7835,16.1546-17.9759,23.3219-27.7309,1.0994-1.4963,2.74-2.41,4.044-3.6866,1.1958-1.1709,2.7-2.2952.74-4.0556-.9278-1.1355-1.2966-2.45-.3481-3.62,3.9891-4.922,5.5578-11.1392,8.8976-16.4043.9092-1.4334,1.69-2.8854,3.7587-2.4729,1.8115,2.4915,1.5215,4.921-.48,7.0822-2.7543,2.9736-3.0439,7.23-5.5779,10.3275a1.9928,1.9928,0,0,0,.5828,3.0207c.8748.7934,1.8951,1.5476.8509,2.8958-5.07,2.3155-8.0684,6.4606-10.0588,11.4672-.7312,1.8394-1.3462,3.7249-2.0142,5.5894-10.52,12.0451-20.7465,24.3462-31.5138,36.176C95.1343,226.86,91.619,232.3171,86.064,235.7746Z" transform="translate(-20 -64.012)"/>
    <path class="cls-2" d="M210.0089,93.947c3.284,5.2575,4.0286,11.1981,4.6226,17.1794-.2836,5.3411-.0431,10.8715-5.2065,14.4583-4.2,2.799-8.534,5.3146-13.6035,6.2288a3.6117,3.6117,0,0,1-2.9351-.6036,4.2982,4.2982,0,0,1,.3057-3.8429c4.5965-10.132,9.55-20.1024,13.7256-30.4257A4.3043,4.3043,0,0,1,210.0089,93.947Z" transform="translate(-20 -64.012)"/>
    <path class="cls-3" d="M97.9335,94.0687c-10.594-3.2477-12.6561-10.24-5.3308-18.3834,4.6349-5.1524,10.1772-8.8212,17.2379-9.74,1.7491,1.5529,1.988,1.664,1.1478,3.47-3.8392,8.2537-6.9841,16.8376-11.6517,24.7023A1,1,0,0,1,97.9335,94.0687Z" transform="translate(-20 -64.012)"/>
    <path class="cls-4" d="M174.9146,129.264c3.4275-2.6341,2.0947-6.8331,3.3471-10.1822.7551.0383,1.3433.2391,1.8308-.85q8.6588-19.35,16.7427-38.9458a3.0266,3.0266,0,0,1,1.2239-1.5056,12.0081,12.0081,0,0,1,3.97,4.1059c1.08,1.7113.8187,3.3966.1663,5.2262a150.83,150.83,0,0,1-9.3581,21.3924c-3.3868,6.2461-5.1855,13.28-8.8707,19.4365-1.0118,1.69-1.5431,3.7072-3.4052,4.7977-3.215.3794-6.7234,2.1827-9.0393-1.84C171.88,128.7545,173.8513,129.9505,174.9146,129.264Z" transform="translate(-20 -64.012)"/>
    <path class="cls-5" d="M180.985,132.0073c4.0863-8.941,8.1409-17.8967,12.2686-26.8186,3.4959-7.5561,7.2394-15.0116,8.7755-23.3027a17.1968,17.1968,0,0,1,4.8774,6.2746c.3307,3.5244-1.7307,6.3973-3.1066,9.2387-5.1122,10.5577-9.5331,21.4254-14.6662,31.9666-.6493,1.3333-1.2522,2.7208-2.7192,3.4223C184.48,133.38,182.6013,133.5947,180.985,132.0073Z" transform="translate(-20 -64.012)"/>
    <path class="cls-6" d="M160.7313,109.1534c-2.5041-.0686-4.7373-1.0813-6.9953-2.0076,6.5691-7.6874,8.9226-17.5429,13.3685-26.3181,2.4955-4.9256,5.2633-9.9191,5.9176-15.6179a20.5619,20.5619,0,0,1,7.9552,2.0438c1.33,1.8648.2544,3.5307-.5769,5.0892-5.7766,10.829-10.249,22.2742-15.7656,33.2241C163.7865,107.2507,163.5275,109.5856,160.7313,109.1534Z" transform="translate(-20 -64.012)"/>
    <path class="cls-7" d="M85.2026,182.9544v-9.97q9.6363-17.9357,19.4635-35.7673c.9663-1.7446,1.8182-3.567,3.5024-4.7916a6.863,6.863,0,0,1,3.7748-.5762,4.3181,4.3181,0,0,1,2.1393.8372c1.1657,1.76.0983,3.1955-.7613,4.5882-7.5284,12.197-13.73,25.12-20.685,37.6277C90.8686,178.0819,89.5068,181.9721,85.2026,182.9544Z" transform="translate(-20 -64.012)"/>
    <path class="cls-8" d="M160.7313,109.1534c3.7093-4.1662,5.1977-9.5,7.5068-14.3929,4.3123-9.1379,8.5-18.3347,12.7393-27.507,1.9044.1346,3.4328,1.1584,4.9915,2.1108a1.9889,1.9889,0,0,1,.227,2.3213c-6.1206,12.7351-11.3028,25.8958-17.5152,38.5884a3.8072,3.8072,0,0,1-1.6955,1.7715A18.3111,18.3111,0,0,1,160.7313,109.1534Z" transform="translate(-20 -64.012)"/>
    <path class="cls-9" d="M85.2026,182.9544c6.4617-6.52,9.4969-15.1023,13.81-22.9178q7.4682-13.5332,15.008-27.0267a2.4,2.4,0,0,1,2.9612-.3784,4.0906,4.0906,0,0,1,.6511,5.0017c-2.9367,5.41-5.6647,10.9668-9.6523,15.7355a7.0881,7.0881,0,0,0-4.45,3.0633c.7071-.6232,1.2688-.8677,1.8749-.2856,1.0737,1.8281.48,3.4881-.5468,5.0728-5.0033,7.724-8.773,16.1186-13.1522,24.1808-1.3367,2.1855-2.0949,4.8-4.5274,6.1869a2.1176,2.1176,0,0,1-1.9761-.61Q85.2025,186.9656,85.2026,182.9544Z" transform="translate(-20 -64.012)"/>
    <path class="cls-10" d="M166.9852,112.0455c2.4924-5.9231,4.8788-11.8936,7.5027-17.7579,3.7355-8.3488,7.6456-16.62,11.481-24.9234,1.8526.152,2.6723,1.8136,3.9979,2.7357.8728,5.5152-2.6471,9.72-4.5894,14.2837-3.2855,7.7195-6.7885,15.3471-9.9063,23.1455-.7917,1.98-1.2774,4.6621-4.4348,4.4674A7.3559,7.3559,0,0,1,166.9852,112.0455Z" transform="translate(-20 -64.012)"/>
    <path class="cls-11" d="M171.0363,113.9965c4.4486-3.1494,4.7114-8.6634,6.5116-13.017,4.0055-9.6867,9.1225-18.9007,12.4189-28.88,2.2357.0567,3.5847,1.5785,4.9844,3.0166,1.63,2.19.44,4.19-.6589,5.9745-5.9119,9.6029-9.4548,20.2925-14.1582,30.4475-1.0622,2.2934-1.62,5.3566-5.3666,4.5877Z" transform="translate(-20 -64.012)"/>
    <path class="cls-12" d="M143.0036,168.9224a1.8,1.8,0,0,0-1.9967-1.9323c-.3952-3.961,2.0574-7.0565,3.9668-9.8638,5.33-7.8371,8.2754-16.9833,13.9955-24.5584a8.0112,8.0112,0,0,1,6.0846-.4118,2.7222,2.7222,0,0,1,1.1865.9078,6.42,6.42,0,0,1-.7944,4.7771c-5.4231,9.7285-9.7058,20.1049-16.4441,29.0882Z" transform="translate(-20 -64.012)"/>
    <path class="cls-13" d="M186.9817,132.0061c6.0415-14.8879,12.8534-29.4257,19.9249-43.8455a11.4137,11.4137,0,0,1,3.1023,5.7865q-5.9265,12.9333-11.8547,25.866c-1.7155,3.7371-3.4507,7.4651-5.177,11.1972.33,1.4454-.7875,1.6343-1.72,1.9918a6.2087,6.2087,0,0,1-1.5265.1474A3.4918,3.4918,0,0,1,186.9817,132.0061Z" transform="translate(-20 -64.012)"/>
    <path class="cls-14" d="M85.2038,225.9548l-.0018-7.0239c7.6949-7.28,13.8174-15.9473,20.7148-23.9185,5.3025-6.128,10.7446-12.166,15.9173-18.4214a35.2024,35.2024,0,0,1,9.2263-8.1589c3.9043.5206,3.2347,3.09,1.5118,4.7948-5.8853,5.8244-10.28,12.9265-16.3152,18.5968A63.5916,63.5916,0,0,0,105.8127,204.95a10.5481,10.5481,0,0,1-2.4521,2.56,24.784,24.784,0,0,0-8.8727,9.9248,82.31,82.31,0,0,1-5.7524,7.1378C87.8018,225.5227,87.0274,227.1624,85.2038,225.9548Z" transform="translate(-20 -64.012)"/>
    <path class="cls-12" d="M86.064,235.7746c4.354-5.127,8.5368-10.412,13.0973-15.3481,9.7151-10.5153,19.0544-21.35,28.1468-32.3993,1.0152-1.2337,1.8829-2.2954,3.6225-2.0482q-.0425,2.5142-.0848,5.0282c-4.4553,6.62-10.0175,12.3383-15.2149,18.3333-6.847,7.8978-13.9782,15.566-20.47,23.7519-2.1161,2.6685-4.6416,1.99-7.0661,2.6217Z" transform="translate(-20 -64.012)"/>
    <path class="cls-11" d="M190.9755,132.0171a2.0967,2.0967,0,0,0,2.0017-1.0068l2.994-.0031c2.5077.5789,2.85,1.28,2.2585,4.0567-.6469,3.0387-3.1708,4.9329-4.4661,7.6049-2.5,5.1574-5.6122,10.0293-7.1265,15.63-.4211,1.5573-1.8856,2.2364-2.6555,3.4821a25.6427,25.6427,0,0,1-9.9791,3.1345,3.8036,3.8036,0,0,1,.2858-3.7991C179.867,151.4259,183.9927,140.9,190.9755,132.0171Z" transform="translate(-20 -64.012)"/>
    <path class="cls-15" d="M183.9816,161.7809c2.2005-7.1254,5.6912-13.6744,8.94-20.3423.8451-1.7349,2.5084-2.7158,3.2432-4.3138.893-1.9423,2.8124-4.1926-.193-6.1176q6.4981-3.0009,12.9966-6.0016c1.496,2.3948-.4065,4.0257-1.3886,5.7922-4.6345,8.3359-8.8521,16.897-13.6213,25.1591A25.7911,25.7911,0,0,1,183.9816,161.7809Z" transform="translate(-20 -64.012)"/>
    <path class="cls-16" d="M174.7675,116.1262c1.14-.634,2.6987-.899,3.0685-2.3363,1.8187-7.07,6.7909-12.8065,8.2473-20.0688.89-4.4373,4.62-7.5618,6.3376-11.696.9437-2.2721,2.7365-4.2169,2.53-6.9086a6.2687,6.2687,0,0,1,3.1079,2.6637c-.6389,6.5667-4.8253,11.7969-6.7394,17.8889-2.4159,7.6888-6.7247,14.5532-9.7621,21.9791-.4693,1.1474-.6791,4.5355-3.2961,1.4335Z" transform="translate(-20 -64.012)"/>
    <path class="cls-17" d="M108.0227,133.0105a146.0257,146.0257,0,0,1-9.4136,17.3145c-3.4485,5.2146-5.8834,11.1221-8.5323,16.8325-1.1376,2.4523-2.4027,4.5888-4.8741,5.8273l-.002-10.9939c2.5214-6.6924,6.7464-12.4742,10.0658-18.7409,1.78-3.36,3.1948-6.8538,4.6619-10.3468C102.6466,131.7259,105.3556,130.8729,108.0227,133.0105Z" transform="translate(-20 -64.012)"/>
    <path class="cls-18" d="M147.0013,106.0678a5,5,0,0,1-5.1646-1.95,30.2162,30.2162,0,0,1,5.7015-13.9926,13.49,13.49,0,0,0,2.2563-4.8781c2.0454-7.45,6.0412-14.0621,9.2012-21.0344l5.032.0179c2.3641,1.0858,1.7835,3.0184,1.0572,4.6478-5.1611,11.5781-10.3464,23.1467-15.8955,34.5468A6.9354,6.9354,0,0,1,147.0013,106.0678Z" transform="translate(-20 -64.012)"/>
    <path class="cls-12" d="M147.0013,106.0678c3.7923-8.3387,7.6037-16.6689,11.3693-25.02,1.9609-4.3487,3.8039-8.7507,5.78-13.0922a3.4126,3.4126,0,0,0-.1231-3.7251c2.0437-.0714,4.1264-.5038,6.0375.6522,1.3975,5.3611-1.5914,9.7715-3.947,13.8186-4.9563,8.5153-7.9285,17.8286-12.019,26.675a7.0546,7.0546,0,0,1-1.1,1.6488C150.9633,106.9352,148.815,107.5493,147.0013,106.0678Z" transform="translate(-20 -64.012)"/>
    <path class="cls-19" d="M149.0018,166.9292c.4955-4.3889,3.7289-7.4872,5.4609-11.31,3.4861-7.6938,8.8731-14.4556,11.5288-22.61,1.9661-1.8021,4.12-1.39,6.3063-.5371,1.8284.742,1.3318,2.1193.7294,3.3016-3.913,7.6795-7.5332,15.5377-12.3071,22.7253-1.627,2.45-1.6932,5.9-4.7123,7.4374C153.7007,166.4671,151.4254,167.222,149.0018,166.9292Z" transform="translate(-20 -64.012)"/>
    <path class="cls-20" d="M131.0094,168.9915c-8.161,8.5471-16.038,17.3092-23.6274,26.4037-5.8,6.95-11.3732,14.1332-17.4349,20.8743-1.1482,1.2769-3.1417,1.7938-4.7451,2.6614l.0018-4.9965a11.2784,11.2784,0,0,1,2.1182-3.3489c9.8278-9.1588,17.7635-19.9779,26.5227-30.0777,3.1283-3.607,6.2311-7.274,9.57-10.7138a5.0377,5.0377,0,0,1,1.71-1.45,7.23,7.23,0,0,1,3.0531-.53A3.6268,3.6268,0,0,1,131.0094,168.9915Z" transform="translate(-20 -64.012)"/>
    <path class="cls-10" d="M190.9755,132.0171c-1.3679,5.6544-5.4,9.9329-7.8125,15.071-2.8354,6.0384-6.6281,11.6124-9.1605,17.8273a14.3222,14.3222,0,0,1-6.9859.9376c-.1711-4.3829,2.8089-7.5451,4.2024-11.2842,2.7417-7.3562,8.3607-13.07,10.7384-20.5137a2.4912,2.4912,0,0,1,1.2887-1.4394c2.2218-.46,4.57.5319,6.7313-.5967Q190.4765,132.0148,190.9755,132.0171Z" transform="translate(-20 -64.012)"/>
    <path class="cls-21" d="M193.958,155.9569c-1.174-2.8418,1.0648-4.5638,2.1757-6.6621q6.4266-12.14,12.8342-24.2891c4.0133-3.7593,4.6651-8.89,5.6636-13.8794C215.853,129.811,209.2092,144.8686,193.958,155.9569Z" transform="translate(-20 -64.012)"/>
    <path class="cls-22" d="M158.9957,64.213c1.0627,6.131-4.28,9.9258-5.5876,15.34-1.9822,8.21-7.8892,14.9153-10.297,23.1-.1661.5646-.8378.98-1.2744,1.4655l-5.1582-2.94c4.4989-11.3327,10.6078-21.9269,15.2276-33.2034a8.5,8.5,0,0,1,3.09-3.76Z" transform="translate(-20 -64.012)"/>
    <path class="cls-23" d="M152.9992,107.0255c-.55-5.5765,3.4029-9.606,5.0779-14.4149a95.6289,95.6289,0,0,1,8.1463-16.6245c1.9391-3.3158,2.6045-7.3765,3.8418-11.1029l2.9569.3266c2.092,1.4112,1.1339,3.0958.4056,4.7383-4.6392,10.4627-9.1306,20.9963-14.0537,31.3239-1.1069,2.3222-1.6946,5.9376-5.6375,5.8736l-.39.0713Z" transform="translate(-20 -64.012)"/>
    <path class="cls-24" d="M129.0364,64.2123l6.9688,0c1.28,3.3854-.8689,6.1269-2.08,8.8115-3.2622,7.2321-7.1373,14.1854-10.0839,21.573a6.7382,6.7382,0,0,1-1.8253,2.3279,9.7276,9.7276,0,0,1-5.9885-.9349c-.8212-2.9695.3819-5.6577,1.7356-8.0141C122.15,80.34,125.559,72.2653,129.0364,64.2123Z" transform="translate(-20 -64.012)"/>
    <path class="cls-25" d="M129.0364,64.2123c1.203,3.3942-1.23,5.8914-2.347,8.605-3.2348,7.8625-7.99,15.0379-10.6617,23.1729-4.0939-.0746-8.2406.6077-12.238-.8526a3.6394,3.6394,0,0,1,2.6938-1.3358c2.8034.0766,3.9418-1.7038,4.9115-4.0271,2.7281-6.5362,6.116-12.7787,8.6378-19.4173.8662-2.28,1.8526-4.62,3.9814-6.146Z" transform="translate(-20 -64.012)"/>
    <path class="cls-26" d="M102.073,234.123c-1.8745,1.2221-3.9608,1.0538-6.0418.9205-1.4943-2.6467.6982-4.0059,2.1242-5.356,10.4514-9.8945,18.9253-21.5488,28.6951-32.0446,1.0629-1.1418,1.9-2.9483,3.9953-1.6668l.0043,1.0433c-.8259,1.6672.1157,3.5847-.7429,5.2473a.5.5,0,0,1-.0468.7037c-6.9152,9.9279-16.26,17.8156-23.2423,27.684C105.6061,232.3674,103.4726,232.7216,102.073,234.123Z" transform="translate(-20 -64.012)"/>
    <path class="cls-8" d="M182.98,133.0123a21.3867,21.3867,0,0,1-5.695,12.19c-.8751.9654-1.9939,1.7546-2.2184,3.1779-1.038,6.5817-6.4582,11.1452-8.05,17.4724l-6.0111.084c1.1418-8.9152,6.8281-15.7769,11.0176-23.21,1.89-3.3527,2.1408-7.6518,5.5051-10.1752C179.3477,132.7105,181.2325,132.0523,182.98,133.0123Z" transform="translate(-20 -64.012)"/>
    <path class="cls-27" d="M130.8458,195.9761c-4.2162,1.1921-5.2795,5.5955-8.0413,8.2814-6.4809,6.3026-11.9441,13.66-17.7387,20.6566-2.89,3.49-7.7786,5.1925-9.0346,10.1293a18.3476,18.3476,0,0,1-7.9362.6707c7.5056-1.7512,10.1093-8.9193,14.7521-13.7174,9.6759-9.9993,17.7153-21.51,27.9987-30.99Z" transform="translate(-20 -64.012)"/>
    <path class="cls-28" d="M124.0145,169.99c.163,3.6107-3.3412,5.4355-5.1,6.9817-7.1651,6.2985-12.0872,14.4722-18.7654,21.1893-5.03,5.06-9.3209,11.0857-14.9451,15.7737l0-3.97a42.7984,42.7984,0,0,1,7.5186-9.8088c6.32-6.0991,10.864-13.72,17.4032-19.63a23.6836,23.6836,0,0,0,6.5743-9.2328c1.133-1.53,2.9233-1.6239,4.5468-2.0948A2.9135,2.9135,0,0,1,124.0145,169.99Z" transform="translate(-20 -64.012)"/>
    <path class="cls-29" d="M100.029,133.9982c.4035,5.3742-3.2842,9.1389-5.7251,13.1823-2.9889,4.9509-4.5282,10.841-9.1032,14.81-.9442-11.6766,1.3473-22.021,11.9217-28.9551C98.5586,131.9452,99.29,132.9835,100.029,133.9982Z" transform="translate(-20 -64.012)"/>
    <path class="cls-30" d="M154.9965,64.2137c-4.71,10.1113-8.6867,20.5713-14.5162,30.15-1.3484,2.2159-.0969,5.8879-3.8015,6.8134-.9475-.218-2.0961.1871-2.7651-.8928a2.5113,2.5113,0,0,1-.1517-2.8127c5.2858-10.4706,9.3754-21.4736,14.3145-32.0978a4.6319,4.6319,0,0,1,.9253-1.1623Z" transform="translate(-20 -64.012)"/>
    <path class="cls-31" d="M102.073,234.123c7.4332-8.94,14.8118-17.9348,23.0108-26.192,1.6455-1.6572,1.6658-4.9969,4.9765-4.9606a14.6758,14.6758,0,0,1-1.1025,7.0071c-4.2318,7.7428-10.6174,13.8287-15.9455,20.7283C109.4436,232.0935,106.0857,234.1565,102.073,234.123Z" transform="translate(-20 -64.012)"/>
    <path class="cls-32" d="M122.0162,96.9251c2.24-8.0656,6.5287-15.207,10.1314-22.6651,1.5551-3.219,2.5877-6.69,3.8576-10.0473l4.999-.001a3.037,3.037,0,0,1,.1522,4.1152c-5.1381,7.4559-5.6766,17.0891-11.5221,24.2178-1.2987,1.5837-.5161,3.9473-1.7269,5.64Z" transform="translate(-20 -64.012)"/>
    <path class="cls-26" d="M176.986,133.01c.1813,6.2343-4.5607,10.238-6.9825,15.2864-2.8541,5.95-5.9864,11.7664-8.998,17.6408h-4.9977c2.9673-7.4414,7.2978-14.1668,11.0825-21.1806,2.08-3.8545,3.9391-7.828,5.8979-11.7479A3.954,3.954,0,0,1,176.986,133.01Z" transform="translate(-20 -64.012)"/>
    <path class="cls-33" d="M127.9074,98.185a5.4143,5.4143,0,0,1,.522-6.4972c5.4881-5.8955,6.1369-13.8781,9.4073-20.7029,1.0636-2.22,4.2862-3.5548,3.1675-6.7732L147,64.2132c.3754.364.6991.9172.4751,1.313-5.5925,9.8856-9.2226,20.7121-14.7107,30.6452-1.0939,1.98-2.5689,2.9987-4.8736,1.9559Z" transform="translate(-20 -64.012)"/>
    <path class="cls-34" d="M117.0185,171.9873c1.6781,2.551-1.21,3.6223-2.098,4.6753-9.4117,11.1647-19.1278,22.0728-28.7811,33.0331-.1808.2052-.6182.1843-.9359.2689l0-5.0257c4.895-7.4589,11.3585-13.6211,16.9454-20.5076,3.3047-4.0736,7.67-7.2555,10.116-12.0568a2.933,2.933,0,0,1,1.1214-1.01A3.2149,3.2149,0,0,1,117.0185,171.9873Z" transform="translate(-20 -64.012)"/>
    <path class="cls-35" d="M113.0211,172.9887c-1.4244,5.2657-6.4421,7.6677-9.4492,11.711-4.0743,5.4783-9.166,10.1895-13.4615,15.52a24.4176,24.4176,0,0,1-4.9065,4.7195V199.97c5.2084-9.3524,13.7128-16.0593,19.8113-24.7038a6.93,6.93,0,0,1,.9671-1.1109C108.1761,172.8454,110.3834,171.6061,113.0211,172.9887Z" transform="translate(-20 -64.012)"/>
    <path class="cls-36" d="M124.0142,64.2114c-4.1667,9.5912-8.3582,19.1719-12.4816,28.7817-.9322,2.1727-2.6716,2.1023-4.5161,1.9938-1.7207-2.047-.7559-4.0687.1613-6.0051,3.4568-7.2982,6.6646-14.7081,10.0125-22.0547.8377-1.8383-1.65-.8932-1.4818-2.0377C118.3926,63.6285,121.2139,64.0488,124.0142,64.2114Z" transform="translate(-20 -64.012)"/>
    <path class="cls-37" d="M127.89,98.1273c4.3217.0346,5.6581-4.1776,6.4168-6.5173C137.451,81.9145,142.5123,73.2179,147,64.2132l2.0023-.0013c-1.3087,7.3825-4.8723,14.0305-7.9306,20.65-2.3623,5.1135-4.0688,10.6224-7.1574,15.4226Z" transform="translate(-20 -64.012)"/>
    <path class="cls-38" d="M115.7085,64.8894c3.4246-.163,2.79,1.8582,1.9389,3.7891-2.974,6.7495-5.97,13.49-9.0712,20.1821-.9167,1.9781-1.801,3.8888-1.56,6.1268q-1.6131.0744-3.2265.15c-2.0163-.006-4.0614.1481-5.8564-1.0688l1.0941-.1591c5.0335-4.5054,6.5758-11.0291,9.45-16.7422,2.077-4.128,4.45-8.0787,6.5421-12.1867A.48.48,0,0,1,115.7085,64.8894Z" transform="translate(-20 -64.012)"/>
    <path class="cls-7" d="M106.025,175.9852c-5.3085,6.1422-10.437,12.456-16.0325,18.3244-1.7311,1.8155-1.2694,5.47-4.7885,5.6606l.0608-3.0548c.6005-1.9762-.1574-4.3573,1.77-5.9377l3.9978-5.9969a27.468,27.468,0,0,1,6.8781-6.9681C100.45,176.6739,102.6655,174.0244,106.025,175.9852Z" transform="translate(-20 -64.012)"/>
    <path class="cls-39" d="M115.02,64.9806c.7628,4.4364-3.0931,6.8748-4.5293,10.3667q-3.183,7.7388-6.9145,15.2462c-.8429,1.6967-2.1785,3.3918-4.5487,3.317,2.7425-8.9264,7.5444-16.9536,11.1662-25.4965.45-1.0621.7458-1.7777-.3532-2.4688C111.3913,64.6794,113.2264,64.9406,115.02,64.9806Z" transform="translate(-20 -64.012)"/>
    <path class="cls-40" d="M174.9146,129.264c-.7919.941-1.908.703-2.93.8058-3.6118,2.7564-8.2389.085-11.9626,2.24-2.0683.6785-4.13,1.4688-6.3167.4613-1.6817-1.0481-.9229-2.3673-.1016-3.3318,4.2765-5.0221,3.0385-9.64-.8131-14.1567a3.7039,3.7039,0,0,1-.6018-1.3469,2.9559,2.9559,0,0,1,.8091-2.8484c6.55,4.1592,8.6529,8.2522,7.2685,15.2148-.4774,2.4007.2049,2.8806,2.3211,2.8625C166.6957,129.1291,170.8054,129.2233,174.9146,129.264Z" transform="translate(-20 -64.012)"/>
    <path class="cls-41" d="M103.0263,206.969a3.44,3.44,0,0,1,1.9986-1.9995c.855-.7673,1.6433-1.7348,2.9989-.9989-.987,4.7772-5.531,6.7272-8.1769,10.1994a152.7192,152.7192,0,0,1-14.6457,16.7551q.0012-2.4852.0026-4.97c4.0657-1.8943,5.1169-6.7483,8.8275-8.9913C97.1844,213.7713,99.1766,209.5343,103.0263,206.969Z" transform="translate(-20 -64.012)"/>
    <path class="cls-42" d="M106.8387,129.8912c8.1594-1.6385,16.4071-.374,24.6066-.7279,2.0186-.0872,4.2.3008,3.4866-2.9229-.4711-1.5484-1.1721-3.58.5023-4.3358,2.0527-.9269,2.4516,1.3795,3.18,2.7249,1.1522,2.7414,3.7184,4.5355,4.9074,7.2616a2.1511,2.1511,0,0,1-.47,1.4249,5.154,5.154,0,0,1-3.8084.6218,7.708,7.708,0,0,1-1.5805-.371c-7.3562-1.0374-14.6037-3.16-22.1616-2.1381C112.5639,131.1812,109.3923,132.2668,106.8387,129.8912Z" transform="translate(-20 -64.012)"/>
    <path class="cls-43" d="M137.8549,126.0163l-1.5428-3.5308c-2.1119.7311-.9481,2.5311-1.38,3.7541-2.3269-7.8047,1.5864-14.3912,9.7214-16.3617a10.5672,10.5672,0,0,1,5.6887.0039c1.2091-.3122,1.6878.9848,2.6553,1.2051l-.048,3.0847c-1.1479.4584-2.1682-.08-3.2173-.3963a5.2068,5.2068,0,0,0-4.879.3592c-3.5593,2.1353-5.8617,5-5.7541,9.4013A2.6431,2.6431,0,0,1,137.8549,126.0163Z" transform="translate(-20 -64.012)"/>
    <path class="cls-44" d="M113.0123,230.7058c-.334-3.8139,3.198-5.2632,5.0082-7.6253,3.45-4.5014,6.57-9.346,10.9373-13.103C126.7387,219.2686,121.553,226.2776,113.0123,230.7058Z" transform="translate(-20 -64.012)"/>
    <path class="cls-31" d="M123.0158,108.0887l-6.9976-.2292c-1.83-3.34-.9453-5.949,2.147-7.9624,2.4293-.4464,4.4959,1.188,6.8465,1.1937C126.8149,104.1275,124.5564,106.0057,123.0158,108.0887Z" transform="translate(-20 -64.012)"/>
    <path class="cls-45" d="M118.1652,99.8971c-1.2372,2.5135-2.3167,5.07-2.147,7.9624l-5.9941-.9983c-1.6671-2.2255-1.79-4.4508.0011-6.6757a2.825,2.825,0,0,1,.9041-.2052,13.5251,13.5251,0,0,1,7.1956-.0454Z" transform="translate(-20 -64.012)"/>
    <path class="cls-46" d="M106.8387,129.8912l9.1838.1848c2.0129,1.5552,4.378.677,6.5754.9626,1.459.19,3.48-.4482,3.4613,2.1518-1.4567,1.224-3.203,1.2015-4.9546,1.17a5.74,5.74,0,0,1-4.086-1.3508H114.02l-1.9968-.0022c-3.8942-1.407-8.05.3467-11.9505-.991A10.4734,10.4734,0,0,1,106.8387,129.8912Z" transform="translate(-20 -64.012)"/>
    <path class="cls-4" d="M123.0158,108.0887c-.6283-2.7017,2.5542-4.3163,1.9959-6.9979l5.9908,2.0468c1.5066,4.6369,1.0891,5.31-3.4316,5.3575a9.1538,9.1538,0,0,1-3.908-.3444l-.3368.1068Z" transform="translate(-20 -64.012)"/>
    <path class="cls-47" d="M100.972,105.4694c-4.4819-.7051-9.0464-1.0218-13.7482-2.8452,4.3791-1.7542,8.7034-1.5415,12.8012-2.4578C101.318,101.76,102.1562,103.4339,100.972,105.4694Z" transform="translate(-20 -64.012)"/>
    <path class="cls-48" d="M123.6629,108.1507c3.1641-.62,8.3587,1.7319,7.34-5.0132,2.8165.434,4.7892,2.3056,8.1057,4.3626C133.1673,108.104,128.5562,110.15,123.6629,108.1507Z" transform="translate(-20 -64.012)"/>
    <path class="cls-49" d="M100.972,105.4694a12.1116,12.1116,0,0,1-.947-5.3031l2.84-.2181a3.9106,3.9106,0,0,1,3.2437-.1222c1.5688,2.3738.5334,4.281-1.0892,6.0828C103.6525,105.9232,102.229,106.4634,100.972,105.4694Z" transform="translate(-20 -64.012)"/>
    <path class="cls-50" d="M105.019,105.9088l.9764-5.8157c.4389-.808,1.429-.38,2-.8921l2.03.9845q0,3.3378-.0011,6.6757C108.1759,107.4891,106.65,106.4207,105.019,105.9088Z" transform="translate(-20 -64.012)"/>
    <path class="cls-51" d="M100.073,132.0167c3.97.4929,8.1118-1.0851,11.9505.991l-4.0008.0027c-2.6518.4327-5.5331-.9914-7.9937.9879l-2.9067-.9625C97.8048,131.8242,99.0083,132.1213,100.073,132.0167Z" transform="translate(-20 -64.012)"/>
    <path class="cls-35" d="M87.0351,190.9777l-1.77,5.9377q-.0312-2.9694-.0623-5.9387Z" transform="translate(-20 -64.012)"/>
    <path class="cls-52" d="M118.1249,99.9349l-7.1956.0455C113.318,98.4,115.72,98.8582,118.1249,99.9349Z" transform="translate(-20 -64.012)"/>
    <path class="cls-53" d="M150.3422,109.8818q-2.8428-.0016-5.6871-.0037A5.4285,5.4285,0,0,1,150.3422,109.8818Z" transform="translate(-20 -64.012)"/>
    <path class="cls-31" d="M130.1072,202.2667c.0883-1.7717-.7051-3.6682.743-5.2474C130.9948,198.8241,131.1251,200.6267,130.1072,202.2667Z" transform="translate(-20 -64.012)"/>
    <path class="cls-54" d="M107.9953,99.201q-1,.4454-1.9995.8914-1.5657-.0711-3.131-.1439C104.4708,98.9856,106.2317,99.0838,107.9953,99.201Z" transform="translate(-20 -64.012)"/>
    <path class="cls-55" d="M108.0238,203.9706l-2.9989.9989c1.64-5.4084,5.4314-9.4759,9.4054-13.0012,6.6081-5.8618,10.7246-13.841,17.4833-19.513,1.4651-1.2294,1.8249-2.9425-.9041-3.4638l-2.996-.0025a4.0631,4.0631,0,0,1,.5269-4.238c3.1518-4.7005,4.8228-10.2721,8.0722-14.7829,3.1584-4.3845,3.0238-10.221,7.0756-14.0328,1.1884-1.1181,1.8751-2.7422,3.4086-3.5553a3.887,3.887,0,0,1,3.7218.2388c1.1318,1.6121.0073,2.8856-.8076,4.0179-6.2038,8.6206-9.3018,18.9769-15.4973,27.6043-1.2435,1.7315-1.8614,3.6439,1.495,3.7486,2.5843-.0195,3.9039.8939,1.4369,2.9685-5.3575,4.5052-9.05,10.4541-13.8492,15.4191-4.3255,4.4749-8.77,8.8034-12.0074,14.2148C110.78,201.9449,109.2321,202.8563,108.0238,203.9706Z" transform="translate(-20 -64.012)"/>
    <path class="cls-56" d="M158.9944,133.0117c-3.2511,8.5162-8.1127,16.1844-12.6194,24.0427-1.8722,3.2644-3.5836,6.621-5.3681,9.9357-3.6623-1.2619-.9512-4.66-.5472-4.9854,3.6063-2.9034,2.5076-8.5138,6.7439-11.05,1.4792-.8857-.742-3.4533.7983-4.9527-.9879-5.5572,2.61-9.3031,5.2967-13.4108C155.2015,132.68,157.1564,132.0577,158.9944,133.0117Z" transform="translate(-20 -64.012)"/>
    <path class="cls-57" d="M152.9985,133.0105c-.2143,4.8885-4.2238,8.3173-4.9966,12.9911-4.5011,1.62-4.3789,6.5121-6.6966,9.6914-2.1591,2.9619-2.31,7.1877-5.7179,9.5853-.9394.6611.1323,1.81.4213,2.7113-5.1637.4876-3.5378-3.1243-2.3022-4.8537,6.77-9.476,9.8621-21.0371,17.2911-30.1007a1.566,1.566,0,0,1,.9983-.5671A1.439,1.439,0,0,1,152.9985,133.0105Z" transform="translate(-20 -64.012)"/>
    <path class="cls-11" d="M159.9965,132.0043c.5918-2.9763,2.9827-1.84,4.7091-1.9459,2.4169-.1481,4.8515-.0071,7.2786.0108,2.3135,3.8367,6.0444,1.0883,9.0008,1.9381l5.9967-.0011,2.9958.0127c-2.1089,1.9057-4.6734.6014-6.9971.9934l-5.9944-.0024-3.9978-.0013-6.9967.0013v-.0006C164.1556,131.7057,161.84,133.2639,159.9965,132.0043Z" transform="translate(-20 -64.012)"/>
    <path class="cls-58" d="M117.0186,133.01l3.9969.0012c1.5417,2.8457-.2335,5.169-1.4148,7.408-5.7208,10.8429-11.7063,21.5425-18.0437,32.04-1.2816,2.1228-1.7337,4.6867-3.5276,6.5264l-6.9965,5.9954a144.1435,144.1435,0,0,1,12.5477-23.9093,8.3458,8.3458,0,0,0,1.4449-5.0748,3.2288,3.2288,0,0,1,1.9986-2.9983C110.5412,146.4283,116.412,141.0352,117.0186,133.01Z" transform="translate(-20 -64.012)"/>
    <path class="cls-51" d="M107.0241,152.9984l-1.9986,2.9983-1.7533,2.6214C103.315,155.8984,103.2286,153.0856,107.0241,152.9984Z" transform="translate(-20 -64.012)"/>
    <path class="cls-19" d="M159.9965,132.0043c1.9989.3319,4.2444-.8076,5.995,1.005l-6.9971.0024-5.9959-.0013q-.4991-.0023-.9982-.003a.652.652,0,0,1-.3254-.8753.9314.9314,0,0,1,.9542-.3176Z" transform="translate(-20 -64.012)"/>
    <path class="cls-55" d="M103.0263,206.969c-3.0043,3.3261-4.283,8.2053-8.995,9.9945C95.3175,212.0911,98.4955,208.9213,103.0263,206.969Z" transform="translate(-20 -64.012)"/>
    <path class="cls-59" d="M139.0092,133.0073l3.9945-.0007c.7939,4.2042-1.9788,7.3211-3.7614,10.4646-4.8045,8.4722-8.1178,17.7836-14.2276,25.5185l-1,1-2.9974.0006c-2.015-1.9524-2.2533-2.65-.67-4.9422,5.9127-8.5626,9.5107-18.3507,14.6357-27.3249C136.0214,135.9042,136.494,133.5759,139.0092,133.0073Z" transform="translate(-20 -64.012)"/>
    <path class="cls-30" d="M125.0147,168.99c-.3205-4.09,3.2312-6.3891,4.6938-9.68,3.9821-8.9608,9.6305-17.135,13.2952-26.3029l.0123-1.0226a1.4493,1.4493,0,0,1,1.1934-.4081c1.0773.2569,2.1787.4773,2.79,1.5661-7.1493,11.5145-12.2646,24.1062-18.9863,35.847Z" transform="translate(-20 -64.012)"/>
    <path class="cls-20" d="M139.0092,133.0073c-3.1379,5.9931-6.0077,12.1869-9.4012,17.9648-2.6712,4.548-3.1524,10.3058-7.7018,13.8891-1.2713,1.0013-3.0106,3.0157-.8891,5.1291-.8574,1.6178-3.1414.3789-3.9986,1.997l-3.9974.0019c-1.5974-1.9213-.8658-4.0328.29-5.5092,7.09-9.0528,10.6737-20.1257,17.2051-29.48,1.1227-1.608,1.9027-3.5283,3.8585-4.4164,1.5517.0746,3.1591-.476,4.633.4246Z" transform="translate(-20 -64.012)"/>
    <path class="cls-46" d="M134.0078,133.0117c-4.2543,7.7325-8.92,15.2747-12.62,23.2638-2.5118,5.423-8.2133,9.1051-8.3668,15.7137q0,.5,0,.9995l-6.9964,1.9971c-.8389.2582-1.207-.1166-1.2253-.9289a7.1572,7.1572,0,0,1,1.0439-3.8146c7.087-11.8459,12.6409-24.5411,20.0816-36.1868a4.0922,4.0922,0,0,1,1.6964-1.7779C129.8643,131.5454,131.9113,132.4918,134.0078,133.0117Z" transform="translate(-20 -64.012)"/>
    <path class="cls-34" d="M127.0128,133.0105c-2.7539,7.6483-7.94,14.0541-11.0164,21.5333-2.6442,6.428-7.6349,11.578-9.8618,18.2263-.2446.73-.994,1.4312-.11,2.2157l0,.9994c-3.1062-.1751-5.3478,1.9536-7.9956,3,2.3042-10.5629,10.2711-18.2138,14.3235-27.82,2.6186-6.2072,7.5764-11.2605,8.6626-18.1546q2.4994-.001,4.9988-.0024A.651.651,0,0,1,127.0128,133.0105Z" transform="translate(-20 -64.012)"/>
    <path class="cls-59" d="M127.0128,133.0105q-.4993-.0017-.9985-.0019c-1.8006-1.7974-4.0717-.7228-6.121-.9851-1.5409-.1973-3.4834.5042-3.8709-1.9481a55.4914,55.4914,0,0,1,22.9858,2.9325l-5,.0038Z" transform="translate(-20 -64.012)"/>
    <path class="cls-53" d="M149.9821,112.8777l-4.9608.017A3.5988,3.5988,0,0,1,149.9821,112.8777Z" transform="translate(-20 -64.012)"/>
    <path class="cls-42" d="M144.0312,132.1786l7.9682-.13q.0006.48.0009.9591-.5013.0137-1.0026.0275-1.9991.0526-3.9979.106C145.9674,132.953,144.7913,133.2066,144.0312,132.1786Z" transform="translate(-20 -64.012)"/>
  </g>
  <g class="cls-60">
    <path class="cls-61" d="M36.41,260.9067a7.8146,7.8146,0,0,1-7.883,7.8742H25.1482V276H20V253.0313h8.5266A7.8149,7.8149,0,0,1,36.41,260.9067Zm-5.1482,0a2.7829,2.7829,0,0,0-2.7348-2.9533H25.1482v5.906h3.3784A2.7827,2.7827,0,0,0,31.2614,260.9067Z" transform="translate(-20 -64.012)"/>
    <rect class="cls-62" x="5.1482" y="200.1567" width="4.3117" height="2.6015"/>
    <path class="cls-63" d="M25.1482,261.0469s-.3017-2.6248-5.1482-2.6248l8.3486.0229.1631,2.6017Z" transform="translate(-20 -64.012)"/>
    <g>
      <path class="cls-64" d="M58.3257,272.1462h-6.291l-.847,3.5179H46.9535l5.7585-22.3856h4.9363l5.759,22.3856H59.1726ZM57.1643,267.35,55.18,259.1308,53.196,267.35Z" transform="translate(-20 -64.012)"/>
      <polygon class="cls-65" points="33.196 203.338 32.035 208.134 38.032 208.134 36.961 203.338 33.196 203.338"/>
      <path class="cls-66" d="M55.18,259.1308a25.2283,25.2283,0,0,1,1.2622-4.342,4.3636,4.3636,0,0,1,1.2057-1.51l2.6428,10.2727-3.3071,3.0514Z" transform="translate(-20 -64.012)"/>
    </g>
    <g>
      <path class="cls-67" d="M82.2288,268.3154h-2.326v7.3487h-4.897V253.3h8.57a7.4935,7.4935,0,0,1,7.3454,7.6676,7.4017,7.4017,0,0,1-3.9481,6.4858l4.56,8.211H86.2688Zm-2.326-4.4725h3.6727a2.9129,2.9129,0,0,0,0-5.7512H79.9028Z" transform="translate(-20 -64.012)"/>
      <rect class="cls-68" x="59.9028" y="199.8308" width="4.1014" height="4.4726"/>
      <path class="cls-69" d="M79.9028,258.1134s-.2869-4.8349-4.897-4.8349l7.9413.0423.1551,4.7924Z" transform="translate(-20 -64.012)"/>
      <path class="cls-70" d="M86.9728,267.4531s-1.4061.8623-4.744.8623l3.35,6.0928h5.2572Z" transform="translate(-20 -64.012)"/>
    </g>
    <g>
      <path class="cls-71" d="M113.09,275.6641l-5.9069-10.3612v10.3612h-4.2193V253.2785h4.2193v9.7221l5.6432-9.7221h4.7994l-6.2234,10.9051,6.4871,11.4805Z" transform="translate(-20 -64.012)"/>
      <path class="cls-72" d="M107.183,261.85s.0837-4.6525-4.2193-4.6525v-3.9182h4.2193Z" transform="translate(-20 -64.012)"/>
      <path class="cls-73" d="M111.4022,264.1836" transform="translate(-20 -64.012)"/>
      <polygon class="cls-74" points="91.402 200.172 88.897 204.297 92.189 210.072 95.288 207.048 91.402 200.172"/>
    </g>
    <g>
      <path class="cls-75" d="M153.704,261.0146a7.7249,7.7249,0,0,1-7.9113,7.66h-3.3906v7.0225h-5.1666V253.3536h8.5572A7.7252,7.7252,0,0,1,153.704,261.0146Zm-5.1667,0a2.7444,2.7444,0,0,0-2.7446-2.8729h-3.3906v5.7452h3.3906A2.7443,2.7443,0,0,0,148.5373,261.0146Z" transform="translate(-20 -64.012)"/>
      <rect class="cls-76" x="122.4021" y="199.8749" width="4.3272" height="4.7875"/>
      <path class="cls-77" d="M142.4021,258.1417s-.3027-4.83-5.1666-4.83l8.3785.0422.1637,4.7879Z" transform="translate(-20 -64.012)"/>
    </g>
    <g>
      <path class="cls-78" d="M171.3392,272.179h-7.1008l-.956,3.5179h-4.7792l6.5-22.3855h5.5717l6.5,22.3855h-4.78Zm-1.3109-4.7966-2.2393-8.2187-2.24,8.2187Z" transform="translate(-20 -64.012)"/>
      <polygon class="cls-79" points="145.549 203.37 144.238 208.167 151.008 208.167 149.798 203.37 145.549 203.37"/>
      <path class="cls-80" d="M167.789,259.1637a23.0608,23.0608,0,0,1,1.4247-4.3421,4.5565,4.5565,0,0,1,1.3609-1.51l2.9829,10.2726-3.7327,3.0514Z" transform="translate(-20 -64.012)"/>
    </g>
    <g>
      <path class="cls-81" d="M192.1148,267.0947v8.6022h-4.1975v-8.6022l-6.1651-13.7833h4.7746l3.4892,8.6348,3.4891-8.6348H198.28Z" transform="translate(-20 -64.012)"/>
      <polygon class="cls-82" points="170.016 197.934 172.115 203.083 176.087 194.203 172.891 190.82 170.016 197.934"/>
    </g>
    <g>
      <path class="cls-83" d="M232.0875,265.1422c0,6.7417-4.088,10.8374-9.4658,10.8374-6.0359,0-10.371-5.1036-10.371-11.4358,0-6.3955,4.4172-11.4991,10.0693-11.4991a9.5555,9.5555,0,0,1,8.3956,5.04l-3.7313,2.4572a5.2931,5.2931,0,0,0-4.6918-2.5831c-3.2376,0-5.6519,2.7407-5.6519,6.6156,0,3.7491,2.3047,6.49,6.0359,6.49a4.7723,4.7723,0,0,0,4.9114-3.4024h-5.1307v-4.4108h9.63Z" transform="translate(-20 -64.012)"/>
      <path class="cls-84" d="M222.046,257.9544s-6.6185-.7378-7.3882,8.1762c-.5679,6.5773,3.7674,9.6284,5.3067,9.5819l1.4813-4.723s-4.66-.3109-4.8049-6.4774C216.6409,264.5121,216.5467,258.462,222.046,257.9544Z" transform="translate(-20 -64.012)"/>
      <path class="cls-85" d="M227.5879,267.6627h4.2935s-.6312,3.9457-3.2384,6.14l-3.3242-3.3332A4.4024,4.4024,0,0,0,227.5879,267.6627Z" transform="translate(-20 -64.012)"/>
    </g>
    <g>
      <path class="cls-86" d="M236.1262,264.4962a11.9453,11.9453,0,1,1,11.9369,11.4962A11.6235,11.6235,0,0,1,236.1262,264.4962Zm18.6268,0a6.691,6.691,0,1,0-6.69,6.5694A6.4093,6.4093,0,0,0,254.753,264.4962Z" transform="translate(-20 -64.012)"/>
      <path class="cls-87" d="M247.711,257.9422s-7.9107-.74-8.8306,8.1968c-.6788,6.5937,4.1784,9.2236,6.3672,9.54l1.7461-4.6692a6.5387,6.5387,0,0,1-5.6408-6.5064S241.2912,258.379,247.711,257.9422Z" transform="translate(-20 -64.012)"/>
    </g>
  </g>
</svg>
