<?xml version="1.0" encoding="utf-8"?>
<!-- Generator: Adobe Illustrator 24.1.0, SVG Export Plug-In . SVG Version: 6.00 Build 0)  -->
<svg version="1.1" id="Layer_1" xmlns="http://www.w3.org/2000/svg" xmlns:xlink="http://www.w3.org/1999/xlink" x="0px" y="0px"
	 viewBox="0 0 1280 1024" style="enable-background:new 0 0 1280 1024;" xml:space="preserve">
<style type="text/css">
	.st0{opacity:0.2;}
	.st1{fill:#231F20;}
	.st2{fill:#1565C0;}
	.st3{fill:#14C5D7;}
	.st4{fill:#2C94EA;}
	.st5{fill:#01EEC8;}
	.st6{fill:#25A1E4;}
	.st7{fill:#279DE6;}
	.st8{fill:#1AB8DC;}
	.st9{fill:#05E4CB;}
	.st10{fill:#1DB3DD;}
	.st11{fill:#07E0CC;}
	.st12{fill:#1FAFDF;}
	.st13{fill:#21AAE1;}
	.st14{fill:#17C0D9;}
	.st15{fill:#2A99E7;}
	.st16{fill:#10CDD4;}
	.st17{fill:#24A5E3;}
	.st18{fill:#24A6E3;}
	.st19{fill:#03E8CA;}
	.st20{fill:#15C4D7;}
	.st21{fill:#1ABADB;}
	.st22{fill:#0DD2D2;}
	.st23{fill:#27A1E5;}
	.st24{fill:#12C9D5;}
	.st25{fill:#18BCDA;}
	.st26{fill:#09DBCE;}
	.st27{fill:#07E0CD;}
	.st28{fill:#1BB7DC;}
	.st29{fill:#19BBDA;}
	.st30{fill:#0BD7D0;}
	.st31{fill:#02EDC8;}
	.st32{fill:#11CCD4;}
	.st33{fill:#1EB2DE;}
	.st34{fill:#0CD7D0;}
	.st35{fill:#0DD3D2;}
	.st36{fill:#0ADACE;}
	.st37{fill:#07DFCD;}
	.st38{fill:#07E4CB;}
	.st39{fill:#0FCFD3;}
	.st40{fill:#04E7CA;}
	.st41{fill:#03EAC9;}
	.st42{fill:#23B4DE;}
	.st43{fill:#12C8D5;}
	.st44{fill:#1DC3DA;}
	.st45{fill:#1DC7D8;}
	.st46{fill:#23AEE0;}
	.st47{fill:#16C0D9;}
	.st48{fill:#0CD6D0;}
	.st49{fill:#06E1CC;}
	.st50{fill:#2F9FE7;}
	.st51{fill:#0CD5D0;}
	.st52{fill:#16D0D4;}
	.st53{fill:#08E0CD;}
	.st54{fill:#24BDDC;}
	.st55{fill:#32C7DD;}
	.st56{fill:#1ECAD8;}
	.st57{fill:#12CAD5;}
	.st58{fill:#14C4D7;}
	.st59{fill:#13C8D6;}
	.st60{fill:#08DECD;}
	.st61{fill:#10CED3;}
</style>
<g>
	<g class="st0">
		<path class="st1" d="M153.2,591.3"/>
	</g>
	<g>
		<path class="st2" d="M153.2,587.3"/>
	</g>
</g>
<g>
	<g class="st0">
		<path class="st1" d="M152.4,591.4"/>
	</g>
	<g>
		<path class="st2" d="M152.4,587.4"/>
	</g>
</g>
<g>
	<path class="st3" d="M68.9,993.3c-14.2-7.5-4.8-18.4-6.1-27.8c29.8-43.6,75.4-76.9,114-114.7c14.1-13.8,30-26.2,41-42
		c50.2-56.1,113.7-103,164.2-158.9c7.7-8.6,19.3-13.8,28.5-21.1c8.4-6.7,19-13.2,5.2-23.2c-6.5-6.5-9.1-14-2.5-20.7
		c28.1-28.2,39.1-63.8,62.6-94c6.4-8.2,11.9-16.5,26.5-14.2c12.8,14.3,10.7,28.2-3.4,40.6c-19.4,17-21.4,41.4-39.3,59.2
		c-5.1,5.1-4.5,12.6,4.1,17.3c6.2,4.5,13.3,8.9,6,16.6c-35.7,13.3-56.8,37-70.8,65.7c-5.1,10.5-9.5,21.3-14.2,32
		c-74.1,69-146.1,139.5-221.9,207.3C132.8,942.2,108.1,973.5,68.9,993.3z"/>
	<path class="st4" d="M941.6,180.5c23.1,30.1,28.4,64.2,32.5,98.4c-2,30.6-0.3,62.3-36.7,82.9c-29.6,16-60.1,30.5-95.8,35.7
		c-7.4,0.9-14.5,0.5-20.7-3.5c-4.7-7.7-1.7-15.1,2.2-22c32.4-58.1,67.2-115.2,96.6-174.4C923.9,189.6,929.9,182.5,941.6,180.5z"/>
	<path class="st5" d="M152.5,181.2C77.9,162.6,63.4,122.6,115,75.9c32.6-29.5,71.7-50.5,121.4-55.8c12.3,8.9,14,9.5,8.1,19.9
		c-27,47.3-49.2,96.5-82,141.6C159,183.6,155.7,183.5,152.5,181.2z"/>
	<path class="st6" d="M694.5,382.9c24.1-15.1,14.7-39.2,23.6-58.3c5.3,0.2,9.5,1.4,12.9-4.9c40.6-73.9,80.1-148.2,117.9-223.2
		c1.8-3.6,4.5-6.6,8.6-8.6c11.3,6.3,21.3,13.6,28,23.5c7.6,9.8,5.8,19.5,1.2,29.9c-18.5,42.1-39.6,83.1-65.9,122.6
		c-23.8,35.8-36.5,76.1-62.5,111.4c-7.1,9.7-10.9,21.2-24,27.5c-22.6,2.2-47.3,12.5-63.6-10.5C673.2,380,687,386.9,694.5,382.9z"/>
	<path class="st7" d="M737.3,398.6c28.8-51.2,57.3-102.6,86.4-153.7c24.6-43.3,51-86,61.8-133.5c14.6,10,26.7,21.6,34.3,36
		c2.3,20.2-12.2,36.7-21.9,52.9c-36,60.5-67.1,122.8-103.3,183.2c-4.6,7.6-8.8,15.6-19.1,19.6C761.9,406.5,748.7,407.7,737.3,398.6z
		"/>
	<path class="st8" d="M594.7,267.7c-17.6-0.4-33.4-6.2-49.3-11.5c46.3-44.1,62.8-100.5,94.1-150.8c17.6-28.2,37.1-56.8,41.7-89.5
		c19.6,1.1,38.4,4.5,56,11.7c9.4,10.7,1.8,20.2-4.1,29.2c-40.7,62.1-72.2,127.6-111,190.4C616.2,256.8,614.4,270.2,594.7,267.7z"/>
	<path class="st9" d="M62.9,690.6c0-19,0-38.1,0-57.1c45.2-68.5,90.7-136.9,137-205c6.8-10,12.8-20.4,24.7-27.5
		c8.4-3.4,17.4-4,26.6-3.3c5.5,0.6,10.6,2,15.1,4.8c8.2,10.1,0.7,18.3-5.4,26.3c-53,69.9-96.7,143.9-145.6,215.6
		C102.8,662.7,93.2,685,62.9,690.6z"/>
	<path class="st10" d="M594.7,267.7c26.1-23.9,36.6-54.4,52.9-82.5c30.4-52.4,59.8-105.1,89.7-157.6c13.4,0.8,24.2,6.6,35.1,12.1
		c4.5,4.1,4.2,8.9,1.6,13.3c-43.1,73-79.6,148.4-123.3,221.1c-2.6,4.3-6.5,7.9-11.9,10.2C622.7,281,608.1,275.5,594.7,267.7z"/>
	<path class="st11" d="M62.9,690.6c45.5-37.4,66.9-86.5,97.2-131.3c35.1-51.7,70.4-103.3,105.7-154.9c6.3-5,13.3-5.1,20.8-2.2
		c10.3,8.6,10.7,19.5,4.6,28.7c-20.7,31-39.9,62.8-68,90.2c-12.6,2.4-22.9,7.6-31.3,17.6c5-3.6,8.9-5,13.2-1.6
		c7.6,10.5,3.4,20-3.9,29.1c-35.2,44.3-61.8,92.4-92.6,138.6c-9.4,12.5-14.8,27.5-31.9,35.5c-5.3,0.7-10.1-0.3-13.9-3.5
		C62.9,721.2,62.9,705.9,62.9,690.6z"/>
	<path class="st12" d="M638.7,284.3c17.5-33.9,34.4-68.2,52.8-101.8c26.3-47.8,53.8-95.2,80.8-142.8c13,0.9,18.8,10.4,28.1,15.7
		c6.1,31.6-18.6,55.7-32.3,81.9c-23.1,44.2-47.8,87.9-69.7,132.6c-5.6,11.3-9,26.7-31.2,25.6C656.3,294.1,646.8,290.4,638.7,284.3z"
		/>
	<path class="st13" d="M667.2,295.4c31.3-18,33.2-49.6,45.8-74.6c28.2-55.5,64.2-108.3,87.4-165.5c15.7,0.3,25.2,9,35.1,17.3
		c11.5,12.6,3.1,24-4.6,34.2c-41.6,55-66.6,116.3-99.7,174.5c-7.5,13.1-11.4,30.7-37.8,26.3C684.7,303.6,676,299.5,667.2,295.4z"/>
	<path class="st14" d="M469.9,610.2c-0.3-7.4-5.2-10.9-14.1-11.1c-2.8-22.7,14.5-40.4,27.9-56.5c37.5-44.9,58.3-97.3,98.5-140.7
		c13.9-6,28.2-5.6,42.8-2.4c3.4,1.1,6.2,2.8,8.4,5.2c3.2,9.8-0.1,19.4-5.6,27.4c-38.2,55.7-68.3,115.2-115.8,166.7
		C498,602.6,483.9,606.4,469.9,610.2z"/>
	<path class="st15" d="M779.5,398.6C822,313.3,870,230,919.8,147.4c11.3,9.3,18.6,20.4,21.8,33.2c-27.8,49.4-55.6,98.8-83.5,148.2
		c-12.1,21.4-24.3,42.8-36.5,64.2c2.3,8.3-5.5,9.4-12.1,11.4c-3.5,0.7-7.1,0.9-10.7,0.8C791.5,404.8,784.5,403.7,779.5,398.6z"/>
	<path class="st16" d="M62.9,937c0-13.4,0-26.8,0-40.3c54.2-41.7,97.3-91.4,145.9-137.1c37.3-35.1,75.7-69.7,112.1-105.6
		c18.5-18.2,39.5-34.6,65-46.8c27.5,3,22.8,17.7,10.6,27.5C355,668.2,324,708.9,281.5,741.4c-29,22.2-52.7,47.8-73.5,75.2
		c-4.7,5.7-10.6,10.5-17.3,14.7c-26.9,14.5-48.3,33.1-62.5,56.9c-13.3,13.8-25.4,28.4-40.5,40.9C81.2,934.5,75.7,943.9,62.9,937z"/>
	<path class="st14" d="M68.9,993.3c30.7-29.4,60.1-59.7,92.2-88c68.4-60.3,134.2-122.3,198.2-185.7c7.1-7.1,13.3-13.2,25.5-11.7
		c-0.2,9.6-0.4,19.2-0.6,28.8c-31.4,37.9-70.5,70.7-107.1,105.1C228.9,887.1,178.7,931,133,977.9c-14.9,15.3-32.7,11.4-49.8,15
		C78.5,993,73.7,993.2,68.9,993.3z"/>
	<path class="st13" d="M807.6,398.7c5.8-0.2,11.1-1.2,14.1-5.8c7,0,14.1,0,21.1,0c17.7,3.3,20.1,7.3,15.9,23.2
		c-4.6,17.4-22.3,28.3-31.4,43.6c-17.6,29.6-39.5,57.5-50.2,89.6c-3,8.9-13.3,12.8-18.7,20c-22.1,9.4-45.1,16.4-70.3,18
		c-5-7.6-2.5-15.4,2-21.8C729.4,509.9,758.5,449.6,807.6,398.7z"/>
	<path class="st17" d="M758.4,569.3c15.5-40.8,40.1-78.4,62.9-116.6c6-9.9,17.7-15.6,22.8-24.7c6.3-11.1,19.8-24-1.4-35.1
		c30.5-11.5,61-22.9,91.5-34.4c10.5,13.7-2.9,23.1-9.8,33.2c-32.6,47.8-62.3,96.8-95.9,144.2C808.2,551.2,785,562.6,758.4,569.3z"/>
	<path class="st18" d="M693.5,307.6c8-3.6,19-5.2,21.6-13.4c12.8-40.5,47.8-73.4,58.1-115c6.3-25.4,32.5-43.3,44.6-67
		c6.6-13,19.3-24.2,17.8-39.6c9.5,3,16.5,8.3,21.9,15.3c-4.5,37.6-34,67.6-47.5,102.5c-17,44.1-47.3,83.4-68.7,125.9
		c-3.3,6.6-4.8,26-23.2,8.2C709.9,318.9,701.7,313.3,693.5,307.6z"/>
	<path class="st19" d="M223.6,404.4c-20.1,33.9-40.5,67.5-66.3,99.2c-24.3,29.9-41.4,63.7-60.1,96.5c-8,14.1-16.9,26.3-34.3,33.4
		c0-21,0-42,0-63c17.8-38.4,47.5-71.5,70.9-107.4c12.5-19.3,22.5-39.3,32.8-59.3C185.7,397,204.8,392.1,223.6,404.4z"/>
	<path class="st20" d="M498,250c-14.7,1.9-27.2-1.2-36.4-11.2c5.9-29.2,17.6-56.5,40.1-80.2c8-8.4,12.4-17.8,15.9-28
		c14.4-42.7,42.5-80.6,64.8-120.5c11.8,0,23.6,0.1,35.4,0.1c16.6,6.2,12.6,17.3,7.4,26.6c-36.3,66.3-72.8,132.6-111.9,198
		C509.8,240.9,504.7,246,498,250z"/>
	<path class="st14" d="M498,250c26.7-47.8,53.5-95.5,80.1-143.4c13.8-24.9,26.8-50.1,40.7-75c4.2-7.6,5.3-14.4-0.9-21.3
		c14.4-0.4,29.1-2.9,42.5,3.7c9.8,30.7-11.2,56-27.8,79.2C597.7,142,576.8,195.3,548,246c-2,3.5-4.7,6.6-7.7,9.4
		C525.9,255,510.8,258.5,498,250z"/>
	<path class="st21" d="M512.1,598.8c3.5-25.2,26.3-42.9,38.4-64.8c24.5-44.1,62.5-82.8,81.2-129.6c13.8-10.3,29-8,44.4-3.1
		c12.9,4.3,9.4,12.1,5.1,18.9c-27.6,44-53,89-86.7,130.2c-11.5,14-11.9,33.8-33.2,42.6C545.2,596.1,529.1,600.4,512.1,598.8z"/>
	<path class="st22" d="M385.4,610.6c-57.5,49-112.9,99.2-166.4,151.3c-40.8,39.8-80.1,81-122.8,119.6c-8.1,7.3-22.1,10.3-33.4,15.3
		c0-9.5,0-19.1,0-28.6c4.3-6.8,7.8-13.8,14.9-19.2c69.2-52.5,125.1-114.5,186.7-172.4c22-20.7,43.9-41.7,67.4-61.4
		c3.3-3.5,7.2-6.3,12-8.3c6.9-2.4,14.1-3.2,21.5-3C373.1,604.2,380.3,605.4,385.4,610.6z"/>
	<path class="st12" d="M807.6,398.7c-9.6,32.4-38,56.9-55,86.4c-20,34.6-46.7,66.5-64.5,102.2c-15.9,4.7-32.2,7.3-49.2,5.4
		c-1.2-25.1,19.8-43.2,29.6-64.7c19.3-42.2,58.9-74.9,75.6-117.6c1.5-3.7,4.8-6.4,9.1-8.2c15.6-2.6,32.2,3,47.4-3.4
		C802.9,398.7,805.3,398.7,807.6,398.7z"/>
	<path class="st23" d="M828.6,535.9c-8.3-16.3,7.5-26.2,15.3-38.2c30.2-46.4,60.2-92.8,90.4-139.2c28.3-21.5,32.8-50.9,39.9-79.5
		C982.8,386.1,936,472.3,828.6,535.9z"/>
	<path class="st24" d="M582.4,10.2c7.5,35.1-30.1,56.9-39.3,87.9c-14,47-55.5,85.5-72.5,132.4c-1.2,3.2-5.9,5.6-9,8.4
		c-12.1-5.6-24.2-11.2-36.3-16.9C457,157,500,96.3,532.5,31.7c4.6-9.1,12.1-16,21.8-21.5C563.7,10.2,573.1,10.2,582.4,10.2z"/>
	<path class="st25" d="M540.2,255.5c-3.9-32,24-55,35.8-82.6c14.3-33.4,35.3-64.5,57.4-95.3c13.7-19,18.3-42.3,27-63.6
		c6.9,0.6,13.9,1.2,20.8,1.9c14.7,8.1,8,17.7,2.9,27.2c-32.7,60-64.3,120.3-99,179.5c-7.8,13.3-11.9,34-39.7,33.7
		c0,0-2.7,0.4-2.7,0.4L540.2,255.5z"/>
	<path class="st26" d="M371.5,10.1c16.4,0,32.7,0,49.1,0c9,19.4-6.1,35.1-14.6,50.5c-23,41.4-50.3,81.3-71,123.6
		c-2.7,5.5-7.8,9.4-12.9,13.3c-14.8,2.2-28.8-0.2-42.2-5.4c-5.8-17,2.7-32.4,12.2-45.9C323,102.6,347,56.3,371.5,10.1z"/>
	<path class="st27" d="M371.5,10.1c8.5,19.5-8.7,33.8-16.5,49.3c-22.8,45.1-56.3,86.2-75.1,132.8c-28.8-0.4-58,3.5-86.2-4.9
		c4.6-5.4,11.7-6.7,19-7.7c19.7,0.4,27.8-9.8,34.6-23.1c19.2-37.5,43.1-73.2,60.8-111.3c6.1-13.1,13-26.5,28-35.2
		C347.9,10.1,359.7,10.1,371.5,10.1z"/>
	<path class="st28" d="M181.7,983.8c-13.2,7-27.9,6-42.5,5.3c-10.5-15.2,4.9-23,15-30.7c73.6-56.7,133.3-123.5,202-183.6
		c7.5-6.5,13.4-16.9,28.1-9.6c0,2,0,4,0,6c-5.8,9.6,0.8,20.5-5.2,30.1c1.3,1.4,1.1,2.8-0.3,4C330,862.2,264.2,907.4,215.1,963.9
		C206.5,973.8,191.5,975.8,181.7,983.8z"/>
	<path class="st10" d="M751.3,404.4c-3.7,27-17.9,49.9-40.1,69.9c-6.2,5.5-14,10.1-15.6,18.2c-7.3,37.7-45.5,63.9-56.7,100.1
		c-14.1,0.2-28.2,0.3-42.3,0.5c8-51.1,48.1-90.4,77.6-133c13.3-19.2,15.1-43.8,38.8-58.3C725.7,402.7,739,398.9,751.3,404.4z"/>
	<path class="st29" d="M384.2,765.2c-29.7,6.8-37.2,32.1-56.6,47.5C282,848.8,243.5,890.9,202.7,931c-20.3,20-54.8,29.8-63.6,58
		c-18.2,5.6-37,4.9-55.9,3.8c52.8-10,71.2-51.1,103.9-78.6c68.1-57.3,124.7-123.3,197.1-177.6C384.2,746.2,384.2,755.7,384.2,765.2z
		"/>
	<path class="st30" d="M336.1,616.3c1.1,20.7-23.5,31.1-35.9,40c-50.4,36.1-85.1,82.9-132.1,121.4c-35.4,29-65.6,63.5-105.2,90.4
		c0-7.6,0-15.2,0-22.7c14.4-20.8,32.2-39.9,52.9-56.2c44.5-35,76.5-78.6,122.5-112.5c19.7-14.5,36.7-31.9,46.3-52.9
		c8-8.8,20.6-9.3,32-12C323.9,611.1,330.9,611.4,336.1,616.3z"/>
	<path class="st31" d="M167.3,410.1c2.8,30.8-23.1,52.4-40.3,75.5c-21,28.4-31.9,62.1-64.1,84.9c-6.6-66.9,9.5-126.2,83.9-165.9
		C156.9,398.3,162.1,404.2,167.3,410.1z"/>
	<path class="st32" d="M554.3,10.2C521.1,68.1,493.1,128,452.1,182.9c-9.5,12.7-0.7,33.7-26.8,39c-6.7-1.2-14.8,1.1-19.5-5.1
		c-4.8-5.2-4.4-10.8-1.1-16.1c37.2-60,66-123.1,100.8-183.9c1.5-2.6,4.1-4.6,6.5-6.7C526.2,10.1,540.2,10.2,554.3,10.2z"/>
	<path class="st33" d="M181.7,983.8C234,932.6,286,881,343.7,833.7c11.6-9.5,11.7-28.6,35-28.4c0.9,13.8-0.6,27.3-7.8,40.2
		c-29.8,44.4-74.8,79.2-112.3,118.8C233.6,972.2,209.9,984,181.7,983.8z"/>
	<path class="st34" d="M322.1,197.6c15.8-46.2,46-87.1,71.3-129.9c10.9-18.4,18.2-38.3,27.2-57.6c11.7,0,23.5,0,35.2,0
		c8.7,7.6,7.5,16,1.1,23.6c-36.2,42.7-40,97.9-81.1,138.8c-9.1,9.1-3.6,22.6-12.2,32.3C349.7,202.4,335.9,200,322.1,197.6z"/>
	<path class="st28" d="M709.1,404.4c1.3,35.7-32.1,58.7-49.2,87.6c-20.1,34.1-42.1,67.4-63.4,101.1c-11.7,0-23.5,0-35.2,0
		c20.9-42.6,51.4-81.2,78-121.4c14.6-22.1,27.7-44.9,41.5-67.3C690.4,400.2,699.7,400.2,709.1,404.4z"/>
	<path class="st35" d="M363.6,204.8c-10.1-13.2-6.3-28.5,3.7-37.2c38.6-33.8,43.2-79.5,66.2-118.6c7.5-12.7,30.2-20.4,22.3-38.8
		c14.1,0,28.1,0,42.2,0c2.6,2.1,4.9,5.3,3.3,7.5C462,74.3,436.4,136.4,397.8,193.3c-7.7,11.3-18.1,17.2-34.3,11.2L363.6,204.8z"/>
	<path class="st36" d="M286.9,627.7c11.8,14.6-8.5,20.8-14.8,26.8c-66.3,64-134.7,126.5-202.6,189.3c-1.3,1.2-4.4,1.1-6.6,1.5
		c0-9.6,0-19.2,0-28.8c34.5-42.7,80-78.1,119.3-117.5c23.3-23.3,54-41.6,71.2-69.1c2-2.5,4.6-4.4,7.9-5.8
		C270.7,621.4,279.4,621.8,286.9,627.7z"/>
	<path class="st37" d="M258.7,633.5c-10,30.2-45.4,43.9-66.5,67.1c-28.7,31.4-64.5,58.4-94.8,88.9c-10.4,10.5-21.4,19.4-34.5,27
		c0-9.5,0-19,0-28.5c36.7-53.6,96.6-92,139.5-141.6c2-2.3,4.3-4.4,6.8-6.4C224.6,632.7,240.2,625.6,258.7,633.5z"/>
	<path class="st38" d="M336.1,10.1c-29.3,55-58.8,109.9-87.9,164.9c-6.6,12.5-18.8,12-31.8,11.4c-12.1-11.7-5.3-23.3,1.1-34.4
		c24.3-41.8,46.9-84.3,70.5-126.4c5.9-10.5-11.6-5.1-10.4-11.7C296.6,6.8,316.4,9.2,336.1,10.1z"/>
	<path class="st39" d="M363.4,204.5c30.4,0.2,39.8-23.9,45.2-37.3c22.1-55.6,57.8-105.4,89.4-157c4.7,0,9.4,0,14.1,0
		c-9.2,42.3-34.3,80.4-55.8,118.3c-16.6,29.3-28.6,60.9-50.4,88.4C391.7,212.7,377.6,208.6,363.4,204.5z"/>
	<path class="st40" d="M277.7,14c24.1-0.9,19.6,10.6,13.7,21.7c-20.9,38.7-42,77.3-63.9,115.7c-6.5,11.3-12.7,22.3-11,35.1
		c-7.6,0.3-15.1,0.6-22.7,0.9c-14.2,0-28.6,0.8-41.2-6.1c2.6-0.3,5.1-0.6,7.7-0.9c35.4-25.8,46.3-63.2,66.5-95.9
		c14.6-23.7,31.3-46.3,46.1-69.8C274.3,13.3,275.9,13.1,277.7,14z"/>
	<path class="st9" d="M209.5,650.7c-37.4,35.2-73.5,71.4-112.9,105c-12.2,10.4-8.9,31.3-33.7,32.4c0.1-5.8,0.3-11.7,0.4-17.5
		c4.2-11.3-1.1-25,12.5-34c9.4-11.5,18.8-22.9,28.1-34.4c12.8-16,29.8-28.6,48.4-39.9C170.2,654.6,185.8,639.4,209.5,650.7z"/>
	<path class="st41" d="M272.8,14.6C278.2,40,251,53.9,240.9,74c-14.9,29.6-31.2,58.7-48.7,87.4c-5.9,9.7-15.3,19.4-32,19
		c19.3-51.2,53.1-97.2,78.6-146.1c3.2-6.1,5.3-10.2-2.5-14.1C247.3,12.8,260.2,14.3,272.8,14.6z"/>
	<path class="st42" d="M694.5,382.9c-5.6,5.4-13.4,4-20.6,4.6c-25.4,15.8-58,0.5-84.2,12.8c-14.6,3.9-29.1,8.4-44.5,2.6
		c-11.8-6-6.5-13.6-0.7-19.1c30.1-28.8,21.4-55.2-5.7-81.1c-2.2-2.1-3.2-5-4.2-7.7c-1.4-6.2-0.1-11.8,5.7-16.3
		c46.1,23.8,60.9,47.3,51.2,87.2c-3.4,13.8,1.4,16.5,16.3,16.4C636.7,382.2,665.6,382.7,694.5,382.9z"/>
	<path class="st43" d="M188.4,828.2c2.7-5.5,7.4-9.3,14.1-11.5c6-4.4,11.6-9.9,21.1-5.7c-6.9,27.4-38.9,38.6-57.6,58.4
		c-31.7,33.8-65.6,66.2-103.1,96c0-9.5,0-19,0-28.5c28.6-10.9,36-38.7,62.2-51.5C147.2,867.2,161.3,842.9,188.4,828.2z"/>
	<path class="st44" d="M215.2,386.5c57.5-9.4,115.5-2.1,173.3-4.2c14.2-0.5,29.6,1.7,24.5-16.7c-3.3-8.9-8.3-20.5,3.5-24.8
		c14.5-5.3,17.3,7.9,22.4,15.6c8.1,15.7,26.2,26,34.6,41.6c0.1,3-1,5.8-3.3,8.2c-8.2,4.7-17.4,4.5-26.8,3.6
		c-3.8-0.4-7.5-1.1-11.1-2.1c-51.8-5.9-102.8-18.1-156-12.3C255.5,393.9,233.2,400.1,215.2,386.5z"/>
	<path class="st45" d="M433.6,364.3c-3.6-6.6-7.1-13.3-10.9-20.2c-14.9,4.2-6.7,14.5-9.7,21.5c-16.4-44.7,11.2-82.5,68.4-93.8
		c13.4-2.9,26.7-3,40.1,0c8.5-1.8,11.9,5.6,18.7,6.9c-0.1,5.9-0.2,11.8-0.3,17.7c-8.1,2.6-15.3-0.5-22.7-2.3
		c-11.8-3.7-23.3-3.5-34.4,2.1c-25.1,12.2-41.3,28.7-40.5,53.9C442.5,355.6,440.3,361.1,433.6,364.3z"/>
	<path class="st46" d="M258.7,964.2c-2.4-21.9,22.5-30.2,35.3-43.7c24.3-25.8,46.3-53.6,77-75.1
		C355.3,898.7,318.8,938.9,258.7,964.2z"/>
	<path class="st33" d="M329.1,261.6c-16.4-0.4-32.8-0.9-49.3-1.3c-12.9-19.1-6.7-34.1,15.1-45.6c17.1-2.6,31.7,6.8,48.2,6.8
		C355.9,238.9,340,249.6,329.1,261.6z"/>
	<path class="st47" d="M295,214.6c-8.7,14.4-16.3,29.1-15.1,45.6c-14.1-1.9-28.1-3.8-42.2-5.7c-11.7-12.8-12.6-25.5,0-38.3
		c2-0.7,4.2-1.1,6.4-1.2c16.9-4.1,33.7-3.6,50.7-0.3L295,214.6z"/>
	<path class="st48" d="M215.2,386.5c21.6,0.4,43.1,0.7,64.7,1.1c14.2,8.9,30.8,3.9,46.3,5.5c10.3,1.1,24.5-2.6,24.4,12.3
		c-10.3,7-22.6,6.9-34.9,6.7c-10.7,0.1-20.6-1.7-28.8-7.7c-7,0-14.1,0-21.1,0c-4.7,0-9.4,0-14.1,0c-27.4-8.1-56.7,2-84.1-5.7
		C181.4,389.3,197.9,386.9,215.2,386.5z"/>
	<path class="st6" d="M329.1,261.6c-4.4-15.5,18-24.7,14.1-40.1c14.1,3.9,28.1,7.8,42.2,11.7c10.6,26.6,7.7,30.4-24.2,30.7
		c-9.2,0.1-18.6,1.2-27.5-2l-2.4,0.6L329.1,261.6z"/>
	<path class="st49" d="M173.9,246.6c-31.6-4-63.7-5.9-96.8-16.3c30.8-10.1,61.3-8.8,90.1-14.1C176.3,225.3,182.2,234.9,173.9,246.6z
		"/>
	<path class="st50" d="M333.7,261.9c22.3-3.6,58.9,9.9,51.7-28.7c19.8,2.5,33.7,13.2,57.1,25C400.6,261.7,368.1,273.4,333.7,261.9z"
		/>
	<path class="st51" d="M173.9,246.6c-4.1-9.9-8.1-19.7-6.7-30.4c6.7-0.4,13.3-0.8,20-1.2c7.5-3.3,15.1-2.8,22.8-0.7
		c11,13.6,3.8,24.5-7.7,34.9C192.8,249.2,182.8,252.3,173.9,246.6z"/>
	<path class="st52" d="M202.4,249.1c2.3-11.1,4.6-22.2,6.9-33.3c3.1-4.6,10.1-2.2,14.1-5.1c4.8,1.9,9.5,3.8,14.3,5.6
		c0,12.8,0,25.5,0,38.3C224.6,258.1,213.9,252,202.4,249.1z"/>
	<path class="st53" d="M167.6,398.7c28,2.8,57.1-6.2,84.1,5.7c-9.4,0-18.8,0-28.2,0c-18.7,2.5-39-5.7-56.3,5.7
		c-6.8-1.8-13.6-3.7-20.5-5.5C151.6,397.6,160.1,399.3,167.6,398.7z"/>
	<path class="st37" d="M75.8,736.6c-4.2,11.3-8.3,22.7-12.5,34c-0.1-11.3-0.3-22.7-0.4-34C67.2,736.6,71.5,736.6,75.8,736.6z"/>
	<path class="st54" d="M294.7,214.9c-16.9,0.1-33.8,0.2-50.7,0.3C260.8,206.1,277.7,208.7,294.7,214.9z"/>
	<path class="st55" d="M521.5,271.9c-13.3,0-26.7,0-40,0C494.8,265.7,508.2,265.7,521.5,271.9z"/>
	<path class="st33" d="M379,801.3c0.6-10.2-5-21,5.2-30.1C385.3,781.5,386.2,791.9,379,801.3z"/>
	<path class="st56" d="M223.4,210.6c-4.7,1.7-9.4,3.4-14.1,5.1c-7.3-0.3-14.7-0.5-22-0.8C198.5,209.4,210.9,210,223.4,210.6z"/>
	<path class="st57" d="M223.6,811c-7,1.9-14.1,3.8-21.1,5.7c11.5-31,38.2-54.3,66.2-74.5c46.5-33.6,75.5-79.3,123.1-111.8
		c10.3-7,12.8-16.9-6.4-19.8c-7,0-14.1,0-21.1,0c-5.5-8.8-2-17.3,3.7-24.3c22.2-26.9,34-58.9,56.8-84.7
		c22.2-25.1,21.3-58.6,49.8-80.4c8.4-6.4,13.2-15.7,24-20.4c9-2.9,17.8-3,26.2,1.4c8,9.2,0.1,16.5-5.7,23
		c-43.7,49.4-65.5,108.7-109.1,158.2c-8.8,9.9-13.1,20.9,10.5,21.5c18.2-0.1,27.5,5.1,10.1,17c-37.7,25.8-63.7,59.9-97.5,88.4
		c-30.5,25.6-61.7,50.4-84.5,81.5C243,799.4,232.1,804.6,223.6,811z"/>
	<path class="st58" d="M582.4,404.4c-22.9,48.8-57.1,92.7-88.9,137.8c-13.2,18.7-25.2,37.9-37.8,56.9c-25.8-7.2-6.7-26.7-3.9-28.6
		c25.4-16.6,17.7-48.8,47.5-63.3c10.4-5.1-5.2-19.8,5.6-28.4c-7-31.8,18.4-53.3,37.3-76.8C555.7,402.5,569.5,398.9,582.4,404.4z"/>
	<path class="st59" d="M540.2,404.4c-1.5,28-29.7,47.7-35.2,74.4c-31.7,9.3-30.8,37.3-47.2,55.5c-15.2,17-16.3,41.2-40.3,54.9
		c-6.6,3.8,0.9,10.4,3,15.5c-36.4,2.8-24.9-17.9-16.2-27.8c47.7-54.3,69.4-120.6,121.7-172.5c1.8-1.8,4.2-2.9,7-3.3
		C536,401.5,538.4,402.5,540.2,404.4z"/>
	<path class="st13" d="M589.5,398.6c4.2-17.1,21-10.5,33.2-11.2c17-0.8,34.2,0,51.2,0.1c16.3,22,42.6,6.2,63.4,11.1
		c14.1,0,28.1,0,42.2,0c7,0,14.1,0,21.1,0.1c-14.8,10.9-32.9,3.4-49.3,5.7c-14.1,0-28.1,0-42.2,0c-9.4,0-18.8,0-28.1,0
		c-16.4,0-32.8,0-49.3,0l0,0C618.8,396.9,602.5,405.8,589.5,398.6z"/>
	<path class="st60" d="M286.9,404.4c9.4,0,18.8,0,28.1,0c10.9,16.3-1.6,29.6-10,42.5c-40.3,62.1-82.4,123.4-127,183.6
		c-9,12.2-12.2,26.9-24.8,37.4c-16.4,11.5-32.8,22.9-49.3,34.4c23.8-48.1,54.1-93.5,88.3-137c7.6-9.7,10.6-18.5,10.2-29.1
		c-0.1-8.3,5.6-13.5,14.1-17.2C241.3,481.3,282.6,450.4,286.9,404.4z"/>
	<path class="st53" d="M216.5,518.9c-4.7,5.7-9.4,11.5-14.1,17.2c-4.1,5-8.2,10-12.3,15C190.4,535.6,189.8,519.4,216.5,518.9z"/>
	<path class="st21" d="M589.5,398.6c14.1,1.9,29.9-4.6,42.2,5.8c-16.4,0-32.8,0-49.3,0c-14.1,0-28.1,0-42.2,0c-2.3,0-4.7,0-7,0
		c-2.5-1.1-3.2-2.8-2.3-5c1.8-1.7,4-2.3,6.7-1.8C554.9,397.9,572.2,398.3,589.5,398.6z"/>
	<path class="st57" d="M188.4,828.2c-21.2,19.1-30.2,47-63.3,57.3C134.1,857.6,156.5,839.4,188.4,828.2z"/>
	<path class="st61" d="M441.7,404.4c9.4,0,18.8,0,28.1,0c5.6,24.1-13.9,42-26.5,60c-33.8,48.5-57.2,101.9-100.2,146.2
		c-2.3,1.9-4.7,3.8-7,5.7c-7,0-14.1,0-21.1,0c-14.2-11.2-15.9-15.2-4.7-28.3c41.6-49.1,67-105.2,103-156.6
		C420.7,421,424,407.6,441.7,404.4z"/>
	<path class="st32" d="M343.2,610.6c-2.3-23.4,22.8-36.6,33-55.5c28-51.3,67.8-98.2,93.6-150.7c0-2,0.1-3.9,0.1-5.9
		c2.4-1.8,5.1-2.6,8.4-2.3c7.6,1.5,15.3,2.7,19.6,9c-50.3,66-86.4,138.1-133.7,205.4C357.3,610.6,350.2,610.6,343.2,610.6z"/>
	<path class="st22" d="M441.7,404.4c-22.1,34.3-42.3,69.8-66.2,102.9c-18.8,26.1-22.2,59.1-54.2,79.6c-9,5.7-21.2,17.3-6.3,29.4
		c-6,9.3-22.1,2.2-28.2,11.4c-9.4,0-18.8,0-28.1,0c-11.2-11-6.1-23.1,2-31.6c49.9-51.9,75.2-115.3,121.1-168.9
		c7.9-9.2,13.4-20.2,27.2-25.3C420,402.4,431.3,399.2,441.7,404.4L441.7,404.4z"/>
	<path class="st48" d="M406.5,404.4c-30,44.3-62.8,87.5-88.9,133.3c-17.7,31.1-57.8,52.2-58.9,90c0,1.9,0,3.8,0,5.7
		c-16.4,3.8-32.8,7.6-49.3,11.4c-5.9,1.5-8.5-0.7-8.6-5.3c-0.2-7.9,2.6-15.4,7.3-21.9c49.9-67.9,89-140.6,141.4-207.4
		c3-3.9,6.2-8.2,11.9-10.2C377.3,396,391.8,401.4,406.5,404.4z"/>
	<path class="st36" d="M357.3,404.4c-19.4,43.8-55.9,80.5-77.6,123.4c-18.6,36.8-53.8,66.3-69.4,104.4c-1.7,4.2-7,8.2-0.8,12.7
		c0,1.9,0,3.8,0,5.7c-21.9-1-37.7,11.2-56.3,17.2c16.2-60.5,72.3-104.4,100.9-159.4c18.4-35.6,53.3-64.5,61-104
		c11.7,0,23.5,0,35.2,0C352.6,402.6,354.9,402.6,357.3,404.4z"/>
	<path class="st61" d="M357.3,404.4c-2.3,0-4.7,0-7,0c-12.7-10.3-28.7-4.1-43.1-5.6c-10.8-1.1-24.5,2.9-27.3-11.2
		c55.4-3.4,109.4,1.7,161.8,16.8c-11.7,0-23.5,0-35.2,0C390.1,404.4,373.7,404.4,357.3,404.4z"/>
	<path class="st55" d="M519,289c-11.6,0-23.3,0.1-34.9,0.1C495.7,281.5,507.3,281.5,519,289z"/>
	<path class="st44" d="M477.1,399.6c18.7-0.2,37.4-0.5,56.1-0.7c0,1.8,0,3.7,0,5.5c-2.4,0.1-4.7,0.1-7.1,0.2
		c-9.4,0.2-18.8,0.4-28.1,0.6C490.7,404.1,482.4,405.5,477.1,399.6z"/>
</g>
</svg>
